{
.appVersion = "1233";
classes = (
{
automatic = 1;
code = "A B C D E F G H I J K L M N O P Q R S U T V W X Y Z a a_hook a_macr a_n a_r b b_e b_o b_r b_s c c_hook c_macr c_a c_c c_e c_i c_h c_k c_o c_o_macr c_t c_t_i c_u c_u_macr d d_strok d_e d_e_hook d_e_macr d_o e e_hook e_macr e_etfin f f_a f_e f_f f_i f_l f_o f_r f_u g g_hook g_macr g_e g_e_macr g_i g_o g_u h h_e h_e_macr h_o i dotlessi i_macr i_n i_u i_j j k l l_hook l_i l_u m m_macr n n_macr n_i o o_macr o_e o_r p p_bardes p_hook p_macr p_e p_e_macr p_o p_o_macr p_p p_p_flour p_r q q_etfin q_etfin_macr q_etfin_ra q_hook q_macr q_ra q_strok r r.ss01 r_macr r_a r_a_macr r_e r_o s s.ss01 longs longs_strok longs_c_h longs_i longs_longs longs_t longs_t_i longs_t_u t t_acute t_urrot t_a t_e t_e_macr t_i t_o t_t t_u t_u_macr u u_hook u_macr u_ring u_i v v_hook v_longhook v_e v_o w x y y_dieresis z con rum us";
name = AllLetters;
}
);
copyright = "Copyright (c) 2019 ANRT. All rights reserved.";
customParameters = (
{
name = glyphOrder;
value = (
.notdef,
emspace,
enspace,
threeperemspace,
fourperemspace,
space,
thinspace,
hairspace,
A,
B,
C,
D,
E,
F,
G,
H,
I,
J,
K,
L,
M,
N,
O,
P,
Q,
R,
S,
U,
T,
V,
W,
X,
Y,
Z,
a,
a_hook,
a_macr,
a_n,
a_r,
b,
b_com,
b_e,
b_o,
b_r,
b_s,
c,
c_hook,
c_macr,
c_a,
c_c,
c_e,
ce_e_macr,
c_i,
c_h,
c_k,
c_o,
c_o_macr,
c_t,
c_t_i,
c_u,
c_u_macr,
d,
d_strok,
d_hook,
d_e,
d_e_hook,
d_e_macr,
d_o,
e,
e_hook,
e_macr,
e_i,
e_etfin,
f,
f_a,
f_e,
f_f,
f_i,
f_l,
f_o,
f_r,
f_u,
g,
g_hook,
g_macr,
g_a,
g_e,
g_e_macr,
g_i,
g_o,
g_r,
g_u,
h,
h_e,
h_e_macr,
h_o,
i,
dotlessi,
i_macr,
i_n,
i_u,
i_j,
j,
k,
l,
l_hook,
l_i,
l_u,
m,
m_macr,
n,
n_macr,
n_i,
o,
o_macr,
o_e,
o_r,
p,
p_bardes,
p_flour,
p_hook,
p_macr,
p_e,
p_e_macr,
p_o,
p_o_macr,
p_p,
p_p_flour,
p_p_macr,
p_r,
q,
q_etfin,
q_etfin_macr,
q_etfin_ra,
q_hook,
q_macr,
q_ra,
q_strok,
r,
r.ss01,
r_macr,
r_a,
r_a_macr,
r_e,
r_o,
r_i,
s,
s.ss01,
longs,
longs_strok,
longs_c_h,
longs_i,
longs_p,
longs_longs,
longs_t,
longs_t_i,
longs_t_u,
t,
t_acute,
t_macr,

glyphs = (
{
color = 3;
glyphname = A;
lastChange = "2019-04-24 17:25:05 +0000";
layers = (
{
layerId = "E35B076F-D533-4C92-BAB9-D65BCB0F4FA2";
paths = (
{
closed = 1;
nodes = (
"459 120 OFFCURVE",
"532 231 OFFCURVE",
"623 350 CURVE SMOOTH",
"653 389 OFFCURVE",
"657 398 OFFCURVE",
"707 375 CURVE",
"755 414 LINE",
"725 428 OFFCURVE",
"699 440 OFFCURVE",
"662 449 CURVE",
"605 386 OFFCURVE",
"478 242 OFFCURVE",
"395 93 CURVE",
"428 82 LINE",
"344 232 OFFCURVE",
"208 362 OFFCURVE",
"145 430 CURVE",
"121 430 OFFCURVE",
"64 428 OFFCURVE",
"53 425 CURVE",
"69 363 LINE",
"145 381 OFFCURVE",
"148 374 OFFCURVE",
"185 329 CURVE SMOOTH",
"305 183 OFFCURVE",
"355 101 OFFCURVE",
"391 -10 CURVE",
"420 -10 LINE"
);
},
{
closed = 1;
nodes = (
"417 615 LINE",
"534 285 OFFCURVE",
"597 111 OFFCURVE",
"612 0 CURVE",
"781 0 LINE",
"781 30 LINE",
"708 101 OFFCURVE",
"593 412 OFFCURVE",
"509 614 CURVE"
);
},
{
closed = 1;
nodes = (
"303 620 LINE",
"195 386 OFFCURVE",
"97 131 OFFCURVE",
"17 24 CURVE",
"20 -5 LINE",
"79 -1 OFFCURVE",
"205 1 OFFCURVE",
"268 -4 CURVE",
"268 28 LINE",
"172 46 LINE",
"386 617 LINE"
);
},
{
closed = 1;
nodes = (
"295 609 OFFCURVE",
"605 591 OFFCURVE",
"663 596 CURVE",
"750 689 LINE",
"728 703 LINE",
"692 681 OFFCURVE",
"473 683 OFFCURVE",
"135 690 CURVE",
"105 660 OFFCURVE",
"75 620 OFFCURVE",
"25 563 CURVE",
"62 554 LINE",
"94 596 OFFCURVE",
"111 609 OFFCURVE",
"153 609 CURVE SMOOTH"
);
}
);
width = 806;
}
);
note = A;
unicode = 0041;
},
{
color = 3;
glyphname = B;
lastChange = "2019-02-26 18:06:43 +0000";
layers = (
{
layerId = "E35B076F-D533-4C92-BAB9-D65BCB0F4FA2";
paths = (
{
closed = 1;
nodes = (
"436 325 OFFCURVE",
"407 617 CURVE",
"307 558 LINE",
"331 351 OFFCURVE",
"358 83 OFFCURVE",
"232 18 CURVE",
"251 -10 LINE",
"328 25 OFFCURVE",
"351 34 OFFCURVE",
"397 34 CURVE SMOOTH",
"455 34 OFFCURVE",
"573 -10 OFFCURVE",
"593 -10 CURVE",
"674 20 OFFCURVE",
"841 79 OFFCURVE",
"841 224 CURVE SMOOTH",
"841 339 OFFCURVE",
"745 410 OFFCURVE",
"549 429 CURVE",
"591 412 LINE",
"713 471 OFFCURVE",
"783 531 OFFCURVE",
"783 599 CURVE SMOOTH",
"783 693 OFFCURVE",
"695 714 OFFCURVE",
"613 714 CURVE SMOOTH",
"457 714 OFFCURVE",
"334 576 OFFCURVE",
"238 576 CURVE SMOOTH",
"220 576 OFFCURVE",
"195 593 OFFCURVE",
"203 635 CURVE",
"179 657 OFFCURVE",
"114 646 OFFCURVE",
"82 619 CURVE SMOOTH",
"10 557 LINE",
"31 536 LINE",
"51 555 OFFCURVE",
"70 563 OFFCURVE",
"87 563 CURVE",
"121 551 OFFCURVE",
"152 515 OFFCURVE",
"202 515 CURVE SMOOTH",
"277 515 OFFCURVE",
"430 649 OFFCURVE",
"565 649 CURVE SMOOTH",
"625 649 OFFCURVE",
"668 623 OFFCURVE",
"668 574 CURVE SMOOTH",
"668 465 OFFCURVE",
"534 406 OFFCURVE",
"411 416 CURVE",
"414 375 LINE",
"583 410 OFFCURVE",
"730 338 OFFCURVE",
"730 228 CURVE SMOOTH",
"730 154 OFFCURVE",
"694 105 OFFCURVE",
"620 92 CURVE",
"600 92 OFFCURVE",
"502 127 OFFCURVE",
"444 127 CURVE SMOOTH",
"391 127 OFFCURVE",
"357 85 OFFCURVE",
"321 69 CURVE",
"320 57 LINE",
"437 200 OFFCURVE"
);
},
{
closed = 1;
nodes = (
"320 364 OFFCURVE",
"301 343 OFFCURVE",
"272 325 CURVE",
"272 315 LINE",
"289 315 OFFCURVE",
"326 283 OFFCURVE",
"333 243 CURVE",
"325 422 LINE"
);
},
{
closed = 1;
nodes = (
"476 88 LINE",
"513 98 LINE",
"512 660 LINE",
"476 658 LINE"
);
}
);
width = 876;
}
);
note = B;
unicode = 0042;
},
{
color = 3;
glyphname = C;
lastChange = "2019-04-24 17:25:05 +0000";
layers = (
{
layerId = "E35B076F-D533-4C92-BAB9-D65BCB0F4FA2";
paths = (
{
closed = 1;
nodes = (
"186 208 OFFCURVE",
"186 366 CURVE SMOOTH",
"186 514 OFFCURVE",
"285 621 OFFCURVE",
"417 621 CURVE SMOOTH",
"526 621 OFFCURVE",
"585 591 OFFCURVE",
"676 546 CURVE",
"723 713 LINE",
"688 724 LINE",
"671 683 LINE",
"613 690 OFFCURVE",
"470 717 OFFCURVE",
"415 713 CURVE",
"314 682 OFFCURVE",
"211 600 OFFCURVE",
"167 558 CURVE",
"127 512 OFFCURVE",
"90 421 OFFCURVE",
"90 354 CURVE SMOOTH",
"90 152 OFFCURVE",
"208 -5 OFFCURVE",
"514 -15 CURVE",
"564 15 OFFCURVE",
"663 60 OFFCURVE",
"727 108 CURVE",
"710 138 LINE",
"643 114 OFFCURVE",
"596 92 OFFCURVE",
"509 92 CURVE SMOOTH",
"322 92 OFFCURVE"
);
},
{
closed = 1;
nodes = (
"453 69 LINE",
"453 636 LINE",
"417 644 LINE",
"415 76 LINE"
);
},
{
closed = 1;
nodes = (
"20 365 LINE",
"20 314 LINE",
"143 294 LINE",
"143 385 LINE"
);
}
);
width = 747;
}
);
note = C;
unicode = 0043;
},
{
color = 3;
glyphname = D;
lastChange = "2019-04-24 17:25:05 +0000";
layers = (
{
layerId = "E35B076F-D533-4C92-BAB9-D65BCB0F4FA2";
paths = (
{
closed = 1;
nodes = (
"341 601 CURVE",
"595 629 OFFCURVE",
"782 512 OFFCURVE",
"782 346 CURVE SMOOTH",
"782 196 OFFCURVE",
"694 103 OFFCURVE",
"554 103 CURVE SMOOTH",
"359 103 OFFCURVE",
"239 184 OFFCURVE",
"239 354 CURVE SMOOTH",
"239 465 OFFCURVE",
"328 547 OFFCURVE",
"398 624 CURVE",
"330 630 LINE",
"294 579 OFFCURVE",
"201 485 OFFCURVE",
"138 413 CURVE",
"79 123 OFFCURVE",
"314 -24 OFFCURVE",
"606 -6 CURVE",
"666 50 OFFCURVE",
"892 183 OFFCURVE",
"892 365 CURVE SMOOTH",
"892 607 OFFCURVE",
"672 701 OFFCURVE",
"438 701 CURVE SMOOTH",
"327 701 OFFCURVE",
"241 686 OFFCURVE",
"97 715 CURVE",
"90 715 LINE",
"51 640 LINE",
"51 635 LINE",
"148 599 OFFCURVE",
"247 602 OFFCURVE"
);
},
{
closed = 1;
nodes = (
"60 382 LINE",
"60 291 LINE",
"183 291 LINE",
"183 382 LINE"
);
},
{
closed = 1;
nodes = (
"452 77 LINE",
"491 77 LINE",
"481 641 LINE",
"444 629 LINE"
);
}
);
width = 927;
}
);
note = D;
unicode = 0044;
},
{
color = 3;
glyphname = E;
lastChange = "2019-02-27 10:27:02 +0000";
layers = (
{
background = {
components = (
{
name = C;
transform = "{1, 0, 0, 1, 49, 0}";
}
);
};
guideLines = (
{
position = "{301, 542}";
showMeasurement = 1;
},
{
angle = 220.5588;
position = "{602, 536}";
showMeasurement = 1;
}
);
layerId = "E35B076F-D533-4C92-BAB9-D65BCB0F4FA2";
paths = (
{
closed = 1;
nodes = (
"137 333 OFFCURVE",
"598 329 OFFCURVE",
"693 310 CURVE",
"708 407 LINE",
"40 406 LINE",
"40 326 LINE"
);
},
{
closed = 1;
nodes = (
"188 532 OFFCURVE",
"280 630 OFFCURVE",
"420 630 CURVE SMOOTH",
"509 630 OFFCURVE",
"575 592 OFFCURVE",
"636 546 CURVE",
"632 546 LINE",
"710 649 LINE",
"710 654 LINE",
"660 670 OFFCURVE",
"556 715 OFFCURVE",
"425 715 CURVE SMOOTH",
"375 715 OFFCURVE",
"166 583 OFFCURVE",
"150 558 CURVE",
"114 500 OFFCURVE",
"76 426 OFFCURVE",
"76 332 CURVE SMOOTH",
"76 112 OFFCURVE",
"231 -10 OFFCURVE",
"486 -10 CURVE",
"525 -10 OFFCURVE",
"640 80 OFFCURVE",
"710 136 CURVE",
"690 168 LINE",
"598 106 OFFCURVE",
"515 90 OFFCURVE",
"469 90 CURVE SMOOTH",
"312 90 OFFCURVE",
"188 166 OFFCURVE",
"188 336 CURVE SMOOTH"
);
},
{
closed = 1;
nodes = (
"388 89 LINE",
"423 86 LINE",
"433 650 LINE",
"398 639 LINE"
);
}
);
width = 745;
}
);
note = E;
unicode = 0045;
},
{
color = 3;
glyphname = F;
lastChange = "2019-04-24 17:25:05 +0000";
layers = (
{
layerId = "E35B076F-D533-4C92-BAB9-D65BCB0F4FA2";
paths = (
{
closed = 1;
nodes = (
"398 338 LINE",
"443 343 OFFCURVE",
"551 336 OFFCURVE",
"600 332 CURVE",
"661 418 LINE",
"651 436 LINE",
"564 423 OFFCURVE",
"480 418 OFFCURVE",
"383 415 CURVE"
);
},
{
closed = 1;
nodes = (
"344 187 LINE",
"304 164 OFFCURVE",
"278 152 OFFCURVE",
"245 141 CURVE",
"204 164 OFFCURVE",
"172 182 OFFCURVE",
"123 206 CURVE",
"127 168 LINE",
"165 216 OFFCURVE",
"227 296 OFFCURVE",
"227 350 CURVE SMOOTH",
"227 414 OFFCURVE",
"200 439 OFFCURVE",
"170 486 CURVE",
"208 522 OFFCURVE",
"261 525 OFFCURVE",
"328 516 CURVE",
"328 573 LINE",
"207 558 OFFCURVE",
"118 544 OFFCURVE",
"58 473 CURVE",
"108 382 OFFCURVE",
"137 350 OFFCURVE",
"137 290 CURVE SMOOTH",
"137 243 OFFCURVE",
"118 196 OFFCURVE",
"50 148 CURVE",
"56 134 LINE",
"101 134 OFFCURVE",
"156 85 OFFCURVE",
"189 0 CURVE",
"200 0 LINE",
"223 73 OFFCURVE",
"290 117 OFFCURVE",
"344 156 CURVE"
);
},
{
closed = 1;
nodes = (
"438 286 OFFCURVE",
"405 480 OFFCURVE",
"409 655 CURVE",
"372 630 LINE",
"422 630 OFFCURVE",
"532 623 OFFCURVE",
"603 602 CURVE",
"680 685 LINE",
"673 705 LINE",
"465 700 LINE",
"412 696 OFFCURVE",
"307 660 OFFCURVE",
"283 639 CURVE",
"303 439 OFFCURVE",
"313 218 OFFCURVE",
"313 18 CURVE SMOOTH",
"313 -109 OFFCURVE",
"228 -173 OFFCURVE",
"89 -224 CURVE",
"128 -265 LINE",
"336 -168 OFFCURVE",
"438 -89 OFFCURVE",
"438 110 CURVE SMOOTH"
);
}
);
width = 710;
}
);
note = F;
unicode = 0046;
},
{
color = 3;
glyphname = G;
lastChange = "2019-04-24 17:25:05 +0000";
layers = (
{
background = {
components = (
{
name = C;
transform = "{1, 0, 0, 1, 2, 0}";
}
);
};
layerId = "E35B076F-D533-4C92-BAB9-D65BCB0F4FA2";
paths = (
{
closed = 1;
nodes = (
"345 87 LINE",
"388 87 LINE",
"388 651 LINE",
"350 639 LINE"
);
},
{
closed = 1;
nodes = (
"138 532 OFFCURVE",
"230 630 OFFCURVE",
"370 630 CURVE SMOOTH",
"499 630 OFFCURVE",
"555 562 OFFCURVE",
"616 516 CURVE",
"612 516 LINE",
"730 599 LINE",
"730 604 LINE",
"680 620 OFFCURVE",
"546 715 OFFCURVE",
"415 715 CURVE SMOOTH",
"365 715 OFFCURVE",
"116 583 OFFCURVE",
"100 558 CURVE",
"64 500 OFFCURVE",
"26 426 OFFCURVE",
"26 332 CURVE SMOOTH",
"26 112 OFFCURVE",
"181 -10 OFFCURVE",
"436 -10 CURVE",
"475 -10 OFFCURVE",
"590 80 OFFCURVE",
"660 136 CURVE",
"640 168 LINE",
"548 106 OFFCURVE",
"465 90 OFFCURVE",
"419 90 CURVE SMOOTH",
"282 90 OFFCURVE",
"138 166 OFFCURVE",
"138 336 CURVE SMOOTH"
);
},
{
closed = 1;
nodes = (
"120 286 LINE",
"189 312 OFFCURVE",
"267 347 OFFCURVE",
"326 355 CURVE",
"401 361 OFFCURVE",
"494 318 OFFCURVE",
"549 318 CURVE SMOOTH",
"599 318 OFFCURVE",
"628 335 OFFCURVE",
"690 361 CURVE",
"655 375 LINE",
"623 300 OFFCURVE",
"606 193 OFFCURVE",
"606 118 CURVE",
"636 50 OFFCURVE",
"677 -4 OFFCURVE",
"677 -60 CURVE SMOOTH",
"677 -156 OFFCURVE",
"619 -199 OFFCURVE",
"488 -232 CURVE",
"501 -265 LINE",
"647 -237 OFFCURVE",
"783 -173 OFFCURVE",
"783 -45 CURVE SMOOTH",
"783 63 OFFCURVE",
"720 100 OFFCURVE",
"720 196 CURVE SMOOTH",
"720 300 OFFCURVE",
"745 385 OFFCURVE",
"786 421 CURVE",
"765 446 LINE",
"717 414 OFFCURVE",
"643 412 OFFCURVE",
"595 412 CURVE SMOOTH",
"527 412 OFFCURVE",
"412 454 OFFCURVE",
"382 454 CURVE",
"108 315 LINE"
);
}
);
width = 821;
}
);
note = G;
unicode = 0047;
},
{
color = 3;
glyphname = H;
lastChange = "2019-04-24 17:25:05 +0000";
layers = (
{
guideLines = (
{
angle = 220.5588;
position = "{571, 292}";
},
{
angle = 90;
position = "{42, 345}";
}
);
layerId = "E35B076F-D533-4C92-BAB9-D65BCB0F4FA2";
paths = (
{
closed = 1;
nodes = (
"238 258 OFFCURVE",
"246 488 OFFCURVE",
"250 705 CURVE",
"222 710 LINE",
"167 648 OFFCURVE",
"141 640 OFFCURVE",
"46 648 CURVE",
"40 614 LINE",
"122 578 OFFCURVE",
"131 536 OFFCURVE",
"131 477 CURVE SMOOTH",
"134 36 LINE",
"50 27 LINE",
"50 -10 LINE",
"180 2 OFFCURVE",
"218 2 OFFCURVE",
"344 -5 CURVE",
"343 525 LINE",
"305 494 LINE",
"308 43 LINE",
"242 41 LINE"
);
},
{
closed = 1;
nodes = (
"129 372 OFFCURVE",
"84 351 OFFCURVE",
"58 348 CURVE",
"59 324 LINE",
"87 318 OFFCURVE",
"121 316 OFFCURVE",
"139 270 CURVE",
"135 405 LINE"
);
},
{
closed = 1;
nodes = (
"231 399 LINE",
"307 472 OFFCURVE",
"360 504 OFFCURVE",
"431 504 CURVE SMOOTH",
"563 504 OFFCURVE",
"673 410 OFFCURVE",
"673 276 CURVE SMOOTH",
"673 126 OFFCURVE",
"580 81 OFFCURVE",
"558 81 CURVE",
"548 81 OFFCURVE",
"489 89 OFFCURVE",
"438 97 CURVE",
"400 -1 LINE",
"447 -5 OFFCURVE",
"518 -10 OFFCURVE",
"538 -10 CURVE",
"610 64 OFFCURVE",
"757 132 OFFCURVE",
"757 325 CURVE SMOOTH",
"757 525 OFFCURVE",
"597 628 OFFCURVE",
"454 632 CURVE",
"227 452 LINE"
);
}
);
width = 822;
}
);
note = H;
unicode = 0048;
},
{
color = 6;
glyphname = I;
lastChange = "2019-03-12 17:51:20 +0000";
layers = (
{
guideLines = (
{
alignment = center;
position = "{211, 343}";
showMeasurement = 1;
},
{
angle = 220.5588;
position = "{290, 274}";
}
);
layerId = "E35B076F-D533-4C92-BAB9-D65BCB0F4FA2";
paths = (
{
closed = 1;
nodes = (
"201 385 LINE",
"137 397 OFFCURVE",
"56 399 OFFCURVE",
"42 399 CURVE",
"46 378 LINE",
"161 352 OFFCURVE",
"187 325 OFFCURVE",
"200 290 CURVE"
);
},
{
closed = 1;
nodes = (
"13 -41 LINE",
"141 10 OFFCURVE",
"304 29 OFFCURVE",
"304 218 CURVE SMOOTH",
"304 351 OFFCURVE",
"294 352 OFFCURVE",
"299 465 CURVE SMOOTH",
"304 595 OFFCURVE",
"304 614 OFFCURVE",
"391 695 CURVE",
"372 716 LINE",
"306 677 OFFCURVE",
"250 639 OFFCURVE",
"206 600 CURVE",
"269 571 LINE",
"212 671 OFFCURVE",
"94 710 OFFCURVE",
"18 710 CURVE",
"13 688 LINE",
"141 662 OFFCURVE",
"185 578 OFFCURVE",
"189 418 CURVE SMOOTH",
"194 240 LINE SMOOTH",
"199 78 OFFCURVE",
"171 63 OFFCURVE",
"-1 -15 CURVE"
);
}
);
width = 407;
}
);
note = I;
unicode = 0049;
},
{
color = 3;
glyphname = J;
lastChange = "2019-02-26 13:56:16 +0000";
layers = (
{
layerId = "E35B076F-D533-4C92-BAB9-D65BCB0F4FA2";
paths = (
{
closed = 1;
nodes = (
"196 229 LINE",
"160 244 OFFCURVE",
"61 252 OFFCURVE",
"47 252 CURVE",
"50 231 LINE",
"132 205 OFFCURVE",
"183 176 OFFCURVE",
"195 143 CURVE"
);
},
{
closed = 1;
nodes = (
"201 385 LINE",
"137 397 OFFCURVE",
"56 399 OFFCURVE",
"42 399 CURVE",
"46 378 LINE",
"161 352 OFFCURVE",
"187 325 OFFCURVE",
"200 290 CURVE"
);
},
{
closed = 1;
nodes = (
"-29 -215 LINE",
"189 -95 OFFCURVE",
"304 -71 OFFCURVE",
"304 118 CURVE SMOOTH",
"304 251 OFFCURVE",
"294 352 OFFCURVE",
"299 465 CURVE SMOOTH",
"304 595 OFFCURVE",
"304 614 OFFCURVE",
"391 695 CURVE",
"372 716 LINE",
"306 677 OFFCURVE",
"250 639 OFFCURVE",
"206 600 CURVE",
"269 571 LINE",
"212 671 OFFCURVE",
"94 710 OFFCURVE",
"18 710 CURVE",
"13 688 LINE",
"141 662 OFFCURVE",
"186 578 OFFCURVE",
"189 418 CURVE SMOOTH",
"194 140 LINE SMOOTH",
"197 -22 OFFCURVE",
"171 -57 OFFCURVE",
"-41 -185 CURVE"
);
}
);
width = 407;
}
);
unicode = 004A;
},
{
color = 3;
glyphname = K;
lastChange = "2019-04-24 17:25:05 +0000";
layers = (
{
layerId = "E35B076F-D533-4C92-BAB9-D65BCB0F4FA2";
paths = (
{
closed = 1;
nodes = (
"245 318 LINE",
"299 342 OFFCURVE",
"358 332 OFFCURVE",
"376 312 CURVE",
"400 248 OFFCURVE",
"390 119 OFFCURVE",
"390 87 CURVE SMOOTH",
"390 52 OFFCURVE",
"424 40 OFFCURVE",
"501 -10 CURVE",
"530 9 OFFCURVE",
"559 22 OFFCURVE",
"588 37 CURVE",
"587 62 LINE",
"508 89 OFFCURVE",
"511 91 OFFCURVE",
"496 124 CURVE SMOOTH",
"477 166 OFFCURVE",
"494 306 OFFCURVE",
"472 377 CURVE",
"432 384 OFFCURVE",
"403 388 OFFCURVE",
"369 401 CURVE"
);
},
{
closed = 1;
nodes = (
"110 298 OFFCURVE",
"87 290 OFFCURVE",
"53 290 CURVE",
"52 270 LINE",
"85 264 OFFCURVE",
"99 264 OFFCURVE",
"123 216 CURVE",
"122 309 LINE"
);
},
{
closed = 1;
nodes = (
"215 217 OFFCURVE",
"227 493 OFFCURVE",
"231 710 CURVE",
"208 715 LINE",
"163 653 OFFCURVE",
"141 637 OFFCURVE",
"46 653 CURVE",
"40 628 LINE",
"122 584 OFFCURVE",
"125 526 OFFCURVE",
"124 467 CURVE SMOOTH",
"120 -4 LINE",
"219 10 LINE"
);
},
{
closed = 1;
nodes = (
"190 515 LINE",
"258 569 OFFCURVE",
"304 587 OFFCURVE",
"355 587 CURVE SMOOTH",
"395 587 OFFCURVE",
"436 562 OFFCURVE",
"436 525 CURVE SMOOTH",
"436 463 OFFCURVE",
"300 365 OFFCURVE",
"166 322 CURVE",
"166 276 LINE",
"299 346 OFFCURVE",
"534 474 OFFCURVE",
"534 592 CURVE SMOOTH",
"534 655 OFFCURVE",
"457 685 OFFCURVE",
"393 684 CURVE",
"320 633 OFFCURVE",
"269 604 OFFCURVE",
"177 555 CURVE"
);
}
);
width = 656;
}
);
leftMetricsKey = H;
note = K;
unicode = 004B;
},
{
color = 3;
glyphname = L;
lastChange = "2019-02-26 15:21:32 +0000";
layers = (
{
layerId = "E35B076F-D533-4C92-BAB9-D65BCB0F4FA2";
paths = (
{
closed = 1;
nodes = (
"276 111 LINE",
"308 109 LINE",
"323 705 LINE",
"288 702 LINE"
);
},
{
closed = 1;
nodes = (
"122 450 LINE",
"95 436 OFFCURVE",
"69 425 OFFCURVE",
"42 419 CURVE",
"44 399 LINE",
"93 386 OFFCURVE",
"117 337 OFFCURVE",
"122 299 CURVE"
);
},
{
closed = 1;
nodes = (
"569 145 OFFCURVE",
"518 94 OFFCURVE",
"461 94 CURVE SMOOTH",
"394 94 OFFCURVE",
"315 121 OFFCURVE",
"258 121 CURVE SMOOTH",
"203 121 OFFCURVE",
"162 108 OFFCURVE",
"102 71 CURVE",
"111 59 LINE",
"174 123 OFFCURVE",
"215 207 OFFCURVE",
"215 314 CURVE SMOOTH",
"215 363 OFFCURVE",
"211 469 OFFCURVE",
"215 545 CURVE SMOOTH",
"219 627 OFFCURVE",
"227 648 OFFCURVE",
"277 689 CURVE",
"268 713 LINE",
"209 690 OFFCURVE",
"167 654 OFFCURVE",
"130 636 CURVE",
"169 623 LINE",
"142 659 OFFCURVE",
"91 673 OFFCURVE",
"38 673 CURVE",
"40 648 LINE",
"110 623 OFFCURVE",
"122 607 OFFCURVE",
"120 392 CURVE SMOOTH",
"119 181 OFFCURVE",
"98 68 OFFCURVE",
"19 15 CURVE",
"47 -10 LINE",
"87 19 OFFCURVE",
"128 36 OFFCURVE",
"196 36 CURVE SMOOTH",
"300 36 OFFCURVE",
"431 -10 OFFCURVE",
"474 -10 CURVE",
"546 40 OFFCURVE",
"589 107 OFFCURVE",
"616 183 CURVE",
"589 191 LINE"
);
}
);
width = 652;
}
);
note = L;
unicode = 004C;
},
{
color = 3;
glyphname = M;
lastChange = "2019-02-26 16:27:21 +0000";
layers = (
{
layerId = "E35B076F-D533-4C92-BAB9-D65BCB0F4FA2";
paths = (
{
closed = 1;
nodes = (
"361 87 LINE",
"399 87 LINE",
"399 601 LINE",
"366 589 LINE"
);
},
{
closed = 1;
nodes = (
"174 361 OFFCURVE",
"136 347 OFFCURVE",
"88 334 CURVE",
"94 317 LINE",
"140 305 OFFCURVE",
"188 268 OFFCURVE",
"180 217 CURVE",
"222 403 LINE"
);
},
{
closed = 1;
nodes = (
"182 470 OFFCURVE",
"164 477 OFFCURVE",
"119 496 CURVE",
"114 481 LINE",
"139 430 OFFCURVE",
"170 391 OFFCURVE",
"194 370 CURVE",
"227 470 LINE"
);
},
{
closed = 1;
nodes = (
"899 118 OFFCURVE",
"981 106 OFFCURVE",
"981 -60 CURVE SMOOTH",
"981 -130 OFFCURVE",
"930 -189 OFFCURVE",
"850 -236 CURVE",
"868 -265 LINE",
"977 -209 OFFCURVE",
"1091 -122 OFFCURVE",
"1091 -23 CURVE SMOOTH",
"1091 103 OFFCURVE",
"990 218 OFFCURVE",
"990 331 CURVE SMOOTH",
"990 403 OFFCURVE",
"1019 493 OFFCURVE",
"1089 541 CURVE",
"1090 571 LINE",
"1029 591 OFFCURVE",
"958 622 OFFCURVE",
"889 715 CURVE",
"866 715 LINE",
"797 634 OFFCURVE",
"749 598 OFFCURVE",
"650 534 CURVE",
"683 503 LINE",
"731 533 OFFCURVE",
"768 570 OFFCURVE",
"826 592 CURVE",
"873 549 OFFCURVE",
"957 493 OFFCURVE",
"996 464 CURVE",
"995 507 LINE",
"942 446 OFFCURVE",
"899 394 OFFCURVE",
"899 305 CURVE SMOOTH"
);
},
{
closed = 1;
nodes = (
"532 86 LINE",
"447 97 OFFCURVE",
"333 139 OFFCURVE",
"275 139 CURVE SMOOTH",
"218 139 OFFCURVE",
"248 133 OFFCURVE",
"211 132 CURVE",
"290 120 LINE",
"281 246 OFFCURVE",
"278 386 OFFCURVE",
"285 569 CURVE",
"298 588 OFFCURVE",
"314 604 OFFCURVE",
"336 618 CURVE",
"373 572 LINE",
"562 509 OFFCURVE",
"682 453 OFFCURVE",
"682 316 CURVE SMOOTH",
"682 257 OFFCURVE",
"665 202 OFFCURVE",
"620 140 CURVE",
"673 134 LINE",
"713 209 OFFCURVE",
"750 271 OFFCURVE",
"786 333 CURVE",
"786 510 OFFCURVE",
"655 575 OFFCURVE",
"440 622 CURVE",
"393 715 LINE",
"372 715 LINE",
"324 666 OFFCURVE",
"247 607 OFFCURVE",
"183 573 CURVE",
"178 373 OFFCURVE",
"181 184 OFFCURVE",
"181 116 CURVE",
"201 152 LINE",
"139 89 OFFCURVE",
"92 47 OFFCURVE",
"52 10 CURVE",
"75 -17 LINE",
"138 34 OFFCURVE",
"184 60 OFFCURVE",
"233 60 CURVE SMOOTH",
"297 60 OFFCURVE",
"348 27 OFFCURVE",
"419 -16 CURVE",
"490 32 OFFCURVE",
"536 63 OFFCURVE",
"611 90 CURVE",
"665 76 OFFCURVE",
"702 31 OFFCURVE",
"744 -17 CURVE",
"974 139 LINE",
"955 182 LINE",
"921 143 OFFCURVE",
"870 116 OFFCURVE",
"812 103 CURVE",
"754 123 OFFCURVE",
"732 148 OFFCURVE",
"656 176 CURVE",
"601 133 OFFCURVE",
"537 97 OFFCURVE",
"482 70 CURVE"
);
}
);
width = 1126;
}
);
note = M;
unicode = 004D;
},
{
color = 3;
glyphname = N;
lastChange = "2019-04-24 17:25:05 +0000";
layers = (
{
guideLines = (
{
angle = 220.5588;
position = "{647, -10}";
},
{
position = "{458, 515}";
showMeasurement = 1;
}
);
layerId = "E35B076F-D533-4C92-BAB9-D65BCB0F4FA2";
paths = (
{
closed = 1;
nodes = (
"125 370 OFFCURVE",
"102 362 OFFCURVE",
"68 346 CURVE",
"68 332 LINE",
"101 318 OFFCURVE",
"134 294 OFFCURVE",
"167 260 CURVE",
"167 409 LINE"
);
},
{
closed = 1;
nodes = (
"50 594 LINE",
"126 631 OFFCURVE",
"153 604 OFFCURVE",
"152 512 CURVE SMOOTH",
"148 46 LINE",
"58 30 LINE",
"58 -10 LINE",
"193 4 OFFCURVE",
"228 2 OFFCURVE",
"367 -5 CURVE",
"359 114 OFFCURVE",
"358 233 OFFCURVE",
"358 432 CURVE SMOOTH",
"358 550 OFFCURVE",
"392 630 OFFCURVE",
"476 630 CURVE SMOOTH",
"536 630 OFFCURVE",
"573 596 OFFCURVE",
"573 516 CURVE SMOOTH",
"573 375 OFFCURVE",
"567 236 OFFCURVE",
"567 89 CURVE",
"577 65 OFFCURVE",
"635 -10 OFFCURVE",
"649 -10 CURVE",
"757 80 LINE",
"742 111 LINE",
"699 81 OFFCURVE",
"691 129 OFFCURVE",
"691 209 CURVE SMOOTH",
"690 329 OFFCURVE",
"699 457 OFFCURVE",
"698 577 CURVE SMOOTH",
"697 687 OFFCURVE",
"624 715 OFFCURVE",
"532 715 CURVE SMOOTH",
"402 715 OFFCURVE",
"317 605 OFFCURVE",
"317 445 CURVE SMOOTH",
"317 351 OFFCURVE",
"321 178 OFFCURVE",
"319 44 CURVE",
"260 46 LINE",
"260 633 LINE",
"260 653 OFFCURVE",
"191 715 OFFCURVE",
"171 715 CURVE SMOOTH",
"169 715 OFFCURVE",
"83 659 OFFCURVE",
"40 629 CURVE"
);
}
);
width = 797;
}
);
note = N;
unicode = 004E;
},
{
color = 3;
glyphname = O;
lastChange = "2019-04-24 17:25:05 +0000";
layers = (
{
layerId = "E35B076F-D533-4C92-BAB9-D65BCB0F4FA2";
paths = (
{
closed = 1;
nodes = (
"471 655 OFFCURVE",
"434 649 OFFCURVE",
"415 646 CURVE",
"358 715 LINE",
"353 715 LINE",
"141 597 LINE",
"146 549 OFFCURVE",
"152 331 OFFCURVE",
"152 241 CURVE SMOOTH",
"152 150 OFFCURVE",
"116 74 OFFCURVE",
"29 13 CURVE",
"51 -10 LINE",
"64 -3 OFFCURVE",
"81 10 OFFCURVE",
"107 15 CURVE",
"140 14 OFFCURVE",
"192 -3 OFFCURVE",
"220 -10 CURVE",
"242 2 OFFCURVE",
"270 23 OFFCURVE",
"302 35 CURVE",
"362 25 OFFCURVE",
"424 10 OFFCURVE",
"504 -10 CURVE",
"558 19 OFFCURVE",
"747 142 OFFCURVE",
"774 203 CURVE",
"798 260 OFFCURVE",
"808 315 OFFCURVE",
"806 367 CURVE SMOOTH",
"799 501 OFFCURVE",
"701 608 OFFCURVE",
"503 659 CURVE"
);
},
{
closed = 1;
nodes = (
"535 592 OFFCURVE",
"701 477 OFFCURVE",
"701 315 CURVE SMOOTH",
"701 172 OFFCURVE",
"636 128 OFFCURVE",
"569 88 CURVE",
"495 90 OFFCURVE",
"414 111 OFFCURVE",
"330 133 CURVE",
"296 115 OFFCURVE",
"236 97 OFFCURVE",
"196 89 CURVE",
"171 95 OFFCURVE",
"153 97 OFFCURVE",
"131 107 CURVE",
"125 61 LINE",
"207 151 OFFCURVE",
"250 231 OFFCURVE",
"250 327 CURVE SMOOTH",
"250 429 OFFCURVE",
"239 524 OFFCURVE",
"245 576 CURVE",
"252 605 OFFCURVE",
"287 632 OFFCURVE",
"304 641 CURVE",
"352 548 LINE"
);
},
{
closed = 1;
nodes = (
"320 79 LINE",
"355 77 LINE",
"366 641 LINE",
"334 629 LINE"
);
},
{
closed = 1;
nodes = (
"146 435 OFFCURVE",
"110 431 OFFCURVE",
"62 432 CURVE",
"62 412 LINE",
"108 400 OFFCURVE",
"155 376 OFFCURVE",
"159 325 CURVE",
"196 442 LINE"
);
},
{
closed = 1;
nodes = (
"151 530 OFFCURVE",
"120 530 OFFCURVE",
"75 533 CURVE",
"70 512 LINE",
"116 500 OFFCURVE",
"146 471 OFFCURVE",
"150 420 CURVE",
"196 533 LINE"
);
}
);
width = 864;
}
);
note = O;
unicode = 004F;
},
{
color = 3;
glyphname = P;
lastChange = "2019-04-24 17:25:05 +0000";
layers = (
{
layerId = "E35B076F-D533-4C92-BAB9-D65BCB0F4FA2";
paths = (
{
closed = 1;
nodes = (
"281 45 LINE",
"351 55 OFFCURVE",
"429 10 OFFCURVE",
"514 -10 CURVE",
"615 42 OFFCURVE",
"819 115 OFFCURVE",
"819 282 CURVE SMOOTH",
"819 466 OFFCURVE",
"653 557 OFFCURVE",
"494 557 CURVE",
"449 650 LINE",
"445 654 LINE",
"392 615 OFFCURVE",
"340 582 OFFCURVE",
"287 551 CURVE",
"284 514 LINE",
"380 544 LINE",
"406 482 LINE",
"565 516 OFFCURVE",
"709 413 OFFCURVE",
"709 276 CURVE SMOOTH",
"709 156 OFFCURVE",
"638 104 OFFCURVE",
"576 84 CURVE",
"471 94 OFFCURVE",
"348 138 OFFCURVE",
"283 158 CURVE"
);
},
{
closed = 1;
nodes = (
"191 131 OFFCURVE",
"108 51 OFFCURVE",
"57 23 CURVE",
"73 -11 LINE",
"119 23 OFFCURVE",
"195 49 OFFCURVE",
"205 49 CURVE",
"205 151 LINE"
);
},
{
closed = 1;
nodes = (
"178 385 OFFCURVE",
"170 375 OFFCURVE",
"82 365 CURVE",
"82 339 LINE",
"158 327 OFFCURVE",
"169 309 OFFCURVE",
"193 278 CURVE",
"226 415 LINE"
);
},
{
closed = 1;
nodes = (
"397 67 LINE",
"430 67 LINE",
"430 591 LINE",
"400 579 LINE"
);
},
{
closed = 1;
nodes = (
"306 654 LINE",
"279 672 OFFCURVE",
"225 706 OFFCURVE",
"206 715 CURVE",
"168 704 OFFCURVE",
"125 674 OFFCURVE",
"71 645 CURVE",
"81 611 LINE",
"132 632 OFFCURVE",
"191 595 OFFCURVE",
"191 554 CURVE SMOOTH",
"191 -16 OFFCURVE",
"193 -64 OFFCURVE",
"175 -250 CURVE",
"310 -250 LINE",
"302 -157 OFFCURVE",
"296 -118 OFFCURVE",
"297 -17 CURVE SMOOTH"
);
}
);
width = 852;
}
);
note = P;
unicode = 0050;
},
{
color = 3;
glyphname = Q;
lastChange = "2019-04-24 17:25:05 +0000";
layers = (
{
layerId = "E35B076F-D533-4C92-BAB9-D65BCB0F4FA2";
paths = (
{
closed = 1;
nodes = (
"435 278 OFFCURVE",
"382 259 OFFCURVE",
"329 259 CURVE SMOOTH",
"229 259 OFFCURVE",
"145 364 OFFCURVE",
"145 486 CURVE SMOOTH",
"145 568 OFFCURVE",
"192 635 OFFCURVE",
"226 645 CURVE",
"386 645 OFFCURVE",
"485 525 OFFCURVE",
"485 415 CURVE SMOOTH",
"485 357 OFFCURVE",
"465 315 OFFCURVE",
"434 275 CURVE",
"474 278 LINE",
"506 321 OFFCURVE",
"532 350 OFFCURVE",
"563 384 CURVE",
"623 552 OFFCURVE",
"489 715 OFFCURVE",
"310 715 CURVE SMOOTH",
"234 715 OFFCURVE",
"120 630 OFFCURVE",
"63 558 CURVE",
"7 409 OFFCURVE",
"85 167 OFFCURVE",
"303 162 CURVE",
"350 198 OFFCURVE",
"387 228 OFFCURVE",
"434 252 CURVE",
"481 316 LINE"
);
},
{
closed = 1;
nodes = (
"422 243 OFFCURVE",
"444 226 OFFCURVE",
"458 217 CURVE",
"460 157 OFFCURVE",
"423 111 OFFCURVE",
"416 91 CURVE",
"444 59 OFFCURVE",
"499 12 OFFCURVE",
"554 -10 CURVE",
"583 17 OFFCURVE",
"613 42 OFFCURVE",
"642 67 CURVE",
"637 84 LINE",
"602 90 OFFCURVE",
"559 107 OFFCURVE",
"516 139 CURVE",
"516 149 OFFCURVE",
"543 225 OFFCURVE",
"556 264 CURVE",
"527 281 OFFCURVE",
"504 298 OFFCURVE",
"489 313 CURVE",
"408 244 LINE"
);
}
);
width = 673;
}
);
note = Q;
unicode = 0051;
},
{
color = 3;
glyphname = R;
lastChange = "2019-04-24 17:25:05 +0000";
layers = (
{
layerId = "E35B076F-D533-4C92-BAB9-D65BCB0F4FA2";
paths = (
{
closed = 1;
nodes = (
"362 319 LINE",
"486 370 OFFCURVE",
"691 490 OFFCURVE",
"691 592 CURVE SMOOTH",
"691 663 OFFCURVE",
"614 715 OFFCURVE",
"536 715 CURVE",
"526 715 OFFCURVE",
"403 605 OFFCURVE",
"337 577 CURVE",
"354 539 LINE",
"383 568 OFFCURVE",
"443 611 OFFCURVE",
"497 611 CURVE SMOOTH",
"549 611 OFFCURVE",
"595 588 OFFCURVE",
"595 543 CURVE SMOOTH",
"595 477 OFFCURVE",
"469 399 OFFCURVE",
"362 351 CURVE"
);
},
{
closed = 1;
nodes = (
"366 324 LINE",
"533 302 OFFCURVE",
"566 266 OFFCURVE",
"707 -10 CURVE",
"837 61 LINE",
"827 90 LINE",
"811 89 OFFCURVE",
"788 97 OFFCURVE",
"781 106 CURVE SMOOTH",
"736 164 OFFCURVE",
"642 294 OFFCURVE",
"588 331 CURVE SMOOTH",
"572 342 OFFCURVE",
"506 358 OFFCURVE",
"443 363 CURVE"
);
},
{
closed = 1;
nodes = (
"376 143 OFFCURVE",
"375 285 OFFCURVE",
"374 428 CURVE SMOOTH",
"373 621 OFFCURVE",
"330 715 OFFCURVE",
"216 715 CURVE SMOOTH",
"96 715 OFFCURVE",
"45 631 OFFCURVE",
"55 495 CURVE",
"85 495 LINE",
"85 584 OFFCURVE",
"112 630 OFFCURVE",
"180 630 CURVE SMOOTH",
"246 630 OFFCURVE",
"267 569 OFFCURVE",
"267 475 CURVE SMOOTH",
"267 356 OFFCURVE",
"267 188 OFFCURVE",
"257 99 CURVE",
"179 115 OFFCURVE",
"148 97 OFFCURVE",
"87 12 CURVE",
"106 -10 LINE",
"109 -10 LINE",
"142 36 OFFCURVE",
"160 57 OFFCURVE",
"207 57 CURVE SMOOTH",
"252 57 OFFCURVE",
"321 20 OFFCURVE",
"364 -5 CURVE",
"371 0 LINE"
);
}
);
width = 877;
}
);
note = R;
unicode = 0052;
},
{
color = 3;
glyphname = S;
lastChange = "2019-04-24 17:25:05 +0000";
layers = (
{
layerId = "E35B076F-D533-4C92-BAB9-D65BCB0F4FA2";
paths = (
{
closed = 1;
nodes = (
"490 41 OFFCURVE",
"629 123 OFFCURVE",
"629 257 CURVE SMOOTH",
"629 353 OFFCURVE",
"559 413 OFFCURVE",
"467 442 CURVE",
"408 417 OFFCURVE",
"323 388 OFFCURVE",
"254 388 CURVE SMOOTH",
"180 388 OFFCURVE",
"138 487 OFFCURVE",
"198 576 CURVE",
"264 620 OFFCURVE",
"424 598 OFFCURVE",
"481 507 CURVE",
"631 624 LINE",
"619 644 LINE",
"545 616 LINE",
"501 642 OFFCURVE",
"426 685 OFFCURVE",
"364 715 CURVE",
"304 685 OFFCURVE",
"188 617 OFFCURVE",
"78 557 CURVE",
"38 437 OFFCURVE",
"69 344 OFFCURVE",
"146 293 CURVE",
"216 330 OFFCURVE",
"327 365 OFFCURVE",
"387 365 CURVE SMOOTH",
"445 365 OFFCURVE",
"534 307 OFFCURVE",
"534 212 CURVE SMOOTH",
"534 132 OFFCURVE",
"480 69 OFFCURVE",
"383 69 CURVE SMOOTH",
"301 69 OFFCURVE",
"235 123 OFFCURVE",
"197 193 CURVE",
"311 282 LINE",
"296 300 LINE",
"47 127 LINE",
"66 102 LINE",
"84 112 LINE",
"160 50 OFFCURVE",
"247 -10 OFFCURVE",
"392 -10 CURVE"
);
}
);
width = 700;
}
);
note = S;
unicode = 0053;
},
{
color = 6;
glyphname = U;
lastChange = "2019-03-12 17:51:20 +0000";
layers = (
{
layerId = "E35B076F-D533-4C92-BAB9-D65BCB0F4FA2";
paths = (
{
closed = 1;
nodes = (
"521 73 OFFCURVE",
"550 36 OFFCURVE",
"598 -10 CURVE",
"688 82 LINE",
"672 108 LINE",
"634 76 OFFCURVE",
"623 114 OFFCURVE",
"623 199 CURVE SMOOTH",
"623 325 OFFCURVE",
"623 416 OFFCURVE",
"624 467 CURVE SMOOTH",
"626 604 OFFCURVE",
"652 645 OFFCURVE",
"691 683 CURVE",
"677 705 LINE",
"647 693 OFFCURVE",
"599 663 OFFCURVE",
"553 619 CURVE",
"581 618 LINE",
"564 650 OFFCURVE",
"492 701 OFFCURVE",
"417 716 CURVE",
"406 696 LINE",
"491 648 OFFCURVE",
"525 593 OFFCURVE",
"525 475 CURVE SMOOTH",
"525 342 OFFCURVE",
"524 231 OFFCURVE",
"515 98 CURVE"
);
},
{
closed = 1;
nodes = (
"526 154 LINE",
"489 118 OFFCURVE",
"422 99 OFFCURVE",
"371 99 CURVE SMOOTH",
"256 99 OFFCURVE",
"161 176 OFFCURVE",
"161 306 CURVE SMOOTH",
"161 424 OFFCURVE",
"229 522 OFFCURVE",
"302 615 CURVE",
"245 644 OFFCURVE",
"214 675 OFFCURVE",
"161 715 CURVE",
"54 640 LINE",
"71 617 LINE",
"125 646 OFFCURVE",
"164 583 OFFCURVE",
"231 531 CURVE",
"233 591 LINE",
"164 486 OFFCURVE",
"101 416 OFFCURVE",
"51 320 CURVE",
"41 170 OFFCURVE",
"103 20 OFFCURVE",
"344 -10 CURVE",
"405 29 OFFCURVE",
"459 68 OFFCURVE",
"519 99 CURVE"
);
}
);
width = 753;
}
);
unicode = 0055;
},
{
color = 3;
glyphname = T;
lastChange = "2019-04-24 17:25:05 +0000";
layers = (
{
layerId = "E35B076F-D533-4C92-BAB9-D65BCB0F4FA2";
paths = (
{
closed = 1;
nodes = (
"470 597 LINE",
"393 539 OFFCURVE",
"316 473 OFFCURVE",
"258 417 CURVE",
"188 277 OFFCURVE",
"249 -10 OFFCURVE",
"536 -10 CURVE SMOOTH",
"590 -10 OFFCURVE",
"713 70 OFFCURVE",
"749 101 CURVE",
"735 122 LINE",
"682 93 OFFCURVE",
"645 90 OFFCURVE",
"592 90 CURVE SMOOTH",
"447 90 OFFCURVE",
"347 173 OFFCURVE",
"347 313 CURVE SMOOTH",
"347 429 OFFCURVE",
"438 530 OFFCURVE",
"505 582 CURVE"
);
},
{
closed = 1;
nodes = (
"155 626 OFFCURVE",
"190 631 OFFCURVE",
"226 630 CURVE SMOOTH",
"366 627 OFFCURVE",
"447 550 OFFCURVE",
"593 550 CURVE SMOOTH",
"646 550 OFFCURVE",
"701 568 OFFCURVE",
"747 577 CURVE",
"794 705 LINE",
"764 715 LINE",
"745 675 OFFCURVE",
"683 660 OFFCURVE",
"623 660 CURVE SMOOTH",
"535 660 OFFCURVE",
"443 689 OFFCURVE",
"353 715 CURVE",
"175 720 OFFCURVE",
"39 634 OFFCURVE",
"39 516 CURVE SMOOTH",
"39 474 OFFCURVE",
"56 433 OFFCURVE",
"83 407 CURVE",
"167 486 LINE",
"131 526 OFFCURVE",
"117 564 OFFCURVE",
"120 600 CURVE"
);
},
{
closed = 1;
nodes = (
"560 49 LINE",
"591 47 LINE",
"591 611 LINE",
"561 599 LINE"
);
},
{
closed = 1;
nodes = (
"263 331 LINE",
"219 294 OFFCURVE",
"152 280 OFFCURVE",
"124 270 CURVE",
"124 250 LINE",
"171 233 OFFCURVE",
"227 223 OFFCURVE",
"274 226 CURVE"
);
}
);
width = 809;
}
);
note = T;
unicode = 0054;
},
{
color = 3;
glyphname = V;
lastChange = "2019-04-24 17:25:05 +0000";
layers = (
{
layerId = "E35B076F-D533-4C92-BAB9-D65BCB0F4FA2";
paths = (
{
closed = 1;
nodes = (
"407 536 OFFCURVE",
"476 600 OFFCURVE",
"580 600 CURVE SMOOTH",
"657 600 OFFCURVE",
"744 560 OFFCURVE",
"744 425 CURVE SMOOTH",
"744 281 OFFCURVE",
"635 202 OFFCURVE",
"402 58 CURVE",
"458 78 LINE",
"463 306 OFFCURVE",
"368 380 OFFCURVE",
"262 441 CURVE SMOOTH",
"88 541 OFFCURVE",
"40 588 OFFCURVE",
"130 701 CURVE",
"108 715 LINE",
"42 652 OFFCURVE",
"20 599 OFFCURVE",
"20 531 CURVE SMOOTH",
"20 473 OFFCURVE",
"63 428 OFFCURVE",
"189 362 CURVE SMOOTH",
"338 284 OFFCURVE",
"374 182 OFFCURVE",
"329 8 CURVE",
"344 -10 LINE",
"618 144 OFFCURVE",
"854 238 OFFCURVE",
"854 476 CURVE SMOOTH",
"854 635 OFFCURVE",
"716 714 OFFCURVE",
"602 714 CURVE SMOOTH",
"554 714 OFFCURVE",
"483 694 OFFCURVE",
"435 654 CURVE",
"305 389 LINE",
"338 363 LINE"
);
}
);
width = 854;
}
);
note = V;
unicode = 0056;
},
{
color = 3;
glyphname = W;
lastChange = "2019-04-24 17:25:05 +0000";
layers = (
{
layerId = "E35B076F-D533-4C92-BAB9-D65BCB0F4FA2";
paths = (
{
closed = 1;
nodes = (
"655 429 LINE",
"751 626 LINE SMOOTH",
"799 725 OFFCURVE",
"872 741 OFFCURVE",
"942 684 CURVE",
"886 600 LINE",
"827 642 OFFCURVE",
"797 625 OFFCURVE",
"772 578 CURVE SMOOTH",
"670 383 LINE"
);
},
{
closed = 1;
nodes = (
"497 148 LINE",
"609 340 LINE",
"610 263 LINE",
"458 -10 LINE",
"427 -10 LINE",
"405 89 OFFCURVE",
"300 326 OFFCURVE",
"242 452 CURVE SMOOTH",
"190 565 OFFCURVE",
"150 594 OFFCURVE",
"109 594 CURVE SMOOTH",
"51 594 OFFCURVE",
"32 522 OFFCURVE",
"97 418 CURVE",
"61 404 LINE",
"-49 550 OFFCURVE",
"40 715 OFFCURVE",
"135 715 CURVE SMOOTH",
"221 715 OFFCURVE",
"288 657 OFFCURVE",
"315 592 CURVE SMOOTH"
);
},
{
closed = 1;
nodes = (
"305 592 LINE",
"347 649 OFFCURVE",
"400 715 OFFCURVE",
"468 715 CURVE SMOOTH",
"528 715 OFFCURVE",
"587 686 OFFCURVE",
"620 579 CURVE SMOOTH",
"667 429 LINE",
"721 259 OFFCURVE",
"738 207 OFFCURVE",
"762 162 CURVE",
"953 549 LINE SMOOTH",
"1007 658 OFFCURVE",
"1043 715 OFFCURVE",
"1106 715 CURVE SMOOTH",
"1146 715 OFFCURVE",
"1176 700 OFFCURVE",
"1198 678 CURVE",
"1131 575 LINE",
"1086 622 OFFCURVE",
"1037 626 OFFCURVE",
"988 527 CURVE SMOOTH",
"722 -10 LINE",
"691 -10 LINE",
"635 187 OFFCURVE",
"564 361 OFFCURVE",
"528 471 CURVE SMOOTH",
"496 568 OFFCURVE",
"460 609 OFFCURVE",
"408 609 CURVE SMOOTH",
"377 609 OFFCURVE",
"346 597 OFFCURVE",
"322 551 CURVE"
);
}
);
width = 1233;
}
);
unicode = 0057;
},
{
color = 3;
glyphname = X;
lastChange = "2019-04-24 17:25:05 +0000";
layers = (
{
layerId = "E35B076F-D533-4C92-BAB9-D65BCB0F4FA2";
paths = (
{
closed = 1;
nodes = (
"346 98 OFFCURVE",
"234 -10 OFFCURVE",
"147 -10 CURVE SMOOTH",
"98 -10 OFFCURVE",
"42 22 OFFCURVE",
"3 72 CURVE",
"24 92 LINE",
"58 65 OFFCURVE",
"90 46 OFFCURVE",
"141 46 CURVE SMOOTH",
"198 46 OFFCURVE",
"302 97 OFFCURVE",
"292 350 CURVE SMOOTH",
"292 346 LINE",
"336 277 LINE"
);
},
{
closed = 1;
nodes = (
"659 365 LINE",
"649 335 LINE",
"62 335 LINE",
"68 362 LINE"
);
},
{
closed = 1;
nodes = (
"424 630 OFFCURVE",
"512 715 OFFCURVE",
"604 715 CURVE SMOOTH",
"664 715 OFFCURVE",
"717 679 OFFCURVE",
"739 645 CURVE",
"642 560 LINE",
"621 582 OFFCURVE",
"589 627 OFFCURVE",
"526 627 CURVE SMOOTH",
"473 627 OFFCURVE",
"432 597 OFFCURVE",
"412 547 CURVE",
"353 251 OFFCURVE",
"463 82 OFFCURVE",
"575 82 CURVE SMOOTH",
"633 82 OFFCURVE",
"673 108 OFFCURVE",
"707 165 CURVE",
"737 152 LINE",
"693 66 OFFCURVE",
"626 -10 OFFCURVE",
"549 -10 CURVE SMOOTH",
"408 -10 OFFCURVE",
"292 152 OFFCURVE",
"292 346 CURVE SMOOTH",
"292 454 OFFCURVE",
"291 486 OFFCURVE",
"314 540 CURVE"
);
},
{
closed = 1;
nodes = (
"292 425 LINE",
"297 576 OFFCURVE",
"236 631 OFFCURVE",
"160 631 CURVE SMOOTH",
"106 631 OFFCURVE",
"59 605 OFFCURVE",
"52 534 CURVE",
"24 533 LINE",
"27 636 OFFCURVE",
"103 713 OFFCURVE",
"215 713 CURVE SMOOTH",
"327 713 OFFCURVE",
"404 619 OFFCURVE",
"412 544 CURVE"
);
}
);
width = 725;
}
);
note = X;
unicode = 0058;
},
{
color = 3;
glyphname = Y;
lastChange = "2019-04-24 17:25:05 +0000";
layers = (
{
layerId = "E35B076F-D533-4C92-BAB9-D65BCB0F4FA2";
paths = (
{
closed = 1;
nodes = (
"372 -13 LINE",
"389 251 OFFCURVE",
"370 461 OFFCURVE",
"270 603 CURVE",
"244 590 OFFCURVE",
"188 540 OFFCURVE",
"178 530 CURVE",
"144 570 OFFCURVE",
"111 603 OFFCURVE",
"93 617 CURVE",
"40 584 LINE",
"20 609 LINE",
"145 714 LINE",
"148 714 LINE",
"173 686 OFFCURVE",
"195 659 OFFCURVE",
"224 630 CURVE",
"266 650 OFFCURVE",
"340 715 OFFCURVE",
"350 715 CURVE",
"482 609 OFFCURVE",
"481 265 OFFCURVE",
"480 75 CURVE"
);
},
{
closed = 1;
nodes = (
"499 56 OFFCURVE",
"723 227 OFFCURVE",
"723 441 CURVE SMOOTH",
"723 546 OFFCURVE",
"646 613 OFFCURVE",
"590 613 CURVE SMOOTH",
"521 613 OFFCURVE",
"472 570 OFFCURVE",
"439 533 CURVE",
"416 568 LINE",
"582 710 LINE",
"706 742 OFFCURVE",
"825 655 OFFCURVE",
"825 504 CURVE SMOOTH",
"825 199 OFFCURVE",
"349 -82 OFFCURVE",
"58 -265 CURVE",
"40 -203 LINE"
);
}
);
width = 843;
}
);
note = Y;
unicode = 0059;
},
{
color = 3;
glyphname = Z;
lastChange = "2019-04-24 17:25:05 +0000";
layers = (
{
layerId = "E35B076F-D533-4C92-BAB9-D65BCB0F4FA2";
paths = (
{
closed = 1;
nodes = (
"346 161 OFFCURVE",
"185 159 CURVE",
"177 131 LINE",
"680 690 LINE",
"649 710 LINE",
"585 664 OFFCURVE",
"567 662 OFFCURVE",
"521 662 CURVE SMOOTH",
"442 662 OFFCURVE",
"342 715 OFFCURVE",
"256 715 CURVE SMOOTH",
"167 715 OFFCURVE",
"65 634 OFFCURVE",
"65 584 CURVE SMOOTH",
"65 544 OFFCURVE",
"95 510 OFFCURVE",
"116 494 CURVE",
"217 547 LINE",
"168 580 OFFCURVE",
"147 607 OFFCURVE",
"147 638 CURVE",
"229 677 OFFCURVE",
"377 579 OFFCURVE",
"538 566 CURVE",
"536 586 LINE",
"25 27 LINE",
"51 0 LINE",
"107 42 OFFCURVE",
"124 63 OFFCURVE",
"184 63 CURVE SMOOTH",
"253 63 OFFCURVE",
"410 10 OFFCURVE",
"499 -10 CURVE",
"639 150 LINE",
"610 167 LINE",
"587 141 OFFCURVE",
"541 105 OFFCURVE",
"487 105 CURVE",
"412 107 OFFCURVE"
);
},
{
closed = 1;
nodes = (
"210 400 LINE",
"137 324 LINE",
"141 318 LINE",
"472 318 LINE",
"532 400 LINE"
);
}
);
width = 679;
}
);
note = Z;
unicode = 005A;
},
{
color = 4;
glyphname = a;
lastChange = "2019-04-24 17:25:05 +0000";
layers = (
{
layerId = "E35B076F-D533-4C92-BAB9-D65BCB0F4FA2";
paths = (
{
closed = 1;
nodes = (
"273 321 LINE",
"225 283 OFFCURVE",
"100 204 OFFCURVE",
"15 142 CURVE",
"52 91 OFFCURVE",
"97 37 OFFCURVE",
"122 -10 CURVE",
"182 29 OFFCURVE",
"241 83 OFFCURVE",
"280 97 CURVE",
"271 153 LINE",
"251 120 OFFCURVE",
"216 99 OFFCURVE",
"187 82 CURVE",
"122 167 LINE",
"274 281 LINE"
);
},
{
closed = 1;
nodes = (
"270 104 LINE SMOOTH",
"270 54 OFFCURVE",
"279 16 OFFCURVE",
"310 -10 CURVE",
"412 49 LINE",
"411 90 LINE",
"388 73 OFFCURVE",
"375 86 OFFCURVE",
"374 135 CURVE SMOOTH",
"373 208 OFFCURVE",
"370 317 OFFCURVE",
"373 400 CURVE",
"352 429 OFFCURVE",
"301 455 OFFCURVE",
"271 465 CURVE",
"192 432 OFFCURVE",
"114 385 OFFCURVE",
"36 338 CURVE",
"54 312 LINE",
"56 311 LINE",
"97 336 OFFCURVE",
"165 378 OFFCURVE",
"204 378 CURVE SMOOTH",
"240 378 OFFCURVE",
"269 351 OFFCURVE",
"269 311 CURVE SMOOTH"
);
}
);
width = 437;
}
);
note = a;
unicode = 0061;
},
{
color = 4;
glyphname = a_macr;
lastChange = "2019-04-24 17:25:05 +0000";
layers = (
{
components = (
{
alignment = -1;
name = a;
}
);
layerId = "E35B076F-D533-4C92-BAB9-D65BCB0F4FA2";
paths = (
{
closed = 1;
nodes = (
"362 569 LINE",
"388 648 LINE",
"386 654 LINE",
"113 617 LINE",
"82 586 OFFCURVE",
"50 545 OFFCURVE",
"31 508 CURVE",
"52 501 LINE",
"81 544 OFFCURVE",
"165 557 OFFCURVE",
"229 561 CURVE SMOOTH"
);
}
);
width = 437;
}
);
leftMetricsKey = a;
note = a_macr;
rightMetricsKey = a;
unicode = 0101;
},
{
color = 4;
glyphname = a_n;
lastChange = "2019-04-24 17:25:05 +0000";
layers = (
{
layerId = "E35B076F-D533-4C92-BAB9-D65BCB0F4FA2";
paths = (
{
closed = 1;
nodes = (
"252 296 LINE",
"15 168 LINE",
"37 111 OFFCURVE",
"65 44 OFFCURVE",
"115 -10 CURVE",
"165 23 OFFCURVE",
"233 97 OFFCURVE",
"257 102 CURVE",
"254 157 LINE",
"235 121 OFFCURVE",
"192 89 OFFCURVE",
"170 79 CURVE",
"143 102 OFFCURVE",
"129 148 OFFCURVE",
"117 183 CURVE",
"252 265 LINE"
);
},
{
closed = 1;
nodes = (
"250 229 OFFCURVE",
"257 167 OFFCURVE",
"245 107 CURVE",
"262 94 OFFCURVE",
"300 15 OFFCURVE",
"318 -10 CURVE",
"384 31 OFFCURVE",
"463 90 OFFCURVE",
"515 113 CURVE",
"515 151 LINE",
"478 121 OFFCURVE",
"418 97 OFFCURVE",
"394 94 CURVE SMOOTH",
"372 91 OFFCURVE",
"358 109 OFFCURVE",
"356 120 CURVE SMOOTH",
"349 156 OFFCURVE",
"345 279 OFFCURVE",
"350 354 CURVE SMOOTH",
"354 414 OFFCURVE",
"256 465 OFFCURVE",
"226 465 CURVE",
"181 465 OFFCURVE",
"104 413 OFFCURVE",
"39 377 CURVE",
"49 350 LINE",
"51 349 LINE",
"92 368 OFFCURVE",
"132 381 OFFCURVE",
"171 381 CURVE SMOOTH",
"213 381 OFFCURVE",
"254 351 OFFCURVE",
"252 290 CURVE SMOOTH"
);
},
{
closed = 1;
nodes = (
"604 322 LINE",
"627 344 OFFCURVE",
"662 360 OFFCURVE",
"686 360 CURVE SMOOTH",
"704 360 OFFCURVE",
"733 345 OFFCURVE",
"733 322 CURVE SMOOTH",
"733 259 OFFCURVE",
"734 102 OFFCURVE",
"730 -10 CURVE",
"736 -13 LINE",
"864 25 LINE",
"864 60 LINE",
"845 60 OFFCURVE",
"840 84 OFFCURVE",
"839 114 CURVE SMOOTH",
"836 208 OFFCURVE",
"835 284 OFFCURVE",
"846 370 CURVE",
"849 390 OFFCURVE",
"760 455 OFFCURVE",
"740 455 CURVE",
"604 368 LINE"
);
},
{
closed = 1;
nodes = (
"624 393 OFFCURVE",
"523 465 OFFCURVE",
"503 465 CURVE",
"341 351 LINE",
"341 314 LINE",
"382 341 OFFCURVE",
"427 361 OFFCURVE",
"463 361 CURVE SMOOTH",
"488 361 OFFCURVE",
"506 348 OFFCURVE",
"506 318 CURVE SMOOTH",
"506 205 OFFCURVE",
"501 96 OFFCURVE",
"498 0 CURVE",
"612 0 LINE",
"610 124 OFFCURVE",
"608 287 OFFCURVE",
"624 373 CURVE"
);
}
);
width = 894;
}
);
leftMetricsKey = a;
note = a_n;
rightMetricsKey = n;
},
{
color = 4;
glyphname = a_r;
lastChange = "2019-02-28 16:47:17 +0000";
layers = (
{
layerId = "E35B076F-D533-4C92-BAB9-D65BCB0F4FA2";
paths = (
{
closed = 1;
nodes = (
"597 364 LINE",
"596 321 LINE",
"636 354 OFFCURVE",
"672 333 OFFCURVE",
"698 286 CURVE",
"703 286 LINE",
"761 363 LINE",
"763 425 OFFCURVE",
"725 456 OFFCURVE",
"668 465 CURVE",
"663 465 LINE"
);
},
{
closed = 1;
nodes = (
"591 412 OFFCURVE",
"568 435 OFFCURVE",
"495 465 CURVE",
"446 424 OFFCURVE",
"396 388 OFFCURVE",
"347 355 CURVE",
"347 315 LINE",
"388 352 OFFCURVE",
"407 358 OFFCURVE",
"433 358 CURVE SMOOTH",
"477 358 OFFCURVE",
"504 334 OFFCURVE",
"504 269 CURVE SMOOTH",
"504 -6 LINE",
"617 0 LINE",
"606 114 OFFCURVE",
"604 228 OFFCURVE",
"604 342 CURVE"
);
},
{
closed = 1;
nodes = (
"273 312 LINE",
"225 274 OFFCURVE",
"100 204 OFFCURVE",
"15 142 CURVE",
"52 91 OFFCURVE",
"90 32 OFFCURVE",
"111 -10 CURVE",
"171 27 OFFCURVE",
"241 77 OFFCURVE",
"280 91 CURVE",
"271 147 LINE",
"251 117 OFFCURVE",
"216 100 OFFCURVE",
"187 83 CURVE",
"120 171 LINE",
"274 276 LINE"
);
},
{
closed = 1;
nodes = (
"270 98 LINE SMOOTH",
"270 88 OFFCURVE",
"309 36 OFFCURVE",
"340 -10 CURVE",
"522 75 LINE",
"521 100 LINE",
"440 79 OFFCURVE",
"374 86 OFFCURVE",
"374 153 CURVE SMOOTH",
"373 370 LINE",
"352 419 OFFCURVE",
"301 455 OFFCURVE",
"271 465 CURVE",
"192 432 OFFCURVE",
"114 385 OFFCURVE",
"36 338 CURVE",
"54 312 LINE",
"56 311 LINE",
"97 336 OFFCURVE",
"165 378 OFFCURVE",
"204 378 CURVE SMOOTH",
"254 378 OFFCURVE",
"269 343 OFFCURVE",
"269 303 CURVE SMOOTH"
);
}
);
width = 766;
}
);
leftMetricsKey = a;
rightMetricsKey = r;
},
{
color = 4;
glyphname = b;
lastChange = "2019-04-24 17:25:05 +0000";
layers = (
{
layerId = "E35B076F-D533-4C92-BAB9-D65BCB0F4FA2";
paths = (
{
closed = 1;
nodes = (
"141 238 LINE",
"146 321 OFFCURVE",
"191 364 OFFCURVE",
"249 364 CURVE SMOOTH",
"314 364 OFFCURVE",
"377 312 OFFCURVE",
"377 232 CURVE SMOOTH",
"377 153 OFFCURVE",
"318 92 OFFCURVE",
"271 72 CURVE",
"221 75 OFFCURVE",
"163 97 OFFCURVE",
"139 123 CURVE",
"145 324 LINE",
"142 346 LINE",
"157 692 LINE",
"41 708 LINE",
"30 686 LINE",
"54 594 OFFCURVE",
"50 212 OFFCURVE",
"47 80 CURVE",
"81 43 OFFCURVE",
"166 -3 OFFCURVE",
"217 -13 CURVE",
"320 50 OFFCURVE",
"433 136 OFFCURVE",
"453 202 CURVE",
"475 322 OFFCURVE",
"429 434 OFFCURVE",
"290 465 CURVE",
"234 426 OFFCURVE",
"182 379 OFFCURVE",
"133 350 CURVE"
);
}
);
width = 483;
}
);
note = b;
rightMetricsKey = o;
unicode = 0062;
},
{
color = 4;
glyphname = b_r;
lastChange = "2019-04-14 10:29:40 +0000";
layers = (
{
components = (
{
name = b;
transform = "{1, 0, 0, 1, 10, 0}";
}
);
layerId = "E35B076F-D533-4C92-BAB9-D65BCB0F4FA2";
paths = (
{
closed = 1;
nodes = (
"738 90 LINE",
"714 110 LINE",
"705 100 OFFCURVE",
"695 90 OFFCURVE",
"678 90 CURVE SMOOTH",
"648 90 OFFCURVE",
"608 108 OFFCURVE",
"579 132 CURVE",
"640 214 OFFCURVE",
"726 307 OFFCURVE",
"726 355 CURVE SMOOTH",
"726 425 OFFCURVE",
"659 465 OFFCURVE",
"579 465 CURVE SMOOTH",
"570 465 LINE",
"439 350 LINE",
"457 318 LINE",
"472 333 OFFCURVE",
"508 365 OFFCURVE",
"549 365 CURVE SMOOTH",
"578 365 OFFCURVE",
"616 345 OFFCURVE",
"616 305 CURVE SMOOTH",
"616 265 OFFCURVE",
"605 214 OFFCURVE",
"500 94 CURVE",
"499 88 LINE",
"549 45 OFFCURVE",
"575 16 OFFCURVE",
"640 -10 CURVE"
);
}
);
width = 772;
}
);
note = b_r.alt;
},
{
color = 4;
glyphname = b_s;
lastChange = "2019-04-14 10:31:20 +0000";
layers = (
{
components = (
{
name = b;
}
);
guideLines = (
{
angle = 38.0965;
position = "{422, 365}";
}
);
layerId = "E35B076F-D533-4C92-BAB9-D65BCB0F4FA2";
paths = (
{
closed = 1;
nodes = (
"380 3 LINE",
"424 33 LINE",
"466 12 OFFCURVE",
"499 1 OFFCURVE",
"552 -10 CURVE",
"557 -10 LINE",
"635 76 OFFCURVE",
"753 155 OFFCURVE",
"753 255 CURVE SMOOTH",
"753 370 OFFCURVE",
"682 445 OFFCURVE",
"549 465 CURVE",
"504 415 OFFCURVE",
"458 368 OFFCURVE",
"413 336 CURVE",
"442 318 LINE",
"463 336 OFFCURVE",
"493 356 OFFCURVE",
"531 356 CURVE SMOOTH",
"605 356 OFFCURVE",
"663 304 OFFCURVE",
"663 229 CURVE SMOOTH",
"663 164 OFFCURVE",
"638 119 OFFCURVE",
"602 94 CURVE",
"562 104 OFFCURVE",
"521 128 OFFCURVE",
"481 148 CURVE",
"350 22 LINE"
);
}
);
width = 783;
}
);
leftMetricsKey = b;
rightMetricsKey = m;
},
{
color = 4;
glyphname = c;
lastChange = "2019-04-24 17:25:05 +0000";
layers = (
{
guideLines = (
{
angle = 212.5222;
position = "{169, 465}";
}
);
layerId = "E35B076F-D533-4C92-BAB9-D65BCB0F4FA2";
paths = (
{
closed = 1;
nodes = (
"26 82 OFFCURVE",
"88 -10 OFFCURVE",
"174 -10 CURVE SMOOTH",
"204 -10 OFFCURVE",
"269 21 OFFCURVE",
"316 55 CURVE",
"308 85 LINE",
"175 37 OFFCURVE",
"121 112 OFFCURVE",
"121 223 CURVE SMOOTH",
"121 275 OFFCURVE",
"122 339 OFFCURVE",
"132 376 CURVE",
"162 360 OFFCURVE",
"210 336 OFFCURVE",
"244 312 CURVE",
"249 312 LINE",
"304 388 LINE",
"303 393 LINE",
"253 415 OFFCURVE",
"217 437 OFFCURVE",
"169 465 CURVE",
"25 374 LINE",
"30 334 OFFCURVE",
"26 291 OFFCURVE",
"26 181 CURVE SMOOTH"
);
}
);
width = 326;
}
);
note = c;
unicode = 0063;
},
{
color = 4;
glyphname = c_macr;
lastChange = "2019-04-24 17:25:05 +0000";
layers = (
{
components = (
{
alignment = -1;
name = c;
transform = "{1, 0, 0, 1, 14, 0}";
}
);
layerId = "E35B076F-D533-4C92-BAB9-D65BCB0F4FA2";
paths = (
{
closed = 1;
nodes = (
"298 587 LINE",
"349 662 LINE",
"348 668 LINE",
"259 650 OFFCURVE",
"181 657 OFFCURVE",
"83 651 CURVE",
"59 622 OFFCURVE",
"47 593 OFFCURVE",
"25 568 CURVE",
"46 559 LINE",
"78 590 OFFCURVE",
"150 587 OFFCURVE",
"215 587 CURVE SMOOTH"
);
}
);
width = 359;
}
);
leftMetricsKey = c;
note = c_macr;
rightMetricsKey = c;
},
{
color = 4;
glyphname = c_a;
lastChange = "2019-04-24 17:25:05 +0000";
layers = (
{
layerId = "E35B076F-D533-4C92-BAB9-D65BCB0F4FA2";
paths = (
{
closed = 1;
nodes = (
"27 98 OFFCURVE",
"89 8 OFFCURVE",
"169 -10 CURVE",
"199 11 OFFCURVE",
"259 70 OFFCURVE",
"311 99 CURVE",
"291 125 LINE",
"186 56 OFFCURVE",
"116 113 OFFCURVE",
"116 199 CURVE SMOOTH",
"116 266 OFFCURVE",
"114 332 OFFCURVE",
"119 374 CURVE",
"160 375 OFFCURVE",
"208 349 OFFCURVE",
"242 315 CURVE",
"247 315 LINE",
"312 388 LINE",
"311 393 LINE",
"261 416 OFFCURVE",
"225 438 OFFCURVE",
"177 465 CURVE",
"25 383 LINE",
"25 327 OFFCURVE",
"25 203 OFFCURVE",
"26 141 CURVE SMOOTH"
);
},
{
closed = 1;
nodes = (
"535 312 LINE",
"487 274 OFFCURVE",
"370 174 OFFCURVE",
"285 121 CURVE",
"322 70 OFFCURVE",
"365 27 OFFCURVE",
"381 -10 CURVE",
"441 24 OFFCURVE",
"503 76 OFFCURVE",
"542 90 CURVE",
"533 138 LINE",
"513 108 OFFCURVE",
"486 90 OFFCURVE",
"449 73 CURVE",
"385 157 LINE",
"536 276 LINE"
);
},
{
closed = 1;
nodes = (
"532 107 LINE SMOOTH",
"532 57 OFFCURVE",
"541 16 OFFCURVE",
"572 -10 CURVE",
"674 49 LINE",
"673 90 LINE",
"650 73 OFFCURVE",
"637 86 OFFCURVE",
"636 135 CURVE SMOOTH",
"635 208 OFFCURVE",
"632 317 OFFCURVE",
"635 400 CURVE",
"614 429 OFFCURVE",
"563 455 OFFCURVE",
"533 465 CURVE",
"454 432 OFFCURVE",
"376 375 OFFCURVE",
"298 328 CURVE",
"316 302 LINE",
"318 301 LINE",
"359 326 OFFCURVE",
"416 369 OFFCURVE",
"455 369 CURVE SMOOTH",
"491 369 OFFCURVE",
"531 341 OFFCURVE",
"531 311 CURVE SMOOTH"
);
}
);
width = 699;
}
);
leftMetricsKey = c;
note = c_a;
rightMetricsKey = a;
},
{
color = 4;
glyphname = c_c;
lastChange = "2019-02-28 16:47:17 +0000";
layers = (
{
layerId = "E35B076F-D533-4C92-BAB9-D65BCB0F4FA2";
paths = (
{
closed = 1;
nodes = (
"49 42 OFFCURVE",
"119 8 OFFCURVE",
"199 -10 CURVE",
"229 11 OFFCURVE",
"261 54 OFFCURVE",
"313 83 CURVE",
"299 109 LINE",
"237 69 OFFCURVE",
"118 82 OFFCURVE",
"118 196 CURVE SMOOTH",
"118 269 OFFCURVE",
"121 323 OFFCURVE",
"138 375 CURVE",
"167 373 OFFCURVE",
"205 358 OFFCURVE",
"239 345 CURVE",
"244 345 LINE",
"302 408 LINE",
"301 413 LINE",
"251 430 OFFCURVE",
"205 445 OFFCURVE",
"157 465 CURVE",
"35 373 LINE",
"25 317 OFFCURVE",
"21 143 OFFCURVE",
"32 81 CURVE"
);
},
{
closed = 1;
nodes = (
"283 69 OFFCURVE",
"341 18 OFFCURVE",
"423 -10 CURVE",
"453 10 OFFCURVE",
"498 54 OFFCURVE",
"555 88 CURVE",
"547 118 LINE",
"434 70 OFFCURVE",
"380 108 OFFCURVE",
"380 229 CURVE SMOOTH",
"380 291 OFFCURVE",
"384 335 OFFCURVE",
"397 372 CURVE",
"428 366 OFFCURVE",
"460 347 OFFCURVE",
"494 328 CURVE",
"499 328 LINE",
"545 408 LINE",
"544 413 LINE",
"494 435 OFFCURVE",
"464 447 OFFCURVE",
"418 465 CURVE",
"295 361 LINE",
"283 303 OFFCURVE",
"283 231 OFFCURVE",
"283 161 CURVE SMOOTH"
);
}
);
width = 565;
}
);
leftMetricsKey = c;
rightMetricsKey = c;
},
{
color = 4;
glyphname = c_e;
lastChange = "2019-04-24 17:25:05 +0000";
layers = (
{
components = (
{
alignment = -1;
name = e;
transform = "{1, 0, 0, 1, 235, 0}";
}
);
layerId = "E35B076F-D533-4C92-BAB9-D65BCB0F4FA2";
paths = (
{
closed = 1;
nodes = (
"25 69 OFFCURVE",
"83 18 OFFCURVE",
"165 -10 CURVE",
"195 10 OFFCURVE",
"240 54 OFFCURVE",
"297 88 CURVE",
"289 118 LINE",
"176 70 OFFCURVE",
"122 108 OFFCURVE",
"122 229 CURVE SMOOTH",
"122 291 OFFCURVE",
"123 333 OFFCURVE",
"135 370 CURVE",
"166 364 OFFCURVE",
"242 338 OFFCURVE",
"276 298 CURVE",
"281 298 LINE",
"347 378 LINE",
"346 383 LINE",
"296 405 OFFCURVE",
"216 447 OFFCURVE",
"170 465 CURVE",
"29 361 LINE",
"27 303 OFFCURVE",
"25 231 OFFCURVE",
"25 161 CURVE SMOOTH"
);
}
);
width = 603;
}
);
leftMetricsKey = c;
note = c_e;
rightMetricsKey = e;
},
{
color = 4;
glyphname = ce_e_macr;
lastChange = "2019-04-23 14:01:23 +0000";
layers = (
{
components = (
{
name = c_e;
}
);
layerId = "E35B076F-D533-4C92-BAB9-D65BCB0F4FA2";
paths = (
{
closed = 1;
nodes = (
"481 588 LINE",
"533 665 LINE",
"531 671 LINE",
"266 653 LINE",
"233 624 OFFCURVE",
"190 575 OFFCURVE",
"169 539 CURVE",
"189 531 LINE",
"241 586 OFFCURVE",
"314 590 OFFCURVE",
"378 589 CURVE SMOOTH"
);
}
);
width = 593;
}
);
},
{
color = 4;
glyphname = c_i;
lastChange = "2019-04-24 17:25:05 +0000";
layers = (
{
layerId = "E35B076F-D533-4C92-BAB9-D65BCB0F4FA2";
paths = (
{
closed = 1;
nodes = (
"284 538 LINE",
"300 522 LINE",
"409 630 LINE",
"356 650 LINE"
);
},
{
closed = 1;
nodes = (
"289 67 OFFCURVE",
"342 -10 OFFCURVE",
"352 -10 CURVE",
"354 -10 LINE",
"439 40 LINE",
"439 70 LINE",
"417 70 OFFCURVE",
"399 91 OFFCURVE",
"397 105 CURVE SMOOTH",
"393 132 OFFCURVE",
"390 330 OFFCURVE",
"412 452 CURVE",
"391 465 LINE",
"291 419 LINE",
"290 77 LINE"
);
},
{
closed = 1;
nodes = (
"49 42 OFFCURVE",
"119 8 OFFCURVE",
"199 -10 CURVE",
"229 11 OFFCURVE",
"261 54 OFFCURVE",
"313 83 CURVE",
"299 109 LINE",
"237 69 OFFCURVE",
"122 84 OFFCURVE",
"118 178 CURVE SMOOTH",
"115 251 OFFCURVE",
"118 323 OFFCURVE",
"131 365 CURVE",
"159 353 OFFCURVE",
"196 339 OFFCURVE",
"230 316 CURVE",
"235 316 LINE",
"312 378 LINE",
"301 383 LINE",
"251 400 OFFCURVE",
"205 436 OFFCURVE",
"157 465 CURVE",
"35 353 LINE",
"25 297 OFFCURVE",
"21 143 OFFCURVE",
"32 81 CURVE"
);
}
);
width = 464;
}
);
leftMetricsKey = c;
note = c_i;
rightMetricsKey = i;
},
{
color = 4;
glyphname = c_h;
lastChange = "2019-04-24 17:25:05 +0000";
layers = (
{
layerId = "E35B076F-D533-4C92-BAB9-D65BCB0F4FA2";
paths = (
{
closed = 1;
nodes = (
"25 69 OFFCURVE",
"83 18 OFFCURVE",
"165 -10 CURVE",
"195 10 OFFCURVE",
"240 54 OFFCURVE",
"297 88 CURVE",
"289 118 LINE",
"176 70 OFFCURVE",
"122 118 OFFCURVE",
"122 259 CURVE SMOOTH",
"122 301 OFFCURVE",
"126 335 OFFCURVE",
"139 372 CURVE",
"170 366 OFFCURVE",
"192 358 OFFCURVE",
"226 346 CURVE",
"231 346 LINE",
"297 408 LINE",
"296 413 LINE",
"246 435 OFFCURVE",
"206 447 OFFCURVE",
"160 465 CURVE",
"37 361 LINE",
"25 303 OFFCURVE",
"25 231 OFFCURVE",
"25 191 CURVE SMOOTH"
);
},
{
closed = 1;
nodes = (
"375 331 LINE",
"403 354 OFFCURVE",
"430 369 OFFCURVE",
"470 369 CURVE SMOOTH",
"538 369 OFFCURVE",
"607 310 OFFCURVE",
"607 220 CURVE SMOOTH",
"607 110 OFFCURVE",
"518 -18 OFFCURVE",
"417 -103 CURVE",
"404 -198 LINE",
"433 -198 LINE",
"494 -79 OFFCURVE",
"694 145 OFFCURVE",
"694 281 CURVE SMOOTH",
"694 381 OFFCURVE",
"639 431 OFFCURVE",
"519 465 CURVE",
"468 427 OFFCURVE",
"426 407 OFFCURVE",
"375 373 CURVE"
);
},
{
closed = 1;
nodes = (
"382 375 LINE",
"382 488 OFFCURVE",
"385 587 OFFCURVE",
"397 700 CURVE",
"375 715 LINE",
"195 635 LINE",
"195 609 LINE",
"238 606 OFFCURVE",
"280 604 OFFCURVE",
"281 571 CURVE SMOOTH",
"283 518 OFFCURVE",
"282 449 OFFCURVE",
"282 376 CURVE SMOOTH",
"282 282 OFFCURVE",
"282 169 OFFCURVE",
"279 0 CURVE",
"389 0 LINE"
);
}
);
width = 729;
}
);
leftMetricsKey = c;
note = c_h;
rightMetricsKey = h;
},
{
color = 4;
glyphname = c_k;
lastChange = "2019-04-24 17:25:05 +0000";
layers = (
{
components = (
{
alignment = -1;
name = k;
transform = "{1, 0, 0, 1, 210, 0}";
}
);
layerId = "E35B076F-D533-4C92-BAB9-D65BCB0F4FA2";
paths = (
{
closed = 1;
nodes = (
"25 69 OFFCURVE",
"83 18 OFFCURVE",
"165 -10 CURVE",
"195 10 OFFCURVE",
"240 54 OFFCURVE",
"297 88 CURVE",
"289 118 LINE",
"176 70 OFFCURVE",
"122 118 OFFCURVE",
"122 259 CURVE SMOOTH",
"122 301 OFFCURVE",
"126 335 OFFCURVE",
"139 372 CURVE",
"170 366 OFFCURVE",
"192 358 OFFCURVE",
"226 346 CURVE",
"231 346 LINE",
"297 408 LINE",
"296 413 LINE",
"246 435 OFFCURVE",
"206 447 OFFCURVE",
"160 465 CURVE",
"37 361 LINE",
"25 303 OFFCURVE",
"25 231 OFFCURVE",
"25 191 CURVE SMOOTH"
);
}
);
width = 657;
}
);
leftMetricsKey = c;
note = c_k;
rightMetricsKey = k;
},
{
color = 4;
glyphname = c_o;
lastChange = "2019-04-24 17:25:05 +0000";
layers = (
{
layerId = "E35B076F-D533-4C92-BAB9-D65BCB0F4FA2";
paths = (
{
closed = 1;
nodes = (
"25 69 OFFCURVE",
"83 18 OFFCURVE",
"165 -10 CURVE",
"195 10 OFFCURVE",
"240 54 OFFCURVE",
"297 88 CURVE",
"289 118 LINE",
"176 70 OFFCURVE",
"122 108 OFFCURVE",
"122 229 CURVE SMOOTH",
"122 291 OFFCURVE",
"123 333 OFFCURVE",
"135 370 CURVE",
"166 364 OFFCURVE",
"242 338 OFFCURVE",
"276 298 CURVE",
"281 298 LINE",
"347 378 LINE",
"346 383 LINE",
"296 405 OFFCURVE",
"216 447 OFFCURVE",
"170 465 CURVE",
"29 361 LINE",
"27 303 OFFCURVE",
"25 231 OFFCURVE",
"25 161 CURVE SMOOTH"
);
},
{
closed = 1;
nodes = (
"542 10 OFFCURVE",
"670 108 OFFCURVE",
"670 258 CURVE SMOOTH",
"670 358 OFFCURVE",
"583 465 OFFCURVE",
"455 465 CURVE",
"377 423 OFFCURVE",
"333 393 OFFCURVE",
"274 338 CURVE",
"254 257 OFFCURVE",
"257 175 OFFCURVE",
"281 94 CURVE",
"307 54 OFFCURVE",
"385 -2 OFFCURVE",
"484 -10 CURVE"
);
},
{
closed = 1;
nodes = (
"426 92 OFFCURVE",
"345 161 OFFCURVE",
"345 261 CURVE SMOOTH",
"345 310 OFFCURVE",
"362 354 OFFCURVE",
"391 370 CURVE",
"491 383 OFFCURVE",
"600 307 OFFCURVE",
"600 207 CURVE SMOOTH",
"600 167 OFFCURVE",
"586 113 OFFCURVE",
"545 93 CURVE"
);
}
);
width = 695;
}
);
leftMetricsKey = c;
note = c_o;
rightMetricsKey = o;
},
{
color = 4;
glyphname = c_o_macr;
lastChange = "2019-04-23 14:01:23 +0000";
layers = (
{
components = (
{
alignment = -1;
name = c_o;
}
);
layerId = "E35B076F-D533-4C92-BAB9-D65BCB0F4FA2";
paths = (
{
closed = 1;
nodes = (
"676 567 LINE",
"712 642 LINE",
"711 648 LINE",
"456 649 LINE",
"421 623 OFFCURVE",
"401 587 OFFCURVE",
"377 553 CURVE",
"406 544 LINE",
"441 582 OFFCURVE",
"507 583 OFFCURVE",
"581 576 CURVE SMOOTH"
);
}
);
width = 692;
}
);
leftMetricsKey = c;
note = c_omacr;
},
{
color = 4;
glyphname = c_t;
lastChange = "2019-04-24 17:25:05 +0000";
layers = (
{
layerId = "E35B076F-D533-4C92-BAB9-D65BCB0F4FA2";
paths = (
{
closed = 1;
nodes = (
"352 287 OFFCURVE",
"371 534 OFFCURVE",
"371 590 CURVE SMOOTH",
"371 670 OFFCURVE",
"309 715 OFFCURVE",
"259 715 CURVE SMOOTH",
"218 715 OFFCURVE",
"124 693 OFFCURVE",
"48 672 CURVE",
"52 642 LINE",
"203 665 OFFCURVE",
"278 650 OFFCURVE",
"278 585 CURVE SMOOTH",
"278 513 OFFCURVE",
"266 346 OFFCURVE",
"266 235 CURVE SMOOTH",
"266 82 LINE SMOOTH",
"266 54 OFFCURVE",
"333 -10 OFFCURVE",
"363 -10 CURVE SMOOTH",
"383 -10 OFFCURVE",
"490 42 OFFCURVE",
"539 72 CURVE",
"537 101 LINE",
"419 84 OFFCURVE",
"373 102 OFFCURVE",
"366 164 CURVE SMOOTH"
);
},
{
closed = 1;
nodes = (
"25 69 OFFCURVE",
"73 18 OFFCURVE",
"155 -10 CURVE",
"185 10 OFFCURVE",
"230 46 OFFCURVE",
"287 80 CURVE",
"279 110 LINE",
"166 62 OFFCURVE",
"112 100 OFFCURVE",
"112 221 CURVE SMOOTH",
"112 283 OFFCURVE",
"116 335 OFFCURVE",
"129 372 CURVE",
"160 366 OFFCURVE",
"192 347 OFFCURVE",
"226 328 CURVE",
"211 328 LINE",
"277 408 LINE",
"276 413 LINE",
"226 435 OFFCURVE",
"196 447 OFFCURVE",
"150 465 CURVE",
"37 361 LINE",
"25 303 OFFCURVE",
"25 231 OFFCURVE",
"25 161 CURVE SMOOTH"
);
},
{
closed = 1;
nodes = (
"330 371 LINE",
"506 371 LINE",
"515 455 LINE",
"308 455 LINE"
);
}
);
width = 549;
}
);
leftMetricsKey = c;
note = c_t;
rightMetricsKey = t;
unicode = EEC5;
},
{
color = 4;
glyphname = c_t_i;
lastChange = "2019-04-24 17:25:05 +0000";
layers = (
{
layerId = "E35B076F-D533-4C92-BAB9-D65BCB0F4FA2";
paths = (
{
closed = 1;
nodes = (
"593 -10 LINE",
"595 -10 LINE",
"672 60 LINE",
"672 474 LINE",
"671 475 LINE",
"653 480 LINE",
"572 425 LINE",
"571 0 LINE"
);
},
{
closed = 1;
nodes = (
"73 62 OFFCURVE",
"115 8 OFFCURVE",
"195 -10 CURVE",
"225 11 OFFCURVE",
"297 64 OFFCURVE",
"349 93 CURVE",
"329 119 LINE",
"234 60 OFFCURVE",
"155 115 OFFCURVE",
"145 171 CURVE SMOOTH",
"133 237 OFFCURVE",
"137 323 OFFCURVE",
"153 365 CURVE",
"184 365 OFFCURVE",
"227 354 OFFCURVE",
"258 335 CURVE",
"263 335 LINE",
"338 408 LINE",
"337 413 LINE",
"287 428 OFFCURVE",
"231 448 OFFCURVE",
"183 465 CURVE",
"59 383 LINE",
"49 327 OFFCURVE",
"45 163 OFFCURVE",
"56 101 CURVE"
);
},
{
closed = 1;
nodes = (
"404 287 OFFCURVE",
"423 464 OFFCURVE",
"423 520 CURVE SMOOTH",
"423 638 OFFCURVE",
"361 715 OFFCURVE",
"271 715 CURVE SMOOTH",
"160 715 OFFCURVE",
"101 668 OFFCURVE",
"25 618 CURVE",
"36 592 LINE",
"103 633 OFFCURVE",
"164 644 OFFCURVE",
"216 644 CURVE SMOOTH",
"292 644 OFFCURVE",
"330 599 OFFCURVE",
"330 525 CURVE SMOOTH",
"330 453 OFFCURVE",
"318 354 OFFCURVE",
"318 243 CURVE SMOOTH",
"318 82 LINE",
"354 40 OFFCURVE",
"389 14 OFFCURVE",
"425 -10 CURVE",
"493 26 OFFCURVE",
"542 73 OFFCURVE",
"601 92 CURVE",
"599 131 LINE",
"491 64 OFFCURVE",
"425 102 OFFCURVE",
"418 164 CURVE SMOOTH"
);
},
{
closed = 1;
nodes = (
"402 371 LINE",
"628 371 LINE",
"658 455 LINE",
"370 455 LINE"
);
}
);
width = 697;
}
);
leftMetricsKey = c;
note = c_t_i;
rightMetricsKey = i;
},
{
color = 4;
glyphname = c_u;
lastChange = "2019-04-24 17:25:05 +0000";
layers = (
{
layerId = "E35B076F-D533-4C92-BAB9-D65BCB0F4FA2";
paths = (
{
closed = 1;
nodes = (
"49 62 OFFCURVE",
"99 8 OFFCURVE",
"179 -10 CURVE",
"209 11 OFFCURVE",
"281 74 OFFCURVE",
"333 103 CURVE",
"313 129 LINE",
"218 70 OFFCURVE",
"139 123 OFFCURVE",
"129 179 CURVE SMOOTH",
"117 245 OFFCURVE",
"121 323 OFFCURVE",
"137 365 CURVE",
"168 365 OFFCURVE",
"211 354 OFFCURVE",
"242 335 CURVE",
"247 335 LINE",
"322 398 LINE",
"317 406 LINE",
"267 424 OFFCURVE",
"215 441 OFFCURVE",
"167 465 CURVE",
"35 383 LINE",
"25 327 OFFCURVE",
"21 163 OFFCURVE",
"32 101 CURVE"
);
},
{
closed = 1;
nodes = (
"546 32 CURVE",
"600 -10 LINE",
"683 50 LINE",
"678 83 LINE",
"644 83 OFFCURVE",
"644 99 OFFCURVE",
"642 158 CURVE SMOOTH",
"640 223 OFFCURVE",
"640 342 OFFCURVE",
"655 407 CURVE",
"634 424 OFFCURVE",
"608 451 OFFCURVE",
"588 465 CURVE",
"586 465 LINE",
"509 405 LINE",
"510 389 LINE",
"530 377 OFFCURVE",
"550 362 OFFCURVE",
"550 309 CURVE SMOOTH",
"550 229 OFFCURVE",
"546 32 OFFCURVE"
);
},
{
closed = 1;
nodes = (
"571 149 LINE",
"547 120 OFFCURVE",
"509 101 OFFCURVE",
"486 93 CURVE",
"435 119 OFFCURVE",
"406 146 OFFCURVE",
"406 215 CURVE SMOOTH",
"406 313 OFFCURVE",
"406 397 OFFCURVE",
"413 455 CURVE",
"393 465 LINE",
"296 438 LINE",
"311 388 OFFCURVE",
"316 221 OFFCURVE",
"306 102 CURVE",
"335 86 OFFCURVE",
"389 20 OFFCURVE",
"421 -10 CURVE",
"571 102 LINE"
);
}
);
width = 701;
}
);
leftMetricsKey = c;
note = c_u;
rightMetricsKey = u;
},
{
color = 4;
glyphname = d;
lastChange = "2019-04-24 17:25:05 +0000";
layers = (
{
layerId = "E35B076F-D533-4C92-BAB9-D65BCB0F4FA2";
paths = (
{
closed = 1;
nodes = (
"156 392 OFFCURVE",
"203 369 CURVE",
"336 379 OFFCURVE",
"425 305 OFFCURVE",
"425 207 CURVE SMOOTH",
"425 142 OFFCURVE",
"369 90 OFFCURVE",
"310 90 CURVE SMOOTH",
"232 90 OFFCURVE",
"145 149 OFFCURVE",
"145 245 CURVE SMOOTH",
"145 308 OFFCURVE",
"197 359 OFFCURVE",
"242 385 CURVE",
"194 402 LINE",
"157 367 OFFCURVE",
"60 249 OFFCURVE",
"60 238 CURVE",
"60 88 OFFCURVE",
"172 -10 OFFCURVE",
"302 -10 CURVE",
"362 40 OFFCURVE",
"494 138 OFFCURVE",
"494 248 CURVE SMOOTH",
"494 390 OFFCURVE",
"398 442 OFFCURVE",
"274 461 CURVE SMOOTH",
"182 475 OFFCURVE",
"109 532 OFFCURVE",
"83 570 CURVE",
"65 571 LINE",
"20 479 LINE",
"76 439 OFFCURVE"
);
}
);
width = 519;
}
);
note = d;
unicode = 0064;
},
{
color = 4;
glyphname = d_strok;
lastChange = "2019-04-23 14:01:23 +0000";
layers = (
{
components = (
{
alignment = -1;
name = d;
}
);
layerId = "E35B076F-D533-4C92-BAB9-D65BCB0F4FA2";
paths = (
{
closed = 1;
nodes = (
"306 530 LINE",
"346 570 OFFCURVE",
"388 597 OFFCURVE",
"416 642 CURVE",
"406 681 OFFCURVE",
"344 709 OFFCURVE",
"291 708 CURVE",
"236 670 LINE",
"238 657 LINE",
"279 650 OFFCURVE",
"323 626 OFFCURVE",
"323 600 CURVE SMOOTH",
"323 588 OFFCURVE",
"295 556 OFFCURVE",
"279 549 CURVE"
);
}
);
width = 519;
}
);
leftMetricsKey = d;
note = d_apomod;
rightMetricsKey = d;
},
{
color = 4;
glyphname = d_e_macr;
lastChange = "2019-04-24 17:25:05 +0000";
layers = (
{
components = (
{
name = d;
},
{
alignment = -1;
name = e;
transform = "{1, 0, 0, 1, 401, 0}";
}
);
layerId = "E35B076F-D533-4C92-BAB9-D65BCB0F4FA2";
paths = (
{
closed = 1;
nodes = (
"584 546 OFFCURVE",
"619 545 OFFCURVE",
"663 541 CURVE",
"699 619 LINE",
"697 625 LINE",
"444 619 LINE",
"413 588 OFFCURVE",
"361 535 OFFCURVE",
"342 498 CURVE",
"363 491 LINE",
"412 534 OFFCURVE",
"476 548 OFFCURVE",
"540 547 CURVE SMOOTH"
);
}
);
width = 769;
}
);
leftMetricsKey = d;
note = d_emacr;
rightMetricsKey = e;
},
{
color = 4;
glyphname = e;
lastChange = "2019-04-24 17:25:05 +0000";
layers = (
{
layerId = "E35B076F-D533-4C92-BAB9-D65BCB0F4FA2";
paths = (
{
closed = 1;
nodes = (
"102 129 LINE",
"351 293 LINE",
"358 320 LINE",
"328 374 OFFCURVE",
"289 443 OFFCURVE",
"204 464 CURVE",
"159 430 OFFCURVE",
"82 382 OFFCURVE",
"38 350 CURVE",
"36 312 OFFCURVE",
"30 252 OFFCURVE",
"30 212 CURVE SMOOTH",
"30 59 OFFCURVE",
"112 -10 OFFCURVE",
"159 -10 CURVE SMOOTH",
"194 -10 OFFCURVE",
"259 18 OFFCURVE",
"309 57 CURVE",
"299 87 LINE",
"188 38 OFFCURVE",
"120 110 OFFCURVE",
"120 232 CURVE SMOOTH",
"120 267 OFFCURVE",
"123 326 OFFCURVE",
"135 378 CURVE",
"189 375 OFFCURVE",
"254 332 OFFCURVE",
"257 299 CURVE SMOOTH",
"259 273 OFFCURVE",
"239 261 OFFCURVE",
"93 164 CURVE"
);
}
);
width = 368;
}
);
note = e;
unicode = 0065;
},
{
color = 4;
glyphname = e_hook;
lastChange = "2019-04-24 17:25:05 +0000";
layers = (
{
components = (
{
alignment = -1;
name = e;
}
);
layerId = "E35B076F-D533-4C92-BAB9-D65BCB0F4FA2";
paths = (
{
closed = 1;
nodes = (
"178 507 LINE",
"212 533 OFFCURVE",
"241 552 OFFCURVE",
"276 594 CURVE",
"276 654 OFFCURVE",
"222 704 OFFCURVE",
"163 704 CURVE",
"100 626 LINE",
"103 614 LINE",
"166 606 OFFCURVE",
"195 570 OFFCURVE",
"158 520 CURVE"
);
}
);
width = 368;
}
);
leftMetricsKey = e;
note = e_apomod;
rightMetricsKey = e;
},
{
color = 4;
glyphname = e_etfin;
lastChange = "2019-04-24 17:25:05 +0000";
layers = (
{
layerId = "E35B076F-D533-4C92-BAB9-D65BCB0F4FA2";
paths = (
{
closed = 1;
nodes = (
"367 317 LINE",
"430 367 LINE",
"470 333 OFFCURVE",
"508 309 OFFCURVE",
"566 268 CURVE",
"549 246 OFFCURVE",
"525 207 OFFCURVE",
"502 192 CURVE",
"439 150 OFFCURVE",
"308 60 OFFCURVE",
"216 60 CURVE SMOOTH",
"118 60 OFFCURVE",
"119 222 OFFCURVE",
"131 372 CURVE",
"141 378 LINE",
"180 370 OFFCURVE",
"244 310 OFFCURVE",
"260 276 CURVE",
"214 228 OFFCURVE",
"168 192 OFFCURVE",
"122 156 CURVE",
"132 130 LINE",
"367 317 LINE",
"372 347 LINE",
"324 373 OFFCURVE",
"251 454 OFFCURVE",
"215 465 CURVE",
"41 365 LINE",
"35 298 OFFCURVE",
"30 225 OFFCURVE",
"30 175 CURVE SMOOTH",
"30 62 OFFCURVE",
"66 -10 OFFCURVE",
"181 -10 CURVE SMOOTH",
"218 -10 OFFCURVE",
"337 59 OFFCURVE",
"483 132 CURVE",
"401 93 LINE",
"513 135 OFFCURVE",
"538 77 OFFCURVE",
"538 15 CURVE SMOOTH",
"538 -65 OFFCURVE",
"489 -154 OFFCURVE",
"347 -240 CURVE",
"372 -265 LINE",
"573 -146 OFFCURVE",
"648 -20 OFFCURVE",
"648 57 CURVE SMOOTH",
"648 133 OFFCURVE",
"603 168 OFFCURVE",
"547 195 CURVE",
"654 316 LINE",
"654 332 LINE",
"588 378 OFFCURVE",
"552 417 OFFCURVE",
"496 465 CURVE",
"491 465 LINE",
"354 345 LINE"
);
}
);
width = 724;
}
);
leftMetricsKey = e;
note = e_z;
},
{
color = 4;
glyphname = f;
lastChange = "2019-04-24 17:25:05 +0000";
layers = (
{
layerId = "E35B076F-D533-4C92-BAB9-D65BCB0F4FA2";
paths = (
{
closed = 1;
nodes = (
"158 0 LINE",
"150 92 OFFCURVE",
"153 277 OFFCURVE",
"153 355 CURVE",
"278 355 LINE",
"279 445 LINE",
"152 445 LINE",
"152 618 LINE",
"200 618 OFFCURVE",
"249 613 OFFCURVE",
"299 605 CURVE",
"365 679 LINE",
"365 695 LINE",
"305 696 OFFCURVE",
"244 697 OFFCURVE",
"184 700 CURVE",
"139 676 OFFCURVE",
"93 637 OFFCURVE",
"53 596 CURVE",
"53 368 LINE SMOOTH",
"53 285 OFFCURVE",
"58 92 OFFCURVE",
"50 0 CURVE"
);
}
);
width = 325;
}
);
note = f;
unicode = 0066;
},
{
color = 4;
glyphname = f_a;
lastChange = "2019-04-24 17:25:05 +0000";
layers = (
{
layerId = "E35B076F-D533-4C92-BAB9-D65BCB0F4FA2";
paths = (
{
closed = 1;
nodes = (
"432 67 LINE SMOOTH",
"432 27 OFFCURVE",
"462 -10 OFFCURVE",
"482 -10 CURVE",
"564 24 LINE",
"564 54 LINE",
"562 55 LINE",
"535 78 OFFCURVE",
"532 96 OFFCURVE",
"532 145 CURVE SMOOTH",
"532 383 LINE SMOOTH",
"532 413 OFFCURVE",
"438 465 OFFCURVE",
"408 465 CURVE",
"345 455 LINE",
"152 455 LINE",
"152 618 LINE",
"299 605 LINE",
"365 673 LINE",
"365 695 LINE",
"184 700 LINE",
"139 676 OFFCURVE",
"93 647 OFFCURVE",
"53 606 CURVE",
"53 368 LINE SMOOTH",
"53 285 OFFCURVE",
"58 92 OFFCURVE",
"50 0 CURVE",
"158 0 LINE",
"150 92 OFFCURVE",
"153 297 OFFCURVE",
"153 375 CURVE",
"372 375 LINE SMOOTH",
"420 375 OFFCURVE",
"431 337 OFFCURVE",
"431 300 CURVE SMOOTH"
);
},
{
closed = 1;
nodes = (
"441 317 LINE",
"223 153 LINE",
"235 94 OFFCURVE",
"251 39 OFFCURVE",
"301 -10 CURVE",
"441 118 LINE",
"441 152 LINE",
"413 121 OFFCURVE",
"386 98 OFFCURVE",
"358 83 CURVE",
"331 105 OFFCURVE",
"314 144 OFFCURVE",
"314 177 CURVE",
"356 220 OFFCURVE",
"399 255 OFFCURVE",
"441 282 CURVE"
);
}
);
width = 589;
}
);
leftMetricsKey = f;
note = f_a;
rightMetricsKey = a;
},
{
color = 4;
glyphname = f_e;
lastChange = "2019-04-23 14:01:23 +0000";
layers = (
{
layerId = "E35B076F-D533-4C92-BAB9-D65BCB0F4FA2";
paths = (
{
closed = 1;
nodes = (
"368 120 OFFCURVE",
"353 224 CURVE SMOOTH",
"348 259 OFFCURVE",
"343 343 OFFCURVE",
"352 395 CURVE",
"386 391 OFFCURVE",
"447 333 OFFCURVE",
"450 300 CURVE SMOOTH",
"452 275 OFFCURVE",
"414 243 OFFCURVE",
"328 177 CURVE",
"351 151 LINE",
"539 310 LINE",
"546 337 LINE",
"513 382 OFFCURVE",
"461 435 OFFCURVE",
"406 467 CURVE",
"405 467 LINE",
"306 454 LINE",
"152 453 LINE",
"152 618 LINE",
"299 605 LINE",
"365 673 LINE",
"365 695 LINE",
"184 700 LINE",
"139 676 OFFCURVE",
"93 647 OFFCURVE",
"53 606 CURVE",
"53 368 LINE SMOOTH",
"53 285 OFFCURVE",
"58 92 OFFCURVE",
"50 0 CURVE",
"158 0 LINE",
"150 92 OFFCURVE",
"153 287 OFFCURVE",
"153 365 CURVE",
"262 365 LINE",
"264 308 OFFCURVE",
"270 209 OFFCURVE",
"265 93 CURVE",
"293 56 OFFCURVE",
"336 25 OFFCURVE",
"395 -10 CURVE",
"439 14 OFFCURVE",
"504 47 OFFCURVE",
"554 77 CURVE",
"544 107 LINE",
"428 76 OFFCURVE"
);
}
);
width = 564;
}
);
leftMetricsKey = f;
rightMetricsKey = e;
},
{
color = 4;
glyphname = f_f;
lastChange = "2019-04-24 17:25:05 +0000";
layers = (
{
components = (
{
alignment = -1;
name = f;
transform = "{1, 0, 0, 1, 215, 0}";
}
);
layerId = "E35B076F-D533-4C92-BAB9-D65BCB0F4FA2";
paths = (
{
closed = 1;
nodes = (
"158 0 LINE",
"150 92 OFFCURVE",
"153 287 OFFCURVE",
"153 365 CURVE",
"269 365 LINE",
"289 455 LINE",
"152 455 LINE",
"152 618 LINE",
"309 585 LINE",
"375 653 LINE",
"375 675 LINE",
"184 700 LINE",
"139 676 OFFCURVE",
"93 647 OFFCURVE",
"53 606 CURVE",
"53 368 LINE SMOOTH",
"53 285 OFFCURVE",
"58 92 OFFCURVE",
"50 0 CURVE"
);
}
);
width = 540;
}
);
leftMetricsKey = f;
note = f_f;
rightMetricsKey = f;
unicode = FB00;
},
{
color = 4;
glyphname = f_i;
lastChange = "2019-04-24 17:25:05 +0000";
layers = (
{
layerId = "E35B076F-D533-4C92-BAB9-D65BCB0F4FA2";
paths = (
{
closed = 1;
nodes = (
"158 0 LINE",
"150 92 OFFCURVE",
"153 304 OFFCURVE",
"153 382 CURVE",
"218 382 OFFCURVE",
"276 379 OFFCURVE",
"295 352 CURVE",
"290 57 LINE",
"289 47 OFFCURVE",
"336 -10 OFFCURVE",
"346 -10 CURVE SMOOTH",
"348 -10 LINE",
"433 50 LINE",
"431 77 LINE",
"409 77 OFFCURVE",
"393 101 OFFCURVE",
"391 115 CURVE SMOOTH",
"387 142 OFFCURVE",
"392 342 OFFCURVE",
"395 464 CURVE",
"394 465 LINE",
"360 459 OFFCURVE",
"324 456 OFFCURVE",
"285 455 CURVE",
"152 455 LINE",
"152 627 LINE",
"201 626 OFFCURVE",
"250 618 OFFCURVE",
"299 605 CURVE",
"365 673 LINE",
"365 695 LINE",
"204 707 LINE",
"159 683 OFFCURVE",
"93 647 OFFCURVE",
"53 606 CURVE",
"53 368 LINE SMOOTH",
"53 285 OFFCURVE",
"58 92 OFFCURVE",
"50 0 CURVE"
);
},
{
closed = 1;
nodes = (
"394 571 LINE",
"453 675 LINE",
"453 680 LINE",
"427 700 LINE",
"420 700 LINE",
"368 570 LINE"
);
}
);
width = 478;
}
);
leftMetricsKey = f;
note = fi;
rightMetricsKey = i;
unicode = FB01;
},
{
color = 4;
glyphname = f_l;
lastChange = "2019-04-23 14:01:23 +0000";
layers = (
{
layerId = "E35B076F-D533-4C92-BAB9-D65BCB0F4FA2";
paths = (
{
closed = 1;
nodes = (
"421 87 OFFCURVE",
"407 100 OFFCURVE",
"402 150 CURVE SMOOTH",
"392 248 OFFCURVE",
"397 620 OFFCURVE",
"403 697 CURVE",
"402 701 LINE",
"287 701 LINE",
"288 625 OFFCURVE",
"301 251 OFFCURVE",
"297 52 CURVE",
"316 34 OFFCURVE",
"345 7 OFFCURVE",
"384 -10 CURVE",
"414 11 OFFCURVE",
"444 32 OFFCURVE",
"463 47 CURVE",
"463 67 LINE"
);
},
{
closed = 1;
nodes = (
"158 0 LINE",
"150 92 OFFCURVE",
"153 286 OFFCURVE",
"153 364 CURVE",
"318 364 LINE",
"319 445 LINE",
"152 445 LINE",
"152 583 LINE",
"200 583 OFFCURVE",
"259 572 OFFCURVE",
"309 544 CURVE",
"365 619 LINE",
"365 635 LINE",
"305 646 OFFCURVE",
"224 665 OFFCURVE",
"164 668 CURVE",
"128 644 OFFCURVE",
"93 609 OFFCURVE",
"53 568 CURVE",
"53 368 LINE SMOOTH",
"53 285 OFFCURVE",
"58 92 OFFCURVE",
"50 0 CURVE"
);
}
);
width = 473;
}
);
leftMetricsKey = f;
rightMetricsKey = l;
},
{
color = 4;
glyphname = f_o;
lastChange = "2019-04-24 17:25:05 +0000";
layers = (
{
components = (
{
alignment = -1;
name = o;
transform = "{1, 0, 0, 1, 235, 0}";
}
);
layerId = "E35B076F-D533-4C92-BAB9-D65BCB0F4FA2";
paths = (
{
closed = 1;
nodes = (
"158 0 LINE",
"150 92 OFFCURVE",
"153 297 OFFCURVE",
"153 375 CURVE",
"348 375 LINE",
"469 465 LINE",
"152 465 LINE",
"152 618 LINE",
"200 618 OFFCURVE",
"249 613 OFFCURVE",
"299 605 CURVE",
"365 679 LINE",
"365 695 LINE",
"305 696 OFFCURVE",
"244 697 OFFCURVE",
"184 700 CURVE",
"139 676 OFFCURVE",
"93 637 OFFCURVE",
"53 596 CURVE",
"53 368 LINE SMOOTH",
"53 285 OFFCURVE",
"58 92 OFFCURVE",
"50 0 CURVE"
);
}
);
width = 711;
}
);
leftMetricsKey = f;
note = f_o;
rightMetricsKey = o;
},
{
color = 4;
glyphname = f_r;
lastChange = "2019-04-24 17:25:05 +0000";
layers = (
{
layerId = "E35B076F-D533-4C92-BAB9-D65BCB0F4FA2";
paths = (
{
closed = 1;
nodes = (
"359 309 LINE",
"404 354 OFFCURVE",
"443 348 OFFCURVE",
"472 296 CURVE",
"477 296 LINE",
"548 375 LINE",
"540 408 OFFCURVE",
"518 437 OFFCURVE",
"491 465 CURVE",
"486 465 LINE",
"361 356 LINE"
);
},
{
closed = 1;
nodes = (
"370 352 LINE",
"370 461 LINE",
"368 465 LINE",
"296 457 OFFCURVE",
"224 455 OFFCURVE",
"152 455 CURVE",
"152 618 LINE",
"200 618 OFFCURVE",
"249 613 OFFCURVE",
"299 605 CURVE",
"365 679 LINE",
"365 695 LINE",
"305 696 OFFCURVE",
"244 697 OFFCURVE",
"184 700 CURVE",
"139 676 OFFCURVE",
"93 637 OFFCURVE",
"53 596 CURVE",
"53 368 LINE SMOOTH",
"53 285 OFFCURVE",
"58 92 OFFCURVE",
"50 0 CURVE",
"158 0 LINE",
"150 92 OFFCURVE",
"153 294 OFFCURVE",
"153 372 CURVE",
"200 372 OFFCURVE",
"249 373 OFFCURVE",
"271 343 CURVE",
"271 0 LINE",
"373 0 LINE",
"367 110 OFFCURVE",
"371 217 OFFCURVE",
"371 327 CURVE"
);
}
);
width = 553;
}
);
leftMetricsKey = f;
note = f_r;
rightMetricsKey = r;
},
{
color = 4;
glyphname = f_u;
lastChange = "2019-04-24 17:25:05 +0000";
layers = (
{
layerId = "E35B076F-D533-4C92-BAB9-D65BCB0F4FA2";
paths = (
{
closed = 1;
nodes = (
"539 101 LINE",
"539 83 LINE SMOOTH",
"539 45 OFFCURVE",
"561 8 OFFCURVE",
"599 -10 CURVE",
"682 33 LINE",
"677 73 LINE",
"643 73 OFFCURVE",
"641 99 OFFCURVE",
"641 205 CURVE SMOOTH",
"641 270 OFFCURVE",
"649 346 OFFCURVE",
"654 417 CURVE",
"643 437 OFFCURVE",
"599 465 OFFCURVE",
"577 465 CURVE SMOOTH",
"575 465 LINE",
"468 395 LINE",
"469 375 LINE",
"510 371 OFFCURVE",
"551 361 OFFCURVE",
"549 329 CURVE SMOOTH",
"542 124 LINE"
);
},
{
closed = 1;
nodes = (
"547 137 LINE",
"533 128 OFFCURVE",
"473 90 OFFCURVE",
"440 90 CURVE SMOOTH",
"400 90 OFFCURVE",
"395 112 OFFCURVE",
"395 185 CURVE SMOOTH",
"395 237 OFFCURVE",
"399 374 OFFCURVE",
"407 457 CURVE",
"402 463 LINE",
"400 465 LINE",
"310 454 LINE",
"152 455 LINE",
"152 618 LINE",
"200 618 OFFCURVE",
"249 613 OFFCURVE",
"299 605 CURVE",
"365 679 LINE",
"365 695 LINE",
"305 696 OFFCURVE",
"244 697 OFFCURVE",
"184 700 CURVE",
"139 676 OFFCURVE",
"93 637 OFFCURVE",
"53 596 CURVE",
"53 368 LINE SMOOTH",
"53 285 OFFCURVE",
"58 92 OFFCURVE",
"50 0 CURVE",
"158 0 LINE",
"150 92 OFFCURVE",
"153 295 OFFCURVE",
"153 373 CURVE",
"295 373 LINE",
"295 50 LINE SMOOTH",
"295 34 OFFCURVE",
"358 -10 OFFCURVE",
"390 -10 CURVE",
"548 95 LINE"
);
}
);
width = 700;
}
);
leftMetricsKey = f;
note = f_u;
rightMetricsKey = u;
},
{
color = 4;
glyphname = g;
lastChange = "2019-04-24 17:25:05 +0000";
layers = (
{
layerId = "E35B076F-D533-4C92-BAB9-D65BCB0F4FA2";
paths = (
{
closed = 1;
nodes = (
"331 78 LINE",
"394 123 OFFCURVE",
"444 183 OFFCURVE",
"444 263 CURVE SMOOTH",
"444 363 OFFCURVE",
"370 449 OFFCURVE",
"239 465 CURVE",
"191 428 OFFCURVE",
"147 390 OFFCURVE",
"79 351 CURVE",
"47 314 OFFCURVE",
"30 267 OFFCURVE",
"30 207 CURVE SMOOTH",
"30 109 OFFCURVE",
"80 35 OFFCURVE",
"148 11 CURVE",
"168 35 OFFCURVE",
"194 52 OFFCURVE",
"210 62 CURVE",
"304 58 OFFCURVE",
"369 -15 OFFCURVE",
"369 -85 CURVE SMOOTH",
"369 -148 OFFCURVE",
"338 -198 OFFCURVE",
"285 -224 CURVE",
"196 -246 OFFCURVE",
"88 -133 OFFCURVE",
"142 -27 CURVE",
"133 -15 LINE",
"100 -24 OFFCURVE",
"61 -38 OFFCURVE",
"28 -46 CURVE",
"18 -203 OFFCURVE",
"149 -275 OFFCURVE",
"279 -265 CURVE",
"371 -235 OFFCURVE",
"466 -181 OFFCURVE",
"466 -70 CURVE SMOOTH",
"466 0 OFFCURVE",
"424 63 OFFCURVE",
"334 107 CURVE",
"242 82 OFFCURVE",
"120 77 OFFCURVE",
"120 235 CURVE SMOOTH",
"120 277 OFFCURVE",
"130 316 OFFCURVE",
"159 352 CURVE",
"277 386 OFFCURVE",
"356 303 OFFCURVE",
"356 219 CURVE SMOOTH",
"356 168 OFFCURVE",
"342 123 OFFCURVE",
"303 94 CURVE"
);
},
{
closed = 1;
nodes = (
"430 297 LINE",
"522 297 LINE",
"513 386 LINE",
"377 387 LINE"
);
}
);
width = 541;
}
);
note = g;
unicode = 0067;
},
{
color = 4;
glyphname = g_e;
lastChange = "2019-04-24 17:25:05 +0000";
layers = (
{
layerId = "E35B076F-D533-4C92-BAB9-D65BCB0F4FA2";
paths = (
{
closed = 1;
nodes = (
"331 78 LINE",
"394 123 OFFCURVE",
"444 183 OFFCURVE",
"444 263 CURVE SMOOTH",
"444 363 OFFCURVE",
"370 449 OFFCURVE",
"239 465 CURVE",
"191 428 OFFCURVE",
"147 390 OFFCURVE",
"79 351 CURVE",
"47 314 OFFCURVE",
"30 267 OFFCURVE",
"30 207 CURVE SMOOTH",
"30 109 OFFCURVE",
"80 35 OFFCURVE",
"148 11 CURVE",
"168 35 OFFCURVE",
"194 52 OFFCURVE",
"210 62 CURVE",
"304 58 OFFCURVE",
"369 -15 OFFCURVE",
"369 -85 CURVE SMOOTH",
"369 -148 OFFCURVE",
"338 -198 OFFCURVE",
"285 -224 CURVE",
"196 -246 OFFCURVE",
"88 -133 OFFCURVE",
"142 -27 CURVE",
"133 -15 LINE",
"100 -24 OFFCURVE",
"61 -38 OFFCURVE",
"28 -46 CURVE",
"18 -203 OFFCURVE",
"149 -275 OFFCURVE",
"279 -265 CURVE",
"371 -235 OFFCURVE",
"466 -181 OFFCURVE",
"466 -70 CURVE SMOOTH",
"466 0 OFFCURVE",
"424 63 OFFCURVE",
"334 107 CURVE",
"242 82 OFFCURVE",
"120 77 OFFCURVE",
"120 235 CURVE SMOOTH",
"120 277 OFFCURVE",
"130 316 OFFCURVE",
"159 352 CURVE",
"277 386 OFFCURVE",
"356 303 OFFCURVE",
"356 219 CURVE SMOOTH",
"356 168 OFFCURVE",
"342 123 OFFCURVE",
"303 94 CURVE"
);
},
{
closed = 1;
nodes = (
"370 347 LINE",
"552 347 LINE",
"653 436 LINE",
"317 437 LINE"
);
},
{
closed = 1;
nodes = (
"590 112 LINE",
"839 313 LINE",
"846 340 LINE",
"796 385 OFFCURVE",
"747 424 OFFCURVE",
"692 464 CURVE",
"647 442 OFFCURVE",
"543 423 OFFCURVE",
"499 400 CURVE",
"507 362 OFFCURVE",
"505 252 OFFCURVE",
"508 212 CURVE SMOOTH",
"518 59 OFFCURVE",
"590 -10 OFFCURVE",
"637 -10 CURVE SMOOTH",
"672 -10 OFFCURVE",
"739 18 OFFCURVE",
"779 57 CURVE",
"769 87 LINE",
"668 38 OFFCURVE",
"643 108 OFFCURVE",
"617 222 CURVE SMOOTH",
"606 270 OFFCURVE",
"599 326 OFFCURVE",
"603 378 CURVE",
"667 375 OFFCURVE",
"722 341 OFFCURVE",
"725 308 CURVE SMOOTH",
"727 282 OFFCURVE",
"717 244 OFFCURVE",
"571 147 CURVE"
);
}
);
width = 856;
}
);
leftMetricsKey = g;
note = g_e;
rightMetricsKey = e;
},
{
color = 4;
glyphname = g_e_macr;
lastChange = "2019-04-24 17:25:05 +0000";
layers = (
{
layerId = "E35B076F-D533-4C92-BAB9-D65BCB0F4FA2";
paths = (
{
closed = 1;
nodes = (
"331 78 LINE",
"394 123 OFFCURVE",
"444 183 OFFCURVE",
"444 263 CURVE SMOOTH",
"444 363 OFFCURVE",
"370 449 OFFCURVE",
"239 465 CURVE",
"191 428 OFFCURVE",
"147 390 OFFCURVE",
"79 351 CURVE",
"47 314 OFFCURVE",
"30 267 OFFCURVE",
"30 207 CURVE SMOOTH",
"30 109 OFFCURVE",
"80 35 OFFCURVE",
"148 11 CURVE",
"168 35 OFFCURVE",
"194 52 OFFCURVE",
"210 62 CURVE",
"304 58 OFFCURVE",
"369 -15 OFFCURVE",
"369 -85 CURVE SMOOTH",
"369 -148 OFFCURVE",
"338 -198 OFFCURVE",
"285 -224 CURVE",
"196 -246 OFFCURVE",
"88 -133 OFFCURVE",
"142 -27 CURVE",
"133 -15 LINE",
"100 -24 OFFCURVE",
"61 -38 OFFCURVE",
"28 -46 CURVE",
"18 -203 OFFCURVE",
"149 -275 OFFCURVE",
"279 -265 CURVE",
"371 -235 OFFCURVE",
"466 -181 OFFCURVE",
"466 -70 CURVE SMOOTH",
"466 10 OFFCURVE",
"424 63 OFFCURVE",
"334 107 CURVE",
"242 82 OFFCURVE",
"120 77 OFFCURVE",
"120 235 CURVE SMOOTH",
"120 277 OFFCURVE",
"130 316 OFFCURVE",
"159 352 CURVE",
"277 386 OFFCURVE",
"356 303 OFFCURVE",
"356 219 CURVE SMOOTH",
"356 168 OFFCURVE",
"342 123 OFFCURVE",
"303 94 CURVE"
);
},
{
closed = 1;
nodes = (
"744 556 OFFCURVE",
"749 555 OFFCURVE",
"793 551 CURVE",
"829 629 LINE",
"827 635 LINE",
"634 632 LINE",
"593 601 OFFCURVE",
"531 546 OFFCURVE",
"502 508 CURVE",
"523 501 LINE",
"572 544 OFFCURVE",
"636 558 OFFCURVE",
"700 557 CURVE SMOOTH"
);
},
{
closed = 1;
nodes = (
"370 347 LINE",
"552 347 LINE",
"653 436 LINE",
"317 437 LINE"
);
},
{
closed = 1;
nodes = (
"580 112 LINE",
"849 316 LINE",
"856 343 LINE",
"796 388 OFFCURVE",
"747 424 OFFCURVE",
"692 464 CURVE",
"647 442 OFFCURVE",
"558 423 OFFCURVE",
"514 400 CURVE",
"512 362 OFFCURVE",
"515 187 OFFCURVE",
"522 147 CURVE SMOOTH",
"542 34 OFFCURVE",
"635 -10 OFFCURVE",
"682 -10 CURVE",
"750 42 OFFCURVE",
"790 81 OFFCURVE",
"850 140 CURVE",
"826 161 LINE",
"782 120 OFFCURVE",
"738 88 OFFCURVE",
"701 89 CURVE SMOOTH",
"653 90 OFFCURVE",
"626 164 OFFCURVE",
"614 232 CURVE SMOOTH",
"608 267 OFFCURVE",
"606 326 OFFCURVE",
"613 378 CURVE",
"667 375 OFFCURVE",
"722 341 OFFCURVE",
"725 308 CURVE SMOOTH",
"727 282 OFFCURVE",
"712 244 OFFCURVE",
"566 147 CURVE"
);
}
);
width = 866;
}
);
leftMetricsKey = g;
note = g_emacr;
rightMetricsKey = e;
},
{
color = 4;
glyphname = g_i;
lastChange = "2019-04-23 14:01:23 +0000";
layers = (
{
layerId = "E35B076F-D533-4C92-BAB9-D65BCB0F4FA2";
paths = (
{
closed = 1;
nodes = (
"18 -203 OFFCURVE",
"149 -275 OFFCURVE",
"279 -265 CURVE",
"371 -235 OFFCURVE",
"466 -181 OFFCURVE",
"466 -70 CURVE SMOOTH",
"466 13 OFFCURVE",
"412 62 OFFCURVE",
"335 123 CURVE",
"329 71 LINE",
"430 163 OFFCURVE",
"449 243 OFFCURVE",
"445 365 CURVE",
"486 372 OFFCURVE",
"531 366 OFFCURVE",
"568 353 CURVE",
"557 57 LINE",
"556 47 OFFCURVE",
"629 -10 OFFCURVE",
"639 -10 CURVE SMOOTH",
"641 -10 LINE",
"706 50 LINE",
"696 90 LINE",
"674 90 OFFCURVE",
"666 101 OFFCURVE",
"664 115 CURVE SMOOTH",
"661 137 OFFCURVE",
"661 270 OFFCURVE",
"673 384 CURVE SMOOTH",
"683 460 LINE",
"680 465 LINE",
"533 455 LINE",
"398 452 LINE",
"318 454 OFFCURVE",
"229 455 OFFCURVE",
"209 457 CURVE",
"161 420 OFFCURVE",
"126 391 OFFCURVE",
"79 351 CURVE",
"47 314 OFFCURVE",
"30 267 OFFCURVE",
"30 207 CURVE SMOOTH",
"30 109 OFFCURVE",
"80 35 OFFCURVE",
"148 11 CURVE",
"168 35 OFFCURVE",
"194 52 OFFCURVE",
"210 62 CURVE",
"304 58 OFFCURVE",
"369 -8 OFFCURVE",
"369 -85 CURVE SMOOTH",
"369 -148 OFFCURVE",
"349 -204 OFFCURVE",
"275 -230 CURVE",
"186 -225 OFFCURVE",
"88 -133 OFFCURVE",
"142 -27 CURVE",
"133 -15 LINE",
"100 -24 OFFCURVE",
"61 -38 OFFCURVE",
"28 -46 CURVE"
);
},
{
closed = 1;
nodes = (
"106 313 OFFCURVE",
"163 374 OFFCURVE",
"229 374 CURVE SMOOTH",
"282 374 OFFCURVE",
"325 359 OFFCURVE",
"354 326 CURVE",
"368 207 OFFCURVE",
"329 102 OFFCURVE",
"237 102 CURVE SMOOTH",
"157 102 OFFCURVE",
"106 162 OFFCURVE",
"106 235 CURVE SMOOTH"
);
},
{
closed = 1;
nodes = (
"586 552 LINE",
"591 552 LINE",
"685 675 LINE",
"685 680 LINE",
"659 700 LINE",
"652 700 LINE",
"560 578 LINE",
"560 573 LINE"
);
}
);
width = 731;
}
);
leftMetricsKey = g;
rightMetricsKey = i;
},
{
color = 4;
glyphname = g_o;
lastChange = "2019-04-24 17:25:05 +0000";
layers = (
{
layerId = "E35B076F-D533-4C92-BAB9-D65BCB0F4FA2";
paths = (
{
closed = 1;
nodes = (
"839 68 OFFCURVE",
"936 108 OFFCURVE",
"936 258 CURVE SMOOTH",
"936 358 OFFCURVE",
"849 465 OFFCURVE",
"711 465 CURVE",
"613 440 OFFCURVE",
"510 327 OFFCURVE",
"510 217 CURVE SMOOTH",
"510 107 OFFCURVE",
"589 1 OFFCURVE",
"750 -10 CURVE"
);
},
{
closed = 1;
nodes = (
"680 82 OFFCURVE",
"591 161 OFFCURVE",
"591 271 CURVE SMOOTH",
"591 310 OFFCURVE",
"608 362 OFFCURVE",
"643 380 CURVE",
"757 393 OFFCURVE",
"856 307 OFFCURVE",
"856 217 CURVE SMOOTH",
"856 157 OFFCURVE",
"832 112 OFFCURVE",
"791 83 CURVE"
);
},
{
closed = 1;
nodes = (
"331 78 LINE",
"394 123 OFFCURVE",
"444 183 OFFCURVE",
"444 263 CURVE SMOOTH",
"444 363 OFFCURVE",
"370 449 OFFCURVE",
"239 465 CURVE",
"191 428 OFFCURVE",
"147 390 OFFCURVE",
"79 351 CURVE",
"47 314 OFFCURVE",
"30 267 OFFCURVE",
"30 207 CURVE SMOOTH",
"30 109 OFFCURVE",
"80 35 OFFCURVE",
"148 11 CURVE",
"168 35 OFFCURVE",
"194 52 OFFCURVE",
"210 62 CURVE",
"304 58 OFFCURVE",
"369 -15 OFFCURVE",
"369 -85 CURVE SMOOTH",
"369 -148 OFFCURVE",
"338 -198 OFFCURVE",
"285 -224 CURVE",
"196 -246 OFFCURVE",
"88 -133 OFFCURVE",
"142 -27 CURVE",
"133 -15 LINE",
"100 -24 OFFCURVE",
"61 -38 OFFCURVE",
"28 -46 CURVE",
"18 -203 OFFCURVE",
"149 -275 OFFCURVE",
"279 -265 CURVE",
"371 -235 OFFCURVE",
"466 -181 OFFCURVE",
"466 -70 CURVE SMOOTH",
"466 0 OFFCURVE",
"424 63 OFFCURVE",
"334 107 CURVE",
"242 82 OFFCURVE",
"120 77 OFFCURVE",
"120 235 CURVE SMOOTH",
"120 277 OFFCURVE",
"130 316 OFFCURVE",
"159 352 CURVE",
"277 386 OFFCURVE",
"356 303 OFFCURVE",
"356 219 CURVE SMOOTH",
"356 168 OFFCURVE",
"342 123 OFFCURVE",
"303 94 CURVE"
);
},
{
closed = 1;
nodes = (
"350 357 LINE",
"586 366 LINE",
"667 446 LINE",
"297 447 LINE"
);
}
);
width = 961;
}
);
leftMetricsKey = g;
note = g_o;
rightMetricsKey = o;
},
{
color = 4;
glyphname = g_r;
lastChange = "2019-04-23 15:43:38 +0000";
layers = (
{
layerId = "E35B076F-D533-4C92-BAB9-D65BCB0F4FA2";
paths = (
{
closed = 1;
nodes = (
"658 388 LINE",
"648 340 LINE",
"709 399 OFFCURVE",
"729 370 OFFCURVE",
"762 313 CURVE",
"777 311 LINE",
"795 337 OFFCURVE",
"802 349 OFFCURVE",
"825 373 CURVE",
"819 419 OFFCURVE",
"796 458 OFFCURVE",
"752 483 CURVE"
);
},
{
closed = 1;
nodes = (
"665 384 OFFCURVE",
"665 469 OFFCURVE",
"665 483 CURVE",
"643 487 LINE",
"528 374 LINE",
"528 342 LINE",
"560 343 OFFCURVE",
"565 333 OFFCURVE",
"565 293 CURVE SMOOTH",
"565 219 OFFCURVE",
"561 114 OFFCURVE",
"559 0 CURVE",
"670 40 LINE",
"667 171 OFFCURVE",
"665 289 OFFCURVE",
"665 362 CURVE SMOOTH"
);
},
{
closed = 1;
nodes = (
"331 78 LINE",
"394 123 OFFCURVE",
"444 183 OFFCURVE",
"444 263 CURVE SMOOTH",
"444 363 OFFCURVE",
"370 449 OFFCURVE",
"239 465 CURVE",
"191 428 OFFCURVE",
"147 390 OFFCURVE",
"79 351 CURVE",
"47 314 OFFCURVE",
"30 267 OFFCURVE",
"30 207 CURVE SMOOTH",
"30 109 OFFCURVE",
"80 35 OFFCURVE",
"148 11 CURVE",
"168 35 OFFCURVE",
"194 52 OFFCURVE",
"210 62 CURVE",
"304 58 OFFCURVE",
"369 -15 OFFCURVE",
"369 -85 CURVE SMOOTH",
"369 -148 OFFCURVE",
"338 -198 OFFCURVE",
"285 -224 CURVE",
"196 -246 OFFCURVE",
"88 -133 OFFCURVE",
"142 -27 CURVE",
"133 -15 LINE",
"100 -24 OFFCURVE",
"61 -38 OFFCURVE",
"28 -46 CURVE",
"18 -203 OFFCURVE",
"149 -275 OFFCURVE",
"279 -265 CURVE",
"371 -235 OFFCURVE",
"466 -181 OFFCURVE",
"466 -70 CURVE SMOOTH",
"466 0 OFFCURVE",
"424 63 OFFCURVE",
"334 107 CURVE",
"242 82 OFFCURVE",
"120 77 OFFCURVE",
"120 235 CURVE SMOOTH",
"120 277 OFFCURVE",
"130 316 OFFCURVE",
"159 352 CURVE",
"277 386 OFFCURVE",
"356 303 OFFCURVE",
"356 219 CURVE SMOOTH",
"356 168 OFFCURVE",
"342 123 OFFCURVE",
"303 94 CURVE"
);
},
{
closed = 1;
nodes = (
"390 342 LINE",
"542 342 LINE",
"596 431 LINE",
"337 432 LINE"
);
}
);
width = 830;
}
);
leftMetricsKey = g;
rightMetricsKey = r;
},
{
color = 4;
glyphname = g_u;
lastChange = "2019-04-23 14:01:23 +0000";
layers = (
{
background = {
components = (
{
name = u;
transform = "{1, 0, 0, 1, 512, 0}";
}
);
};
layerId = "E35B076F-D533-4C92-BAB9-D65BCB0F4FA2";
paths = (
{
closed = 1;
nodes = (
"450 351 OFFCURVE",
"363 446 OFFCURVE",
"262 465 CURVE",
"91 356 LINE SMOOTH",
"57 335 OFFCURVE",
"27 267 OFFCURVE",
"27 212 CURVE SMOOTH",
"27 114 OFFCURVE",
"107 27 OFFCURVE",
"165 13 CURVE",
"235 54 LINE",
"294 55 OFFCURVE",
"346 4 OFFCURVE",
"346 -86 CURVE SMOOTH",
"346 -149 OFFCURVE",
"315 -215 OFFCURVE",
"258 -215 CURVE SMOOTH",
"169 -215 OFFCURVE",
"132 -113 OFFCURVE",
"176 -27 CURVE",
"165 -8 LINE",
"65 -56 LINE",
"45 -163 OFFCURVE",
"89 -265 OFFCURVE",
"239 -265 CURVE SMOOTH",
"365 -265 OFFCURVE",
"456 -186 OFFCURVE",
"456 -75 CURVE SMOOTH",
"456 0 OFFCURVE",
"411 62 OFFCURVE",
"361 90 CURVE",
"410 143 OFFCURVE",
"450 205 OFFCURVE",
"450 261 CURVE SMOOTH"
);
},
{
closed = 1;
nodes = (
"350 178 OFFCURVE",
"336 133 OFFCURVE",
"318 107 CURVE",
"244 90 LINE",
"181 90 OFFCURVE",
"127 183 OFFCURVE",
"127 259 CURVE SMOOTH",
"127 321 OFFCURVE",
"146 365 OFFCURVE",
"207 365 CURVE SMOOTH",
"259 365 OFFCURVE",
"350 303 OFFCURVE",
"350 209 CURVE SMOOTH"
);
},
{
closed = 1;
nodes = (
"346 365 LINE",
"660 365 LINE",
"673 460 LINE",
"670 465 LINE",
"544 458 OFFCURVE",
"419 455 OFFCURVE",
"293 455 CURVE"
);
},
{
closed = 1;
nodes = (
"555 34 OFFCURVE",
"618 -10 OFFCURVE",
"650 -10 CURVE",
"799 90 LINE",
"799 73 LINE SMOOTH",
"799 35 OFFCURVE",
"824 -10 OFFCURVE",
"859 -10 CURVE",
"942 50 LINE",
"937 90 LINE",
"903 90 OFFCURVE",
"901 99 OFFCURVE",
"901 205 CURVE SMOOTH",
"901 270 OFFCURVE",
"904 336 OFFCURVE",
"914 407 CURVE",
"914 427 OFFCURVE",
"857 465 OFFCURVE",
"837 465 CURVE",
"835 465 LINE",
"728 365 LINE",
"749 339 LINE",
"781 365 LINE",
"795 365 OFFCURVE",
"810 349 OFFCURVE",
"809 329 CURVE SMOOTH",
"802 135 LINE",
"782 122 OFFCURVE",
"730 90 OFFCURVE",
"700 90 CURVE SMOOTH",
"660 90 OFFCURVE",
"655 112 OFFCURVE",
"655 185 CURVE SMOOTH",
"655 243 OFFCURVE",
"660 395 OFFCURVE",
"673 460 CURVE",
"526 365 LINE",
"546 365 OFFCURVE",
"555 348 OFFCURVE",
"555 319 CURVE",
"555 50 LINE SMOOTH"
);
}
);
width = 960;
}
);
leftMetricsKey = g;
rightMetricsKey = u;
},
{
color = 4;
glyphname = h;
lastChange = "2019-04-24 17:25:05 +0000";
layers = (
{
layerId = "E35B076F-D533-4C92-BAB9-D65BCB0F4FA2";
paths = (
{
closed = 1;
nodes = (
"133 334 LINE",
"163 357 OFFCURVE",
"197 365 OFFCURVE",
"237 365 CURVE SMOOTH",
"315 365 OFFCURVE",
"385 298 OFFCURVE",
"385 216 CURVE SMOOTH",
"385 89 OFFCURVE",
"297 -49 OFFCURVE",
"185 -144 CURVE",
"185 -162 LINE",
"268 -161 LINE",
"390 41 OFFCURVE",
"472 147 OFFCURVE",
"472 263 CURVE SMOOTH",
"472 343 OFFCURVE",
"412 465 OFFCURVE",
"262 465 CURVE",
"219 433 OFFCURVE",
"176 403 OFFCURVE",
"133 377 CURVE"
);
},
{
closed = 1;
nodes = (
"133 334 OFFCURVE",
"141 513 OFFCURVE",
"155 706 CURVE",
"152 710 LINE",
"26 700 LINE",
"25 675 LINE",
"43 610 OFFCURVE",
"40 522 OFFCURVE",
"40 376 CURVE SMOOTH",
"40 282 OFFCURVE",
"40 169 OFFCURVE",
"37 0 CURVE",
"147 0 LINE"
);
}
);
width = 507;
}
);
note = h;
unicode = 0068;
},
{
color = 4;
glyphname = i;
lastChange = "2019-04-24 17:25:05 +0000";
layers = (
{
guideLines = (
{
angle = 221.2847;
position = "{18, 405}";
}
);
layerId = "E35B076F-D533-4C92-BAB9-D65BCB0F4FA2";
paths = (
{
closed = 1;
nodes = (
"53 532 LINE",
"84 524 LINE",
"165 637 LINE",
"122 652 LINE"
);
},
{
closed = 1;
nodes = (
"75 21 OFFCURVE",
"96 -3 OFFCURVE",
"112 -10 CURVE",
"114 -10 LINE",
"134 5 OFFCURVE",
"162 17 OFFCURVE",
"184 27 CURVE",
"187 48 LINE",
"158 80 OFFCURVE",
"154 143 OFFCURVE",
"154 252 CURVE SMOOTH",
"154 364 OFFCURVE",
"154 357 OFFCURVE",
"171 407 CURVE",
"94 465 LINE",
"92 465 LINE",
"25 408 LINE",
"26 375 LINE",
"45 385 OFFCURVE",
"58 376 OFFCURVE",
"58 336 CURVE SMOOTH",
"58 235 OFFCURVE",
"54 84 OFFCURVE",
"51 42 CURVE"
);
}
);
width = 212;
}
);
note = i;
unicode = 0069;
},
{
color = 4;
glyphname = dotlessi;
lastChange = "2019-04-23 14:01:23 +0000";
layers = (
{
layerId = "E35B076F-D533-4C92-BAB9-D65BCB0F4FA2";
paths = (
{
closed = 1;
nodes = (
"63 47 OFFCURVE",
"116 -10 OFFCURVE",
"126 -10 CURVE",
"128 -10 LINE",
"213 50 LINE",
"206 79 LINE",
"184 79 OFFCURVE",
"176 90 OFFCURVE",
"174 104 CURVE SMOOTH",
"170 131 OFFCURVE",
"164 290 OFFCURVE",
"186 412 CURVE",
"115 465 LINE",
"113 465 LINE",
"25 405 LINE",
"32 382 LINE",
"68 377 OFFCURVE",
"77 370 OFFCURVE",
"75 330 CURVE SMOOTH",
"64 57 LINE"
);
}
);
width = 238;
}
);
leftMetricsKey = i;
rightMetricsKey = i;
unicode = 0131;
},
{
color = 4;
glyphname = i_macr;
lastChange = "2019-04-24 17:25:05 +0000";
layers = (
{
layerId = "E35B076F-D533-4C92-BAB9-D65BCB0F4FA2";
paths = (
{
closed = 1;
nodes = (
"68 47 OFFCURVE",
"121 -10 OFFCURVE",
"131 -10 CURVE",
"133 -10 LINE",
"218 50 LINE",
"211 79 LINE",
"189 79 OFFCURVE",
"181 90 OFFCURVE",
"179 104 CURVE SMOOTH",
"175 131 OFFCURVE",
"169 290 OFFCURVE",
"191 412 CURVE",
"120 465 LINE",
"118 465 LINE",
"30 405 LINE",
"37 382 LINE",
"73 377 OFFCURVE",
"82 370 OFFCURVE",
"80 330 CURVE SMOOTH",
"69 57 LINE"
);
},
{
closed = 1;
nodes = (
"71 570 OFFCURVE",
"147 562 OFFCURVE",
"214 559 CURVE",
"247 646 LINE",
"234 653 LINE",
"189 646 OFFCURVE",
"114 653 OFFCURVE",
"44 649 CURVE",
"13 567 LINE",
"22 557 LINE"
);
}
);
width = 288;
}
);
unicode = 012B;
},
{
color = 4;
glyphname = i_n;
lastChange = "2019-04-23 14:01:23 +0000";
layers = (
{
components = (
{
name = m;
}
);
layerId = "E35B076F-D533-4C92-BAB9-D65BCB0F4FA2";
paths = (
{
closed = 1;
nodes = (
"98 544 LINE",
"192 690 LINE",
"156 700 LINE",
"77 560 LINE"
);
}
);
width = 707;
}
);
note = i_n;
},
{
color = 4;
glyphname = i_u;
lastChange = "2019-04-24 17:25:05 +0000";
layers = (
{
layerId = "E35B076F-D533-4C92-BAB9-D65BCB0F4FA2";
paths = (
{
closed = 1;
nodes = (
"516 81 LINE",
"534 56 OFFCURVE",
"553 31 OFFCURVE",
"578 -10 CURVE",
"668 50 LINE",
"663 80 LINE",
"629 99 OFFCURVE",
"627 118 OFFCURVE",
"627 205 CURVE SMOOTH",
"627 290 OFFCURVE",
"632 355 OFFCURVE",
"640 406 CURVE",
"629 426 OFFCURVE",
"566 455 OFFCURVE",
"546 465 CURVE",
"544 465 LINE",
"457 365 LINE",
"468 346 LINE",
"518 374 OFFCURVE",
"528 322 OFFCURVE",
"528 269 CURVE SMOOTH",
"528 213 OFFCURVE",
"526 157 OFFCURVE",
"520 101 CURVE"
);
},
{
closed = 1;
nodes = (
"108 524 LINE",
"182 680 LINE",
"149 700 LINE",
"87 540 LINE"
);
},
{
closed = 1;
nodes = (
"309 123 LINE",
"284 110 OFFCURVE",
"231 84 OFFCURVE",
"203 84 CURVE SMOOTH",
"171 84 OFFCURVE",
"162 104 OFFCURVE",
"159 146 CURVE SMOOTH",
"157 205 OFFCURVE",
"159 278 OFFCURVE",
"169 382 CURVE",
"169 413 OFFCURVE",
"122 451 OFFCURVE",
"95 465 CURVE",
"93 465 LINE",
"25 385 LINE",
"32 365 LINE",
"58 372 OFFCURVE",
"67 353 OFFCURVE",
"65 313 CURVE SMOOTH",
"54 75 LINE",
"52 59 OFFCURVE",
"131 -10 OFFCURVE",
"163 -10 CURVE",
"309 89 LINE"
);
},
{
closed = 1;
nodes = (
"548 115 LINE",
"499 90 OFFCURVE",
"448 81 OFFCURVE",
"403 106 CURVE",
"395 213 OFFCURVE",
"400 360 OFFCURVE",
"409 418 CURVE",
"394 439 OFFCURVE",
"361 448 OFFCURVE",
"326 465 CURVE",
"334 465 LINE",
"220 365 LINE",
"230 336 LINE",
"276 361 OFFCURVE",
"298 336 OFFCURVE",
"300 296 CURVE SMOOTH",
"302 248 OFFCURVE",
"301 175 OFFCURVE",
"301 115 CURVE",
"300 94 LINE",
"300 60 LINE",
"320 44 OFFCURVE",
"374 -10 OFFCURVE",
"406 -10 CURVE",
"438 17 OFFCURVE",
"494 52 OFFCURVE",
"545 79 CURVE"
);
}
);
width = 686;
}
);
leftMetricsKey = i;
note = i_u;
rightMetricsKey = u;
},
{
color = 4;
glyphname = i_j;
lastChange = "2019-04-23 14:01:23 +0000";
layers = (
{
layerId = "E35B076F-D533-4C92-BAB9-D65BCB0F4FA2";
paths = (
{
closed = 1;
nodes = (
"250 573 LINE",
"271 555 LINE",
"375 675 LINE",
"375 680 LINE",
"349 700 LINE",
"342 700 LINE"
);
},
{
closed = 1;
nodes = (
"258 12 OFFCURVE",
"238 -87 OFFCURVE",
"140 -189 CURVE",
"168 -210 LINE",
"278 -87 OFFCURVE",
"354 0 OFFCURVE",
"354 115 CURVE SMOOTH",
"354 142 OFFCURVE",
"347 298 OFFCURVE",
"359 420 CURVE",
"250 467 LINE",
"248 467 LINE",
"125 379 LINE",
"132 348 LINE",
"213 393 OFFCURVE",
"260 356 OFFCURVE",
"260 306 CURVE SMOOTH",
"258 57 LINE SMOOTH"
);
},
{
closed = 1;
nodes = (
"59 568 LINE",
"83 552 LINE",
"177 675 LINE",
"144 700 LINE"
);
},
{
closed = 1;
nodes = (
"32 47 OFFCURVE",
"85 -10 OFFCURVE",
"95 -10 CURVE",
"97 -10 LINE",
"280 82 LINE",
"270 116 LINE",
"203 72 OFFCURVE",
"146 78 OFFCURVE",
"138 135 CURVE SMOOTH",
"131 188 OFFCURVE",
"133 300 OFFCURVE",
"155 422 CURVE",
"74 465 LINE",
"72 465 LINE",
"-6 416 LINE",
"-9 394 LINE",
"16 380 OFFCURVE",
"46 363 OFFCURVE",
"44 313 CURVE SMOOTH",
"33 57 LINE"
);
}
);
width = 395;
}
);
},
{
color = 4;
glyphname = j;
lastChange = "2019-04-23 14:01:23 +0000";
layers = (
{
layerId = "E35B076F-D533-4C92-BAB9-D65BCB0F4FA2";
paths = (
{
closed = 1;
nodes = (
"46 532 LINE",
"77 524 LINE",
"161 637 LINE",
"118 652 LINE"
);
},
{
closed = 1;
nodes = (
"63 -210 LINE",
"88 -152 OFFCURVE",
"136 -25 OFFCURVE",
"160 19 CURVE",
"160 102 OFFCURVE",
"150 338 OFFCURVE",
"167 407 CURVE",
"84 465 LINE",
"82 465 LINE",
"21 404 LINE",
"20 374 LINE",
"46 379 OFFCURVE",
"54 363 OFFCURVE",
"54 323 CURVE SMOOTH",
"54 123 OFFCURVE",
"71 -38 OFFCURVE",
"24 -199 CURVE"
);
}
);
width = 207;
}
);
unicode = 006A;
},
{
color = 4;
glyphname = k;
lastChange = "2019-04-24 17:25:05 +0000";
layers = (
{
layerId = "E35B076F-D533-4C92-BAB9-D65BCB0F4FA2";
paths = (
{
closed = 1;
nodes = (
"155 129 LINE",
"255 213 OFFCURVE",
"360 326 OFFCURVE",
"408 375 CURVE",
"375 398 OFFCURVE",
"297 451 OFFCURVE",
"272 466 CURVE",
"132 348 LINE",
"144 292 LINE",
"170 343 OFFCURVE",
"197 369 OFFCURVE",
"223 382 CURVE",
"231 382 OFFCURVE",
"300 346 OFFCURVE",
"307 324 CURVE",
"263 261 OFFCURVE",
"196 205 OFFCURVE",
"152 171 CURVE"
);
},
{
closed = 1;
nodes = (
"154 228 OFFCURVE",
"161 470 OFFCURVE",
"163 710 CURVE",
"30 690 LINE",
"30 664 LINE",
"57 656 OFFCURVE",
"63 650 OFFCURVE",
"63 590 CURVE SMOOTH",
"63 425 OFFCURVE",
"68 191 OFFCURVE",
"60 0 CURVE",
"166 0 LINE"
);
},
{
closed = 1;
nodes = (
"251 232 LINE",
"310 174 OFFCURVE",
"299 114 OFFCURVE",
"296 0 CURVE",
"417 0 LINE",
"417 30 LINE",
"390 47 OFFCURVE",
"394 87 OFFCURVE",
"383 208 CURVE SMOOTH",
"380 241 OFFCURVE",
"337 268 OFFCURVE",
"312 301 CURVE"
);
}
);
width = 447;
}
);
note = k;
rightMetricsKey = n;
unicode = 006B;
},
{
color = 4;
glyphname = l;
lastChange = "2019-04-23 14:01:23 +0000";
layers = (
{
layerId = "E35B076F-D533-4C92-BAB9-D65BCB0F4FA2";
paths = (
{
closed = 1;
nodes = (
"166 97 OFFCURVE",
"147 110 OFFCURVE",
"147 160 CURVE SMOOTH",
"147 258 OFFCURVE",
"152 633 OFFCURVE",
"158 710 CURVE",
"157 714 LINE",
"15 694 LINE",
"15 664 LINE",
"43 659 OFFCURVE",
"52 643 OFFCURVE",
"53 586 CURVE SMOOTH",
"54 510 OFFCURVE",
"58 353 OFFCURVE",
"52 71 CURVE",
"71 53 OFFCURVE",
"100 26 OFFCURVE",
"139 -10 CURVE",
"180 21 OFFCURVE",
"199 42 OFFCURVE",
"218 57 CURVE",
"218 77 LINE"
);
}
);
width = 228;
}
);
note = l;
unicode = 006C;
},
{
color = 4;
glyphname = l_hook;
lastChange = "2019-04-23 14:01:23 +0000";
layers = (
{
layerId = "E35B076F-D533-4C92-BAB9-D65BCB0F4FA2";
paths = (
{
closed = 1;
nodes = (
"235 418 OFFCURVE",
"392 525 OFFCURVE",
"392 578 CURVE SMOOTH",
"392 631 OFFCURVE",
"353 711 OFFCURVE",
"317 711 CURVE SMOOTH",
"267 711 OFFCURVE",
"177 644 OFFCURVE",
"107 591 CURVE",
"127 579 LINE",
"225 653 OFFCURVE",
"307 633 OFFCURVE",
"307 579 CURVE SMOOTH",
"307 503 OFFCURVE",
"227 449 OFFCURVE",
"122 373 CURVE",
"126 338 LINE"
);
},
{
closed = 1;
nodes = (
"170 67 OFFCURVE",
"148 103 OFFCURVE",
"148 143 CURVE SMOOTH",
"148 221 OFFCURVE",
"161 623 OFFCURVE",
"158 700 CURVE",
"157 704 LINE",
"25 674 LINE",
"25 664 LINE",
"36 661 OFFCURVE",
"43 612 OFFCURVE",
"45 597 CURVE SMOOTH",
"55 521 OFFCURVE",
"59 362 OFFCURVE",
"45 80 CURVE SMOOTH",
"44 60 OFFCURVE",
"90 -10 OFFCURVE",
"140 -10 CURVE",
"145 -10 LINE SMOOTH",
"174 -10 OFFCURVE",
"229 36 OFFCURVE",
"278 69 CURVE",
"267 90 LINE"
);
}
);
width = 302;
}
);
},
{
color = 4;
glyphname = l_i;
lastChange = "2019-04-24 17:25:05 +0000";
layers = (
{
layerId = "E35B076F-D533-4C92-BAB9-D65BCB0F4FA2";
paths = (
{
closed = 1;
nodes = (
"258 113 OFFCURVE",
"200 90 OFFCURVE",
"170 90 CURVE SMOOTH",
"145 90 OFFCURVE",
"138 113 OFFCURVE",
"138 153 CURVE SMOOTH",
"138 231 OFFCURVE",
"151 623 OFFCURVE",
"148 700 CURVE",
"147 704 LINE",
"15 674 LINE",
"15 664 LINE",
"26 661 OFFCURVE",
"33 612 OFFCURVE",
"35 597 CURVE SMOOTH",
"45 521 OFFCURVE",
"49 362 OFFCURVE",
"35 80 CURVE SMOOTH",
"34 60 OFFCURVE",
"100 -10 OFFCURVE",
"110 -10 CURVE",
"115 -10 LINE",
"291 98 LINE",
"281 142 LINE"
);
},
{
closed = 1;
nodes = (
"270 47 OFFCURVE",
"323 -10 OFFCURVE",
"333 -10 CURVE",
"335 -10 LINE",
"420 50 LINE",
"413 79 LINE",
"391 79 OFFCURVE",
"383 90 OFFCURVE",
"381 104 CURVE SMOOTH",
"377 131 OFFCURVE",
"371 290 OFFCURVE",
"393 412 CURVE",
"322 465 LINE",
"320 465 LINE",
"232 405 LINE",
"239 382 LINE",
"275 377 OFFCURVE",
"284 370 OFFCURVE",
"282 330 CURVE SMOOTH",
"271 57 LINE"
);
},
{
closed = 1;
nodes = (
"313 549 LINE",
"337 544 LINE",
"398 667 LINE",
"348 672 LINE"
);
}
);
width = 444;
}
);
note = l_i;
},
{
color = 4;
glyphname = l_u;
lastChange = "2019-04-24 17:25:05 +0000";
layers = (
{
layerId = "E35B076F-D533-4C92-BAB9-D65BCB0F4FA2";
paths = (
{
closed = 1;
nodes = (
"213 99 OFFCURVE",
"170 100 OFFCURVE",
"144 110 CURVE",
"130 130 OFFCURVE",
"119 181 OFFCURVE",
"119 294 CURVE SMOOTH",
"119 443 OFFCURVE",
"128 612 OFFCURVE",
"135 700 CURVE",
"134 704 LINE",
"15 694 LINE",
"30 579 OFFCURVE",
"18 324 OFFCURVE",
"21 119 CURVE",
"111 -10 LINE",
"134 -10 LINE",
"281 91 LINE",
"271 124 LINE"
);
},
{
closed = 1;
nodes = (
"508 206 OFFCURVE",
"505 142 OFFCURVE",
"497 79 CURVE",
"515 55 OFFCURVE",
"534 30 OFFCURVE",
"558 -10 CURVE",
"648 50 LINE",
"643 80 LINE",
"609 99 OFFCURVE",
"607 118 OFFCURVE",
"607 205 CURVE SMOOTH",
"607 290 OFFCURVE",
"612 346 OFFCURVE",
"620 397 CURVE",
"609 417 OFFCURVE",
"546 455 OFFCURVE",
"526 465 CURVE",
"524 465 LINE",
"437 375 LINE",
"448 356 LINE",
"498 374 OFFCURVE",
"508 322 OFFCURVE",
"508 269 CURVE SMOOTH"
);
},
{
closed = 1;
nodes = (
"516 118 LINE",
"478 98 OFFCURVE",
"447 90 OFFCURVE",
"422 90 CURVE SMOOTH",
"395 90 OFFCURVE",
"374 91 OFFCURVE",
"366 106 CURVE",
"364 213 OFFCURVE",
"363 341 OFFCURVE",
"372 399 CURVE",
"357 420 OFFCURVE",
"317 449 OFFCURVE",
"282 466 CURVE",
"280 466 LINE",
"215 424 OFFCURVE",
"160 362 OFFCURVE",
"95 320 CURVE",
"95 303 LINE",
"115 301 LINE",
"145 325 OFFCURVE",
"216 365 OFFCURVE",
"264 365 CURVE",
"270 301 OFFCURVE",
"263 124 OFFCURVE",
"263 60 CURVE",
"283 44 OFFCURVE",
"337 -10 OFFCURVE",
"369 -10 CURVE",
"402 19 OFFCURVE",
"464 55 OFFCURVE",
"517 84 CURVE"
);
}
);
width = 666;
}
);
leftMetricsKey = l;
note = l_u;
rightMetricsKey = u;
},
{
color = 4;
glyphname = m;
lastChange = "2019-04-24 17:25:05 +0000";
layers = (
{
layerId = "E35B076F-D533-4C92-BAB9-D65BCB0F4FA2";
paths = (
{
closed = 1;
nodes = (
"155 319 LINE",
"177 337 OFFCURVE",
"210 351 OFFCURVE",
"237 351 CURVE SMOOTH",
"267 351 OFFCURVE",
"310 343 OFFCURVE",
"310 304 CURVE SMOOTH",
"310 200 OFFCURVE",
"306 96 OFFCURVE",
"303 0 CURVE",
"416 0 LINE",
"411 137 OFFCURVE",
"405 304 OFFCURVE",
"418 404 CURVE",
"415 424 OFFCURVE",
"329 465 OFFCURVE",
"309 465 CURVE",
"258 425 OFFCURVE",
"206 389 OFFCURVE",
"155 359 CURVE"
);
},
{
closed = 1;
nodes = (
"163 296 OFFCURVE",
"171 353 OFFCURVE",
"181 414 CURVE",
"156 436 OFFCURVE",
"132 448 OFFCURVE",
"107 466 CURVE",
"106 466 LINE",
"25 408 LINE",
"25 378 LINE",
"55 378 OFFCURVE",
"62 366 OFFCURVE",
"62 336 CURVE SMOOTH",
"62 225 OFFCURVE",
"59 111 OFFCURVE",
"55 0 CURVE",
"172 0 LINE",
"165 87 OFFCURVE",
"163 135 OFFCURVE",
"163 223 CURVE SMOOTH"
);
},
{
closed = 1;
nodes = (
"406 325 LINE",
"429 337 OFFCURVE",
"456 351 OFFCURVE",
"489 351 CURVE SMOOTH",
"521 351 OFFCURVE",
"552 334 OFFCURVE",
"552 306 CURVE SMOOTH",
"552 221 OFFCURVE",
"547 74 OFFCURVE",
"545 -7 CURVE",
"677 28 LINE",
"677 57 LINE",
"660 67 OFFCURVE",
"655 79 OFFCURVE",
"654 113 CURVE SMOOTH",
"651 208 OFFCURVE",
"648 315 OFFCURVE",
"653 400 CURVE",
"653 420 OFFCURVE",
"573 465 OFFCURVE",
"553 465 CURVE",
"406 361 LINE"
);
}
);
width = 707;
}
);
leftMetricsKey = n;
note = m;
rightMetricsKey = n;
unicode = 006D;
},
{
color = 4;
glyphname = m_macr;
lastChange = "2019-04-23 14:01:23 +0000";
layers = (
{
components = (
{
alignment = -1;
name = m;
}
);
layerId = "E35B076F-D533-4C92-BAB9-D65BCB0F4FA2";
paths = (
{
closed = 1;
nodes = (
"506.667 549.082 LINE",
"573 634 LINE",
"558 640 LINE",
"508 629 OFFCURVE",
"359 631 OFFCURVE",
"266.77 631.269 CURVE",
"231.757 604.885 OFFCURVE",
"194.363 568.737 OFFCURVE",
"170.398 534.742 CURVE",
"190.22 524.887 LINE",
"224.922 563.433 OFFCURVE",
"309.914 564.616 OFFCURVE",
"373.847 559.67 CURVE SMOOTH"
);
}
);
width = 674;
}
);
note = m_macr;
unicode = E5B8;
},
{
color = 4;
glyphname = n;
lastChange = "2019-04-24 17:25:05 +0000";
layers = (
{
layerId = "E35B076F-D533-4C92-BAB9-D65BCB0F4FA2";
paths = (
{
closed = 1;
nodes = (
"150 330 LINE",
"173 342 OFFCURVE",
"197 354 OFFCURVE",
"232 354 CURVE SMOOTH",
"262 354 OFFCURVE",
"287 330 OFFCURVE",
"287 269 CURVE SMOOTH",
"287 176 OFFCURVE",
"285 100 OFFCURVE",
"277 0 CURVE",
"283 -3 LINE",
"412 20 LINE",
"412 57 LINE",
"396 66 OFFCURVE",
"391 81 OFFCURVE",
"390 111 CURVE SMOOTH",
"387 206 OFFCURVE",
"382 300 OFFCURVE",
"390 386 CURVE",
"390 406 OFFCURVE",
"350 445 OFFCURVE",
"297 465 CURVE",
"150 365 LINE"
);
},
{
closed = 1;
nodes = (
"146 412 OFFCURVE",
"126 441 OFFCURVE",
"105 465 CURVE",
"25 395 LINE",
"25 365 LINE",
"47 365 OFFCURVE",
"62 345 OFFCURVE",
"62 325 CURVE SMOOTH",
"62 205 OFFCURVE",
"57 111 OFFCURVE",
"52 0 CURVE",
"165 0 LINE",
"158 125 OFFCURVE",
"163 250 OFFCURVE",
"166 375 CURVE"
);
}
);
width = 442;
}
);
note = n;
unicode = 006E;
},
{
color = 4;
glyphname = n_macr;
lastChange = "2019-04-24 17:25:05 +0000";
layers = (
{
components = (
{
alignment = -1;
name = n;
}
);
layerId = "E35B076F-D533-4C92-BAB9-D65BCB0F4FA2";
paths = (
{
closed = 1;
nodes = (
"349 566 LINE",
"386 640 LINE",
"385 646 LINE",
"165 646 LINE",
"130 620 OFFCURVE",
"67 584 OFFCURVE",
"43 550 CURVE",
"63 540 LINE",
"97 578 OFFCURVE",
"182 580 OFFCURVE",
"246 574 CURVE SMOOTH"
);
}
);
width = 442;
}
);
note = n_macr;
unicode = E5DC;
},
{
color = 4;
glyphname = n_i;
lastChange = "2019-04-23 14:01:23 +0000";
layers = (
{
components = (
{
name = m;
}
);
layerId = "E35B076F-D533-4C92-BAB9-D65BCB0F4FA2";
paths = (
{
closed = 1;
nodes = (
"538 600 LINE",
"568 582 LINE",
"632 680 LINE",
"584 700 LINE"
);
}
);
width = 702;
}
);
leftMetricsKey = n;
rightMetricsKey = i;
},
{
color = 4;
glyphname = o;
lastChange = "2019-04-24 17:25:05 +0000";
layers = (
{
layerId = "E35B076F-D533-4C92-BAB9-D65BCB0F4FA2";
paths = (
{
closed = 1;
nodes = (
"354 68 OFFCURVE",
"451 108 OFFCURVE",
"451 258 CURVE SMOOTH",
"451 358 OFFCURVE",
"364 465 OFFCURVE",
"226 465 CURVE",
"128 440 OFFCURVE",
"25 327 OFFCURVE",
"25 217 CURVE SMOOTH",
"25 107 OFFCURVE",
"104 1 OFFCURVE",
"265 -10 CURVE"
);
},
{
closed = 1;
nodes = (
"195 82 OFFCURVE",
"106 161 OFFCURVE",
"106 271 CURVE SMOOTH",
"106 310 OFFCURVE",
"123 362 OFFCURVE",
"158 380 CURVE",
"272 393 OFFCURVE",
"371 307 OFFCURVE",
"371 217 CURVE SMOOTH",
"371 157 OFFCURVE",
"347 112 OFFCURVE",
"306 83 CURVE"
);
}
);
width = 476;
}
);
note = o;
unicode = 006F;
},
{
color = 4;
glyphname = o_r;
lastChange = "2019-04-24 17:25:05 +0000";
layers = (
{
components = (
{
name = o;
transform = "{1, 0, 0, 1, 5, 0}";
}
);
layerId = "E35B076F-D533-4C92-BAB9-D65BCB0F4FA2";
paths = (
{
closed = 1;
nodes = (
"700 83 LINE",
"678 104 LINE",
"669 95 OFFCURVE",
"658 87 OFFCURVE",
"643 87 CURVE SMOOTH",
"612 87 OFFCURVE",
"573 109 OFFCURVE",
"544 136 CURVE",
"611 213 OFFCURVE",
"703 300 OFFCURVE",
"707 348 CURVE SMOOTH",
"713 418 OFFCURVE",
"647 459 OFFCURVE",
"568 468 CURVE SMOOTH",
"559 469 LINE",
"420 363 LINE",
"436 330 LINE",
"451 343 OFFCURVE",
"486 370 OFFCURVE",
"525 370 CURVE SMOOTH",
"555 370 OFFCURVE",
"596 349 OFFCURVE",
"593 306 CURVE SMOOTH",
"590 266 OFFCURVE",
"576 216 OFFCURVE",
"463 103 CURVE",
"462 98 LINE",
"508 51 OFFCURVE",
"532 20 OFFCURVE",
"595 -10 CURVE"
);
}
);
width = 717;
}
);
leftMetricsKey = e;
note = o_r.alt;
rightMetricsKey = r.ss01;
},
{
color = 4;
glyphname = p;
lastChange = "2019-04-24 17:25:05 +0000";
layers = (
{
layerId = "E35B076F-D533-4C92-BAB9-D65BCB0F4FA2";
paths = (
{
closed = 1;
nodes = (
"177 -96 OFFCURVE",
"167 214 OFFCURVE",
"180 366 CURVE",
"167 386 OFFCURVE",
"137 454 OFFCURVE",
"109 472 CURVE",
"25 399 LINE",
"25 359 LINE",
"57 376 OFFCURVE",
"72 363 OFFCURVE",
"72 333 CURVE SMOOTH",
"72 139 OFFCURVE",
"71 -56 OFFCURVE",
"62 -250 CURVE",
"180 -243 LINE"
);
},
{
closed = 1;
nodes = (
"156 4 LINE",
"310 0 LINE",
"358 40 OFFCURVE",
"502 133 OFFCURVE",
"502 243 CURVE SMOOTH",
"502 354 OFFCURVE",
"441 433 OFFCURVE",
"305 465 CURVE",
"163 351 LINE",
"164 309 LINE",
"194 333 OFFCURVE",
"222 358 OFFCURVE",
"285 358 CURVE SMOOTH",
"357 358 OFFCURVE",
"419 291 OFFCURVE",
"419 210 CURVE SMOOTH",
"419 133 OFFCURVE",
"361 73 OFFCURVE",
"276 73 CURVE SMOOTH",
"228 73 OFFCURVE",
"194 81 OFFCURVE",
"156 84 CURVE"
);
}
);
width = 527;
}
);
leftMetricsKey = n;
note = p;
rightMetricsKey = o;
unicode = 0070;
},
{
color = 4;
glyphname = p_bardes;
lastChange = "2019-04-24 17:25:05 +0000";
layers = (
{
components = (
{
name = p;
}
);
layerId = "E35B076F-D533-4C92-BAB9-D65BCB0F4FA2";
paths = (
{
closed = 1;
nodes = (
"2 -137 LINE",
"12 -148 LINE",
"137 -149 OFFCURVE",
"274 -158 OFFCURVE",
"399 -173 CURVE",
"412 -150 OFFCURVE",
"427 -127 OFFCURVE",
"446 -104 CURVE",
"446 -99 LINE",
"42 -92 LINE"
);
},
{
closed = 1;
nodes = (
"-4 38 LINE",
"1 21 LINE",
"150 7 LINE",
"117 99 LINE"
);
}
);
width = 514;
}
);
note = per;
unicode = A750;
},
{
color = 4;
glyphname = p_hook;
lastChange = "2019-04-23 14:01:23 +0000";
layers = (
{
components = (
{
name = p;
}
);
layerId = "E35B076F-D533-4C92-BAB9-D65BCB0F4FA2";
paths = (
{
closed = 1;
nodes = (
"217 485 OFFCURVE",
"309 525 OFFCURVE",
"309 599 CURVE SMOOTH",
"309 648 OFFCURVE",
"260 686 OFFCURVE",
"210 686 CURVE",
"145 634 LINE",
"148 618 LINE",
"185 618 OFFCURVE",
"233 606 OFFCURVE",
"233 559 CURVE SMOOTH",
"233 521 OFFCURVE",
"210 508 OFFCURVE",
"174 482 CURVE",
"183 469 LINE"
);
}
);
width = 514;
}
);
},
{
color = 4;
glyphname = p_macr;
lastChange = "2019-04-24 17:25:05 +0000";
layers = (
{
layerId = "E35B076F-D533-4C92-BAB9-D65BCB0F4FA2";
paths = (
{
closed = 1;
nodes = (
"382 544 LINE",
"468 657 LINE",
"430 662 LINE",
"409 616 OFFCURVE",
"340 629 OFFCURVE",
"262 617 CURVE",
"231 586 OFFCURVE",
"190 552 OFFCURVE",
"151 516 CURVE",
"172 501 LINE",
"229 544 OFFCURVE",
"253 548 OFFCURVE",
"317 546 CURVE SMOOTH"
);
},
{
closed = 1;
nodes = (
"156 4 LINE",
"310 0 LINE",
"358 40 OFFCURVE",
"502 133 OFFCURVE",
"502 243 CURVE SMOOTH",
"502 354 OFFCURVE",
"441 433 OFFCURVE",
"305 465 CURVE",
"163 351 LINE",
"164 309 LINE",
"194 333 OFFCURVE",
"222 358 OFFCURVE",
"285 358 CURVE SMOOTH",
"357 358 OFFCURVE",
"419 291 OFFCURVE",
"419 210 CURVE SMOOTH",
"419 133 OFFCURVE",
"361 73 OFFCURVE",
"276 73 CURVE SMOOTH",
"228 73 OFFCURVE",
"194 81 OFFCURVE",
"156 84 CURVE"
);
},
{
closed = 1;
nodes = (
"67 396 OFFCURVE",
"72 382 OFFCURVE",
"72 352 CURVE SMOOTH",
"72 168 OFFCURVE",
"68 10 OFFCURVE",
"63 -176 CURVE SMOOTH",
"62 -215 OFFCURVE",
"62 -215 OFFCURVE",
"40 -230 CURVE",
"35 -256 LINE",
"242 -263 LINE",
"252 -227 LINE",
"180 -225 LINE",
"176 -68 OFFCURVE",
"167 299 OFFCURVE",
"180 446 CURVE",
"25 438 LINE",
"25 398 LINE"
);
}
);
width = 527;
}
);
leftMetricsKey = p;
note = p_macr;
rightMetricsKey = p;
unicode = E665;
},
{
color = 4;
glyphname = p_p;
lastChange = "2019-04-24 17:25:05 +0000";
layers = (
{
layerId = "E35B076F-D533-4C92-BAB9-D65BCB0F4FA2";
paths = (
{
closed = 1;
nodes = (
"466 -96 OFFCURVE",
"456 214 OFFCURVE",
"469 366 CURVE",
"456 386 OFFCURVE",
"438 454 OFFCURVE",
"428 472 CURVE",
"406 474 LINE",
"178 334 LINE",
"178 294 LINE",
"224 343 OFFCURVE",
"326 353 OFFCURVE",
"361 333 CURVE",
"361 139 OFFCURVE",
"360 -56 OFFCURVE",
"351 -250 CURVE",
"469 -243 LINE"
);
},
{
closed = 1;
nodes = (
"25 29 LINE",
"27 14 LINE",
"218 17 OFFCURVE",
"408 5 OFFCURVE",
"599 -10 CURVE",
"647 30 OFFCURVE",
"791 133 OFFCURVE",
"791 243 CURVE SMOOTH",
"791 354 OFFCURVE",
"730 433 OFFCURVE",
"594 465 CURVE",
"452 351 LINE",
"453 309 LINE",
"483 333 OFFCURVE",
"511 358 OFFCURVE",
"574 358 CURVE SMOOTH",
"646 358 OFFCURVE",
"708 291 OFFCURVE",
"708 210 CURVE SMOOTH",
"708 133 OFFCURVE",
"650 74 OFFCURVE",
"565 73 CURVE SMOOTH",
"430 71 OFFCURVE",
"265 83 OFFCURVE",
"97 84 CURVE"
);
},
{
closed = 1;
nodes = (
"206 -88 OFFCURVE",
"196 222 OFFCURVE",
"209 374 CURVE",
"196 394 OFFCURVE",
"166 462 OFFCURVE",
"138 480 CURVE",
"54 407 LINE",
"54 367 LINE",
"86 384 OFFCURVE",
"101 371 OFFCURVE",
"101 341 CURVE SMOOTH",
"101 147 OFFCURVE",
"100 -48 OFFCURVE",
"91 -242 CURVE",
"209 -235 LINE"
);
}
);
width = 816;
}
);
leftMetricsKey = p;
note = p_p;
rightMetricsKey = p;
unicode = EED6;
},
{
color = 4;
glyphname = p_p_flour;
lastChange = "2019-04-23 14:01:23 +0000";
layers = (
{
components = (
{
name = p_p;
transform = "{1, 0, 0, 1, 78, -1}";
}
);
layerId = "E35B076F-D533-4C92-BAB9-D65BCB0F4FA2";
paths = (
{
closed = 1;
nodes = (
"108 89 OFFCURVE",
"25 36 OFFCURVE",
"25 -20 CURVE SMOOTH",
"25 -79 OFFCURVE",
"65 -112 OFFCURVE",
"35 -192 CURVE",
"60 -200 LINE",
"88 -119 OFFCURVE",
"81 -84 OFFCURVE",
"81 -34 CURVE SMOOTH",
"81 18 OFFCURVE",
"135 16 OFFCURVE",
"202 11 CURVE",
"184 88 LINE"
);
}
);
width = 894;
}
);
leftMetricsKey = p;
rightMetricsKey = p;
},
{
color = 4;
glyphname = p_r;
lastChange = "2019-04-23 14:01:23 +0000";
layers = (
{
components = (
{
name = p;
}
);
layerId = "E35B076F-D533-4C92-BAB9-D65BCB0F4FA2";
paths = (
{
closed = 1;
nodes = (
"727 90 LINE",
"703 110 LINE",
"694 100 OFFCURVE",
"683 102 OFFCURVE",
"677 102 CURVE SMOOTH",
"637 102 OFFCURVE",
"607 126 OFFCURVE",
"578 150 CURVE",
"630 218 OFFCURVE",
"736 312 OFFCURVE",
"736 360 CURVE SMOOTH",
"736 430 OFFCURVE",
"678 465 OFFCURVE",
"598 465 CURVE SMOOTH",
"589 465 LINE",
"468 331 LINE",
"486 298 LINE",
"501 313 OFFCURVE",
"536 359 OFFCURVE",
"567 359 CURVE SMOOTH",
"596 359 OFFCURVE",
"629 343 OFFCURVE",
"629 303 CURVE SMOOTH",
"629 263 OFFCURVE",
"583 204 OFFCURVE",
"478 108 CURVE",
"477 102 LINE",
"527 59 OFFCURVE",
"564 16 OFFCURVE",
"629 -10 CURVE"
);
}
);
width = 746;
}
);
leftMetricsKey = p;
rightMetricsKey = r.ss01;
},
{
color = 4;
glyphname = q;
lastChange = "2019-04-24 17:25:05 +0000";
layers = (
{
layerId = "E35B076F-D533-4C92-BAB9-D65BCB0F4FA2";
paths = (
{
closed = 1;
nodes = (
"351 144 OFFCURVE",
"350 -80 OFFCURVE",
"337 -260 CURVE",
"342 -265 LINE",
"457 -223 LINE",
"450 -24 OFFCURVE",
"450 176 OFFCURVE",
"457 375 CURVE",
"397 399 OFFCURVE",
"337 438 OFFCURVE",
"267 468 CURVE",
"172 428 OFFCURVE",
"25 314 OFFCURVE",
"25 177 CURVE SMOOTH",
"25 87 OFFCURVE",
"72 9 OFFCURVE",
"192 -10 CURVE",
"357 94 LINE",
"353 185 LINE",
"339 109 OFFCURVE",
"270 85 OFFCURVE",
"228 85 CURVE SMOOTH",
"148 85 OFFCURVE",
"110 162 OFFCURVE",
"110 232 CURVE SMOOTH",
"110 312 OFFCURVE",
"167 375 OFFCURVE",
"236 375 CURVE SMOOTH",
"276 375 OFFCURVE",
"334 351 OFFCURVE",
"353 324 CURVE"
);
}
);
width = 477;
}
);
leftMetricsKey = o;
note = q;
unicode = 0071;
},
{
color = 4;
glyphname = q_etfin;
lastChange = "2019-04-24 17:25:05 +0000";
layers = (
{
components = (
{
name = q;
}
);
layerId = "E35B076F-D533-4C92-BAB9-D65BCB0F4FA2";
paths = (
{
closed = 1;
nodes = (
"220 -214 CURVE",
"237 -253 LINE",
"428 -178 OFFCURVE",
"595 -106 OFFCURVE",
"672 -34 CURVE",
"696 10 OFFCURVE",
"708 95 OFFCURVE",
"697 132 CURVE",
"666 173 OFFCURVE",
"623 199 OFFCURVE",
"586 222 CURVE",
"585 202 LINE",
"640 264 OFFCURVE",
"675 299 OFFCURVE",
"730 342 CURVE",
"730 363 LINE",
"664 389 OFFCURVE",
"608 432 OFFCURVE",
"560 465 CURVE",
"555 465 LINE",
"511 428 OFFCURVE",
"467 396 OFFCURVE",
"425 367 CURVE",
"438 341 LINE",
"475 366 LINE",
"519 339 OFFCURVE",
"613 304 OFFCURVE",
"638 283 CURVE",
"637 309 LINE",
"581 234 OFFCURVE",
"483 165 OFFCURVE",
"397 90 CURVE",
"417 68 LINE",
"454 97 OFFCURVE",
"477 119 OFFCURVE",
"514 130 CURVE",
"560 136 OFFCURVE",
"613 105 OFFCURVE",
"613 42 CURVE SMOOTH",
"613 -47 OFFCURVE",
"496 -123 OFFCURVE"
);
}
);
width = 779;
}
);
leftMetricsKey = q;
note = q_z;
},
{
color = 4;
glyphname = q_etfin_macr;
lastChange = "2019-04-23 14:01:23 +0000";
layers = (
{
components = (
{
name = q_etfin;
}
);
layerId = "E35B076F-D533-4C92-BAB9-D65BCB0F4FA2";
paths = (
{
closed = 1;
nodes = (
"651 579 LINE",
"677 658 LINE",
"675 664 LINE",
"402 627 LINE",
"371 596 OFFCURVE",
"339 535 OFFCURVE",
"320 498 CURVE",
"341 491 LINE",
"370 534 OFFCURVE",
"435 567 OFFCURVE",
"518 571 CURVE SMOOTH"
);
}
);
width = 744;
}
);
leftMetricsKey = q;
rightMetricsKey = etfin;
},
{
color = 4;
glyphname = q_etfin_ra;
lastChange = "2019-04-23 14:01:23 +0000";
layers = (
{
components = (
{
name = q_etfin;
}
);
layerId = "E35B076F-D533-4C92-BAB9-D65BCB0F4FA2";
paths = (
{
closed = 1;
nodes = (
"212 654 OFFCURVE",
"277 692 OFFCURVE",
"315 714 CURVE",
"339 703 LINE",
"295 670 OFFCURVE",
"327 621 OFFCURVE",
"363 621 CURVE SMOOTH",
"398 621 OFFCURVE",
"439 662 OFFCURVE",
"465 703 CURVE",
"496 696 LINE",
"448 617 OFFCURVE",
"525 595 OFFCURVE",
"595 653 CURVE",
"609 631 LINE",
"571 602 OFFCURVE",
"529 561 OFFCURVE",
"490 536 CURVE",
"443 557 OFFCURVE",
"411 601 OFFCURVE",
"411 621 CURVE",
"474 670 LINE",
"433 626 OFFCURVE",
"369 566 OFFCURVE",
"303 548 CURVE",
"248 564 OFFCURVE",
"223 628 OFFCURVE",
"212 649 CURVE"
);
}
);
width = 779;
}
);
leftMetricsKey = q;
},
{
color = 4;
glyphname = q_ra;
lastChange = "2019-04-23 14:01:23 +0000";
layers = (
{
components = (
{
name = q;
}
);
layerId = "E35B076F-D533-4C92-BAB9-D65BCB0F4FA2";
paths = (
{
closed = 1;
nodes = (
"75 654 OFFCURVE",
"140 692 OFFCURVE",
"178 714 CURVE",
"202 703 LINE",
"158 670 OFFCURVE",
"190 621 OFFCURVE",
"226 621 CURVE SMOOTH",
"261 621 OFFCURVE",
"302 662 OFFCURVE",
"328 703 CURVE",
"359 696 LINE",
"311 617 OFFCURVE",
"388 595 OFFCURVE",
"458 653 CURVE",
"472 631 LINE",
"434 602 OFFCURVE",
"392 561 OFFCURVE",
"353 536 CURVE",
"306 557 OFFCURVE",
"274 601 OFFCURVE",
"274 621 CURVE",
"337 670 LINE",
"296 626 OFFCURVE",
"232 566 OFFCURVE",
"166 548 CURVE",
"111 564 OFFCURVE",
"86 628 OFFCURVE",
"75 649 CURVE"
);
}
);
width = 477;
}
);
leftMetricsKey = q;
},
{
color = 4;
glyphname = q_strok;
lastChange = "2019-04-24 17:24:58 +0000";
layers = (
{
components = (
{
name = q;
}
);
layerId = "E35B076F-D533-4C92-BAB9-D65BCB0F4FA2";
paths = (
{
closed = 1;
nodes = (
"449 281 LINE",
"485 322 OFFCURVE",
"511 329 OFFCURVE",
"541 329 CURVE SMOOTH",
"579 329 OFFCURVE",
"639 284 OFFCURVE",
"639 204 CURVE SMOOTH",
"639 54 OFFCURVE",
"493 -67 OFFCURVE",
"381 -133 CURVE",
"396 -171 LINE",
"621 -33 OFFCURVE",
"732 85 OFFCURVE",
"732 263 CURVE SMOOTH",
"732 373 OFFCURVE",
"651 432 OFFCURVE",
"602 464 CURVE",
"449 338 LINE"
);
}
);
width = 767;
}
);
leftMetricsKey = q;
rightMetricsKey = h;
},
{
color = 4;
glyphname = r;
lastChange = "2019-04-24 17:25:05 +0000";
layers = (
{
background = {
components = (
{
name = n;
transform = "{1, 0, 0, 1, -5, 0}";
}
);
};
guideLines = (
{
angle = 221.2847;
position = "{156, 360}";
}
);
layerId = "E35B076F-D533-4C92-BAB9-D65BCB0F4FA2";
paths = (
{
closed = 1;
nodes = (
"155 388 LINE",
"145 359 LINE",
"206 371 OFFCURVE",
"231 354 OFFCURVE",
"259 313 CURVE",
"274 311 LINE",
"292 337 OFFCURVE",
"311 349 OFFCURVE",
"334 373 CURVE",
"328 419 OFFCURVE",
"293 440 OFFCURVE",
"249 465 CURVE"
);
},
{
closed = 1;
nodes = (
"162 406 OFFCURVE",
"130 451 OFFCURVE",
"120 465 CURVE",
"25 405 LINE",
"25 375 LINE",
"47 368 OFFCURVE",
"62 353 OFFCURVE",
"62 293 CURVE SMOOTH",
"62 219 OFFCURVE",
"58 114 OFFCURVE",
"56 0 CURVE",
"167 0 LINE",
"164 131 OFFCURVE",
"155 324 OFFCURVE",
"162 384 CURVE"
);
}
);
width = 339;
}
);
leftMetricsKey = n;
note = r;
unicode = 0072;
},
{
color = 4;
glyphname = r.ss01;
lastChange = "2019-04-24 17:25:05 +0000";
layers = (
{
layerId = "E35B076F-D533-4C92-BAB9-D65BCB0F4FA2";
paths = (
{
closed = 1;
nodes = (
"292 90 LINE",
"268 110 LINE",
"253 101 OFFCURVE",
"238 94 OFFCURVE",
"222 93 CURVE SMOOTH",
"202 92 OFFCURVE",
"137 124 OFFCURVE",
"108 148 CURVE",
"165 213 OFFCURVE",
"280 307 OFFCURVE",
"280 355 CURVE SMOOTH",
"280 425 OFFCURVE",
"213 467 OFFCURVE",
"133 465 CURVE",
"33 365 LINE",
"50 345 LINE",
"65 358 OFFCURVE",
"87 365 OFFCURVE",
"102 365 CURVE SMOOTH",
"137 365 OFFCURVE",
"170 345 OFFCURVE",
"170 305 CURVE SMOOTH",
"170 265 OFFCURVE",
"134 211 OFFCURVE",
"5 101 CURVE",
"7 90 LINE",
"57 66 OFFCURVE",
"129 26 OFFCURVE",
"194 -10 CURVE"
);
}
);
width = 302;
}
);
note = r.alt;
},
{
color = 4;
glyphname = r_a;
lastChange = "2019-04-23 14:01:23 +0000";
layers = (
{
layerId = "E35B076F-D533-4C92-BAB9-D65BCB0F4FA2";
paths = (
{
closed = 1;
nodes = (
"511 67 LINE SMOOTH",
"511 27 OFFCURVE",
"541 -10 OFFCURVE",
"561 -10 CURVE",
"653 49 LINE",
"653 78 LINE",
"651 79 LINE",
"624 72 OFFCURVE",
"611 96 OFFCURVE",
"611 145 CURVE SMOOTH",
"611 403 LINE",
"591 433 OFFCURVE",
"517 465 OFFCURVE",
"487 465 CURVE",
"357 382 LINE",
"334 412 OFFCURVE",
"311 439 OFFCURVE",
"286 465 CURVE",
"281 465 LINE",
"165 364 LINE",
"165 410 OFFCURVE",
"149 445 OFFCURVE",
"113 465 CURVE",
"112 465 LINE",
"25 405 LINE",
"32 365 LINE",
"56 365 OFFCURVE",
"66 350 OFFCURVE",
"66 323 CURVE SMOOTH",
"66 0 LINE",
"168 0 LINE",
"164 106 OFFCURVE",
"166 209 OFFCURVE",
"166 315 CURVE",
"212 353 OFFCURVE",
"243 344 OFFCURVE",
"281 288 CURVE",
"283 287 LINE",
"324 328 OFFCURVE",
"392 378 OFFCURVE",
"434 378 CURVE SMOOTH",
"467 378 OFFCURVE",
"509 365 OFFCURVE",
"510 319 CURVE SMOOTH"
);
},
{
closed = 1;
nodes = (
"519 300 LINE",
"255 145 LINE",
"289 93 OFFCURVE",
"326 17 OFFCURVE",
"345 -6 CURVE",
"403 20 OFFCURVE",
"461 52 OFFCURVE",
"519 88 CURVE",
"520 125 LINE",
"485 101 OFFCURVE",
"455 90 OFFCURVE",
"420 84 CURVE",
"396 102 OFFCURVE",
"367 137 OFFCURVE",
"360 171 CURVE",
"414 207 OFFCURVE",
"465 238 OFFCURVE",
"519 268 CURVE"
);
}
);
width = 678;
}
);
leftMetricsKey = r;
rightMetricsKey = a;
},
{
color = 4;
glyphname = r_e;
lastChange = "2019-04-24 17:25:05 +0000";
layers = (
{
components = (
{
alignment = -1;
name = e;
transform = "{1, 0, 0, 1, 265, 0}";
}
);
layerId = "E35B076F-D533-4C92-BAB9-D65BCB0F4FA2";
paths = (
{
closed = 1;
nodes = (
"155 375 LINE",
"145 346 LINE",
"206 358 OFFCURVE",
"214 320 OFFCURVE",
"232 289 CURVE",
"247 287 LINE",
"282 313 OFFCURVE",
"312 329 OFFCURVE",
"335 353 CURVE",
"309 399 OFFCURVE",
"274 440 OFFCURVE",
"250 465 CURVE"
);
},
{
closed = 1;
nodes = (
"162 393 OFFCURVE",
"130 449 OFFCURVE",
"120 463 CURVE",
"25 403 LINE",
"25 373 LINE",
"47 366 OFFCURVE",
"62 351 OFFCURVE",
"62 291 CURVE SMOOTH",
"62 217 OFFCURVE",
"58 112 OFFCURVE",
"56 -2 CURVE",
"167 -2 LINE",
"164 129 OFFCURVE",
"155 311 OFFCURVE",
"162 371 CURVE"
);
}
);
width = 633;
}
);
leftMetricsKey = r;
note = r_e;
rightMetricsKey = e;
},
{
color = 4;
glyphname = r_o;
lastChange = "2019-04-23 14:01:23 +0000";
layers = (
{
components = (
{
name = o;
transform = "{1, 0, 0, 1, 248, 0}";
}
);
layerId = "E35B076F-D533-4C92-BAB9-D65BCB0F4FA2";
paths = (
{
closed = 1;
nodes = (
"155 375 LINE",
"145 346 LINE",
"206 358 OFFCURVE",
"214 320 OFFCURVE",
"232 289 CURVE",
"247 287 LINE",
"282 313 OFFCURVE",
"312 329 OFFCURVE",
"335 353 CURVE",
"309 399 OFFCURVE",
"274 440 OFFCURVE",
"250 465 CURVE"
);
},
{
closed = 1;
nodes = (
"162 393 OFFCURVE",
"130 449 OFFCURVE",
"120 463 CURVE",
"25 403 LINE",
"25 373 LINE",
"47 366 OFFCURVE",
"62 351 OFFCURVE",
"62 291 CURVE SMOOTH",
"62 217 OFFCURVE",
"58 112 OFFCURVE",
"56 -2 CURVE",
"167 -2 LINE",
"164 129 OFFCURVE",
"155 311 OFFCURVE",
"162 371 CURVE"
);
}
);
width = 724;
}
);
leftMetricsKey = r;
rightMetricsKey = o;
},
{
color = 4;
glyphname = s;
lastChange = "2019-04-23 14:53:43 +0000";
layers = (
{
layerId = "E35B076F-D533-4C92-BAB9-D65BCB0F4FA2";
paths = (
{
closed = 1;
nodes = (
"332 29 OFFCURVE",
"430 62 OFFCURVE",
"430 172 CURVE SMOOTH",
"430 247 OFFCURVE",
"368 274 OFFCURVE",
"312 302 CURVE",
"273 279 OFFCURVE",
"253 259 OFFCURVE",
"206 248 CURVE",
"161 248 OFFCURVE",
"120 276 OFFCURVE",
"120 317 CURVE SMOOTH",
"120 378 OFFCURVE",
"160 398 OFFCURVE",
"181 404 CURVE",
"208 404 OFFCURVE",
"275 367 OFFCURVE",
"310 320 CURVE",
"335 342 OFFCURVE",
"370 377 OFFCURVE",
"415 401 CURVE",
"415 411 LINE",
"366 425 OFFCURVE",
"312 436 OFFCURVE",
"246 463 CURVE",
"221 453 OFFCURVE",
"153 429 OFFCURVE",
"91 414 CURVE",
"61 386 OFFCURVE",
"33 336 OFFCURVE",
"33 282 CURVE SMOOTH",
"33 226 OFFCURVE",
"67 170 OFFCURVE",
"122 153 CURVE",
"157 181 OFFCURVE",
"190 201 OFFCURVE",
"221 211 CURVE",
"280 231 OFFCURVE",
"331 187 OFFCURVE",
"331 141 CURVE SMOOTH",
"331 91 OFFCURVE",
"303 52 OFFCURVE",
"249 52 CURVE SMOOTH",
"204 52 OFFCURVE",
"165 79 OFFCURVE",
"133 125 CURVE",
"127 127 LINE",
"30 60 LINE",
"30 55 LINE",
"71 19 OFFCURVE",
"181 -10 OFFCURVE",
"252 -10 CURVE"
);
}
);
width = 460;
}
);
note = s;
unicode = 0073;
},
{
color = 4;
glyphname = s.ss01;
lastChange = "2019-04-23 14:52:05 +0000";
layers = (
{
layerId = "E35B076F-D533-4C92-BAB9-D65BCB0F4FA2";
paths = (
{
closed = 1;
nodes = (
"61 -265 LINE",
"185 -170 OFFCURVE",
"280 -77 OFFCURVE",
"351 -1 CURVE",
"359 131 OFFCURVE",
"241 206 OFFCURVE",
"157 261 CURVE SMOOTH",
"105 295 OFFCURVE",
"87 327 OFFCURVE",
"97 355 CURVE",
"163 369 OFFCURVE",
"237 312 OFFCURVE",
"287 302 CURVE",
"342 363 OFFCURVE",
"391 405 OFFCURVE",
"437 443 CURVE",
"404 464 LINE",
"382 437 OFFCURVE",
"352 407 OFFCURVE",
"320 407 CURVE SMOOTH",
"285 407 OFFCURVE",
"225 435 OFFCURVE",
"195 465 CURVE",
"191 465 LINE",
"135 434 OFFCURVE",
"67 371 OFFCURVE",
"30 335 CURVE",
"30 246 OFFCURVE",
"59 202 OFFCURVE",
"113 159 CURVE SMOOTH",
"185 101 OFFCURVE",
"255 55 OFFCURVE",
"255 2 CURVE SMOOTH",
"255 -35 OFFCURVE",
"160 -161 OFFCURVE",
"34 -241 CURVE"
);
}
);
width = 427;
}
);
note = s.alt;
},
{
color = 4;
glyphname = longs;
lastChange = "2019-04-24 17:25:05 +0000";
layers = (
{
layerId = "E35B076F-D533-4C92-BAB9-D65BCB0F4FA2";
paths = (
{
closed = 1;
nodes = (
"123 0 LINE",
"123 618 LINE",
"162 617 OFFCURVE",
"200 612 OFFCURVE",
"239 605 CURVE",
"307 683 LINE",
"305 695 LINE",
"154 700 LINE",
"106 665 OFFCURVE",
"63 626 OFFCURVE",
"23 585 CURVE",
"23 368 LINE SMOOTH",
"23 285 OFFCURVE",
"28 92 OFFCURVE",
"20 0 CURVE"
);
}
);
width = 182;
}
);
note = longs;
unicode = 017F;
},
{
color = 4;
glyphname = longs_strok;
lastChange = "2019-04-23 14:01:23 +0000";
layers = (
{
layerId = "E35B076F-D533-4C92-BAB9-D65BCB0F4FA2";
paths = (
{
closed = 1;
nodes = (
"184 0 LINE",
"184 618 LINE",
"223 617 OFFCURVE",
"261 612 OFFCURVE",
"300 605 CURVE",
"368 683 LINE",
"366 695 LINE",
"215 700 LINE",
"167 665 OFFCURVE",
"124 626 OFFCURVE",
"84 585 CURVE",
"84 368 LINE SMOOTH",
"84 285 OFFCURVE",
"89 92 OFFCURVE",
"81 0 CURVE"
);
},
{
closed = 1;
nodes = (
"168 311 LINE",
"209 335 OFFCURVE",
"221 354 OFFCURVE",
"262 353 CURVE SMOOTH",
"292 352 OFFCURVE",
"335 332 OFFCURVE",
"335 278 CURVE SMOOTH",
"335 190 OFFCURVE",
"215 122 OFFCURVE",
"0 29 CURVE",
"11 -3 LINE",
"115 56 OFFCURVE",
"214 92 OFFCURVE",
"327 160 CURVE SMOOTH",
"385 195 OFFCURVE",
"429 245 OFFCURVE",
"429 318 CURVE SMOOTH",
"429 405 OFFCURVE",
"379 428 OFFCURVE",
"302 467 CURVE",
"253 415 OFFCURVE",
"205 373 OFFCURVE",
"156 339 CURVE"
);
}
);
width = 454;
}
);
rightMetricsKey = p;
},
{
color = 4;
glyphname = longs_i;
lastChange = "2019-04-23 14:01:23 +0000";
layers = (
{
components = (
{
name = longs;
}
);
layerId = "E35B076F-D533-4C92-BAB9-D65BCB0F4FA2";
paths = (
{
closed = 1;
nodes = (
"225 47 OFFCURVE",
"278 -10 OFFCURVE",
"288 -10 CURVE",
"290 -10 LINE",
"375 50 LINE",
"368 79 LINE",
"346 79 OFFCURVE",
"338 90 OFFCURVE",
"336 104 CURVE SMOOTH",
"332 131 OFFCURVE",
"326 290 OFFCURVE",
"348 412 CURVE",
"277 465 LINE",
"275 465 LINE",
"167 405 LINE",
"174 382 LINE",
"230 377 OFFCURVE",
"239 370 OFFCURVE",
"237 330 CURVE SMOOTH",
"226 57 LINE"
);
},
{
closed = 1;
nodes = (
"321 569 LINE",
"345 564 LINE",
"406 687 LINE",
"356 692 LINE"
);
}
);
width = 400;
}
);
leftMetricsKey = longs;
},
{
color = 4;
glyphname = longs_longs;
lastChange = "2019-04-24 17:25:05 +0000";
layers = (
{
layerId = "E35B076F-D533-4C92-BAB9-D65BCB0F4FA2";
paths = (
{
closed = 1;
nodes = (
"123 0 LINE",
"123 618 LINE",
"164 622 OFFCURVE",
"192 622 OFFCURVE",
"239 615 CURVE",
"307 693 LINE",
"305 705 LINE",
"154 700 LINE",
"106 665 OFFCURVE",
"63 626 OFFCURVE",
"23 585 CURVE",
"24 382 OFFCURVE",
"28 114 OFFCURVE",
"20 0 CURVE"
);
},
{
closed = 1;
nodes = (
"339 0 LINE",
"337 620 LINE",
"368 620 OFFCURVE",
"404 619 OFFCURVE",
"435 615 CURVE",
"502 693 LINE",
"501 705 LINE",
"370 700 LINE",
"322 665 OFFCURVE",
"279 626 OFFCURVE",
"239 585 CURVE",
"241 381 OFFCURVE",
"243 124 OFFCURVE",
"236 0 CURVE"
);
}
);
width = 377;
}
);
leftMetricsKey = longs;
note = s_s;
rightMetricsKey = longs;
},
{
color = 4;
glyphname = longs_t;
lastChange = "2019-04-24 17:25:05 +0000";
layers = (
{
layerId = "E35B076F-D533-4C92-BAB9-D65BCB0F4FA2";
paths = (
{
closed = 1;
nodes = (
"360 685 CURVE",
"351 695 LINE",
"251 679 LINE",
"252 630 OFFCURVE",
"258 535 OFFCURVE",
"246 474 CURVE SMOOTH",
"237 425 OFFCURVE",
"213 407 OFFCURVE",
"192 393 CURVE",
"192 373 LINE",
"244 373 LINE",
"244 71 LINE",
"264 31 OFFCURVE",
"317 0 OFFCURVE",
"348 -10 CURVE",
"391 19 OFFCURVE",
"449 64 OFFCURVE",
"498 104 CURVE",
"484 128 LINE",
"463 110 OFFCURVE",
"424 90 OFFCURVE",
"404 90 CURVE SMOOTH",
"368 90 OFFCURVE",
"341 105 OFFCURVE",
"337 172 CURVE SMOOTH",
"331 286 OFFCURVE",
"324 476 OFFCURVE"
);
},
{
closed = 1;
nodes = (
"123 0 LINE",
"126 620 LINE",
"279 618 LINE",
"339 683 LINE",
"351 695 LINE",
"154 700 LINE",
"106 665 OFFCURVE",
"63 626 OFFCURVE",
"23 585 CURVE",
"23 290 OFFCURVE",
"27 84 OFFCURVE",
"20 0 CURVE"
);
},
{
closed = 1;
nodes = (
"326 375 LINE",
"387 376 OFFCURVE",
"447 374 OFFCURVE",
"508 371 CURVE",
"508 455 LINE",
"324 455 LINE"
);
}
);
width = 518;
}
);
leftMetricsKey = longs;
note = s_t;
rightMetricsKey = t;
},
{
color = 4;
glyphname = longs_t_i;
lastChange = "2019-04-24 17:25:05 +0000";
layers = (
{
layerId = "E35B076F-D533-4C92-BAB9-D65BCB0F4FA2";
paths = (
{
closed = 1;
nodes = (
"123 0 LINE",
"126 620 LINE",
"253 618 LINE",
"254 571 OFFCURVE",
"254 515 OFFCURVE",
"246 474 CURVE SMOOTH",
"236 425 OFFCURVE",
"213 407 OFFCURVE",
"192 393 CURVE",
"192 373 LINE",
"244 373 LINE",
"244 71 LINE",
"264 31 OFFCURVE",
"317 0 OFFCURVE",
"348 -10 CURVE",
"382 13 OFFCURVE",
"425 45 OFFCURVE",
"465 77 CURVE",
"470 52 OFFCURVE",
"488 -10 OFFCURVE",
"496 -10 CURVE SMOOTH",
"498 -10 LINE",
"613 50 LINE",
"607 75 LINE",
"585 75 OFFCURVE",
"566 82 OFFCURVE",
"564 96 CURVE SMOOTH",
"560 123 OFFCURVE",
"558 346 OFFCURVE",
"570 468 CURVE",
"569 471 LINE",
"559 479 LINE",
"541 466 OFFCURVE",
"511 458 OFFCURVE",
"483 455 CURVE",
"335 455 LINE",
"338 527 OFFCURVE",
"346 604 OFFCURVE",
"360 685 CURVE",
"351 695 LINE",
"154 700 LINE",
"106 665 OFFCURVE",
"63 626 OFFCURVE",
"23 585 CURVE",
"23 290 OFFCURVE",
"27 84 OFFCURVE",
"20 0 CURVE"
);
},
{
closed = 1;
nodes = (
"378 376 OFFCURVE",
"418 374 OFFCURVE",
"464 372 CURVE",
"465 118 LINE",
"447 103 OFFCURVE",
"427 90 OFFCURVE",
"404 90 CURVE SMOOTH",
"368 90 OFFCURVE",
"341 105 OFFCURVE",
"337 172 CURVE SMOOTH",
"334 225 OFFCURVE",
"331 295 OFFCURVE",
"332 375 CURVE"
);
},
{
closed = 1;
nodes = (
"528 552 LINE",
"602 700 LINE",
"549 700 LINE",
"496 553 LINE"
);
}
);
width = 638;
}
);
leftMetricsKey = longs;
note = longs_t_i;
rightMetricsKey = i;
},
{
color = 4;
glyphname = longs_t_u;
lastChange = "2019-04-23 14:01:23 +0000";
layers = (
{
layerId = "E35B076F-D533-4C92-BAB9-D65BCB0F4FA2";
paths = (
{
closed = 1;
nodes = (
"331 286 OFFCURVE",
"324 476 OFFCURVE",
"360 685 CURVE",
"351 695 LINE",
"251 679 LINE",
"252 630 OFFCURVE",
"258 535 OFFCURVE",
"246 474 CURVE SMOOTH",
"237 425 OFFCURVE",
"213 407 OFFCURVE",
"192 393 CURVE",
"192 373 LINE",
"244 373 LINE",
"244 71 LINE",
"264 31 OFFCURVE",
"324 0 OFFCURVE",
"355 -10 CURVE",
"398 19 OFFCURVE",
"449 45 OFFCURVE",
"498 65 CURVE",
"484 98 LINE",
"463 90 OFFCURVE",
"424 81 OFFCURVE",
"404 81 CURVE SMOOTH",
"368 81 OFFCURVE",
"341 105 OFFCURVE",
"337 172 CURVE SMOOTH"
);
},
{
closed = 1;
nodes = (
"123 0 LINE",
"126 620 LINE",
"279 618 LINE",
"339 683 LINE",
"351 695 LINE",
"154 700 LINE",
"106 665 OFFCURVE",
"63 626 OFFCURVE",
"23 585 CURVE",
"23 290 OFFCURVE",
"27 84 OFFCURVE",
"20 0 CURVE"
);
},
{
closed = 1;
nodes = (
"326 375 LINE",
"387 376 OFFCURVE",
"457 374 OFFCURVE",
"508 371 CURVE",
"508 455 LINE",
"324 455 LINE"
);
},
{
closed = 1;
nodes = (
"727 206 OFFCURVE",
"724 142 OFFCURVE",
"716 79 CURVE",
"734 55 OFFCURVE",
"753 30 OFFCURVE",
"777 -10 CURVE",
"867 50 LINE",
"862 80 LINE",
"828 99 OFFCURVE",
"826 118 OFFCURVE",
"826 205 CURVE SMOOTH",
"826 290 OFFCURVE",
"831 346 OFFCURVE",
"839 397 CURVE",
"828 417 OFFCURVE",
"765 455 OFFCURVE",
"745 465 CURVE",
"743 465 LINE",
"656 365 LINE",
"667 346 LINE",
"717 374 OFFCURVE",
"727 322 OFFCURVE",
"727 269 CURVE SMOOTH"
);
},
{
closed = 1;
nodes = (
"735 118 LINE",
"697 98 OFFCURVE",
"666 90 OFFCURVE",
"641 90 CURVE SMOOTH",
"614 90 OFFCURVE",
"593 91 OFFCURVE",
"585 106 CURVE",
"583 213 OFFCURVE",
"582 416 OFFCURVE",
"591 474 CURVE",
"580 480 LINE",
"464 445 LINE",
"461 377 LINE",
"461 375 LINE",
"480 355 OFFCURVE",
"489 318 OFFCURVE",
"489 248 CURVE SMOOTH",
"489 184 OFFCURVE",
"482 94 OFFCURVE",
"482 60 CURVE",
"502 44 OFFCURVE",
"556 0 OFFCURVE",
"588 -10 CURVE",
"621 19 OFFCURVE",
"683 55 OFFCURVE",
"736 84 CURVE"
);
}
);
width = 885;
}
);
leftMetricsKey = longs;
rightMetricsKey = u;
},
{
color = 4;
glyphname = t;
lastChange = "2019-04-24 17:25:05 +0000";
layers = (
{
layerId = "E35B076F-D533-4C92-BAB9-D65BCB0F4FA2";
paths = (
{
closed = 1;
nodes = (
"208 -10 OFFCURVE",
"284 50 OFFCURVE",
"316 69 CURVE",
"307 106 LINE",
"280 91 OFFCURVE",
"253 81 OFFCURVE",
"233 81 CURVE SMOOTH",
"185 81 OFFCURVE",
"162 135 OFFCURVE",
"157 168 CURVE SMOOTH",
"148 228 OFFCURVE",
"148 317 OFFCURVE",
"151 371 CURVE",
"213 371 OFFCURVE",
"266 366 OFFCURVE",
"310 365 CURVE",
"309 460 LINE",
"239 454 OFFCURVE",
"216 453 OFFCURVE",
"155 455 CURVE",
"158 497 OFFCURVE",
"165 538 OFFCURVE",
"170 580 CURVE",
"136 583 LINE",
"107 513 OFFCURVE",
"71 470 OFFCURVE",
"25 420 CURVE",
"25 389 LINE",
"41 379 OFFCURVE",
"51 369 OFFCURVE",
"51 355 CURVE SMOOTH",
"51 255 OFFCURVE",
"55 189 OFFCURVE",
"66 97 CURVE SMOOTH",
"72 47 OFFCURVE",
"108 -10 OFFCURVE",
"168 -10 CURVE SMOOTH"
);
}
);
width = 326;
}
);
note = t;
unicode = 0074;
},
{
color = 4;
glyphname = t_acute;
lastChange = "2019-04-24 17:25:05 +0000";
layers = (
{
components = (
{
name = macr;
transform = "{0.94675, -0.13917, 0.13306, 0.99027, -72, 75}";
}
);
layerId = "E35B076F-D533-4C92-BAB9-D65BCB0F4FA2";
paths = (
{
closed = 1;
nodes = (
"214 -10 OFFCURVE",
"290 50 OFFCURVE",
"322 69 CURVE",
"313 106 LINE",
"286 91 OFFCURVE",
"259 81 OFFCURVE",
"239 81 CURVE SMOOTH",
"191 81 OFFCURVE",
"168 135 OFFCURVE",
"163 168 CURVE SMOOTH",
"154 228 OFFCURVE",
"154 317 OFFCURVE",
"157 371 CURVE",
"219 371 OFFCURVE",
"272 370 OFFCURVE",
"316 365 CURVE",
"345 460 LINE",
"275 454 OFFCURVE",
"223 453 OFFCURVE",
"152 455 CURVE",
"152 469 OFFCURVE",
"148 488 OFFCURVE",
"153 530 CURVE",
"119 533 LINE",
"90 463 OFFCURVE",
"77 470 OFFCURVE",
"31 420 CURVE",
"31 389 LINE",
"47 379 OFFCURVE",
"57 369 OFFCURVE",
"57 355 CURVE SMOOTH",
"57 255 OFFCURVE",
"61 189 OFFCURVE",
"72 97 CURVE SMOOTH",
"78 47 OFFCURVE",
"114 -10 OFFCURVE",
"174 -10 CURVE SMOOTH"
);
}
);
width = 392;
}
);
leftMetricsKey = t;
note = t_macr;
rightMetricsKey = t;
unicode = E6E2;
},
{
color = 4;
glyphname = t_urrot;
lastChange = "2019-04-19 16:00:24 +0000";
layers = (
{
layerId = "E35B076F-D533-4C92-BAB9-D65BCB0F4FA2";
paths = (
{
closed = 1;
nodes = (
"208 -10 OFFCURVE",
"284 50 OFFCURVE",
"316 69 CURVE",
"307 106 LINE",
"280 91 OFFCURVE",
"253 81 OFFCURVE",
"233 81 CURVE SMOOTH",
"185 81 OFFCURVE",
"162 135 OFFCURVE",
"157 168 CURVE SMOOTH",
"148 228 OFFCURVE",
"148 317 OFFCURVE",
"151 371 CURVE",
"213 371 OFFCURVE",
"266 370 OFFCURVE",
"310 365 CURVE",
"339 460 LINE",
"269 454 OFFCURVE",
"217 453 OFFCURVE",
"146 455 CURVE",
"146 469 OFFCURVE",
"142 488 OFFCURVE",
"147 530 CURVE",
"113 533 LINE",
"84 463 OFFCURVE",
"71 470 OFFCURVE",
"25 420 CURVE",
"25 389 LINE",
"41 379 OFFCURVE",
"51 369 OFFCURVE",
"51 355 CURVE SMOOTH",
"51 255 OFFCURVE",
"55 189 OFFCURVE",
"66 97 CURVE SMOOTH",
"72 47 OFFCURVE",
"108 -10 OFFCURVE",
"168 -10 CURVE SMOOTH"
);
},
{
closed = 1;
nodes = (
"25 640 LINE",
"80 692 LINE",
"141 690 OFFCURVE",
"202 695 OFFCURVE",
"263 700 CURVE",
"263 694 LINE",
"187 621 LINE",
"241 621 OFFCURVE",
"288 625 OFFCURVE",
"341 632 CURVE",
"341 626 LINE",
"322 607 OFFCURVE",
"311 591 OFFCURVE",
"298 570 CURVE",
"117 569 LINE",
"117 574 LINE",
"176 640 LINE",
"129 642 OFFCURVE",
"62 643 OFFCURVE",
"25 635 CURVE"
);
}
);
width = 351;
}
);
leftMetricsKey = t;
note = t_urrot;
rightMetricsKey = t;
},
{
color = 4;
glyphname = t_a;
lastChange = "2019-04-14 13:16:04 +0000";
layers = (
{
layerId = "E35B076F-D533-4C92-BAB9-D65BCB0F4FA2";
paths = (
{
closed = 1;
nodes = (
"41 379 OFFCURVE",
"51 369 OFFCURVE",
"51 355 CURVE SMOOTH",
"51 255 OFFCURVE",
"55 189 OFFCURVE",
"66 97 CURVE SMOOTH",
"72 47 OFFCURVE",
"108 -10 OFFCURVE",
"168 -10 CURVE",
"207 41 OFFCURVE",
"252 91 OFFCURVE",
"284 111 CURVE",
"312 64 OFFCURVE",
"339 13 OFFCURVE",
"355 -6 CURVE",
"410 19 OFFCURVE",
"466 65 OFFCURVE",
"521 101 CURVE",
"521 67 LINE SMOOTH",
"521 27 OFFCURVE",
"551 -10 OFFCURVE",
"571 -10 CURVE",
"663 49 LINE",
"663 78 LINE",
"661 79 LINE",
"634 72 OFFCURVE",
"621 96 OFFCURVE",
"621 145 CURVE SMOOTH",
"621 413 LINE",
"601 443 OFFCURVE",
"527 465 OFFCURVE",
"497 465 CURVE",
"357 383 LINE",
"361 356 LINE",
"363 355 LINE",
"394 369 OFFCURVE",
"422 380 OFFCURVE",
"464 380 CURVE SMOOTH",
"497 380 OFFCURVE",
"519 365 OFFCURVE",
"520 319 CURVE SMOOTH",
"520 314 LINE",
"317 177 LINE SMOOTH",
"284 154 OFFCURVE",
"212 98 OFFCURVE",
"199 98 CURVE",
"133 143 OFFCURVE",
"148 279 OFFCURVE",
"151 371 CURVE",
"213 371 OFFCURVE",
"278 366 OFFCURVE",
"322 365 CURVE",
"339 460 LINE",
"269 454 OFFCURVE",
"216 453 OFFCURVE",
"155 455 CURVE",
"158 497 OFFCURVE",
"165 538 OFFCURVE",
"170 580 CURVE",
"136 583 LINE",
"107 513 OFFCURVE",
"71 470 OFFCURVE",
"25 420 CURVE",
"25 389 LINE"
);
},
{
closed = 1;
nodes = (
"410 204 OFFCURVE",
"468 252 OFFCURVE",
"520 283 CURVE",
"521 136 LINE",
"490 114 OFFCURVE",
"462 89 OFFCURVE",
"430 84 CURVE",
"406 102 OFFCURVE",
"377 137 OFFCURVE",
"370 171 CURVE"
);
}
);
width = 688;
}
);
leftMetricsKey = t;
note = t_a;
rightMetricsKey = a;
},
{
color = 4;
glyphname = t_e;
lastChange = "2019-04-24 17:25:05 +0000";
layers = (
{
layerId = "E35B076F-D533-4C92-BAB9-D65BCB0F4FA2";
paths = (
{
closed = 1;
nodes = (
"49 379 OFFCURVE",
"57 370 OFFCURVE",
"57 345 CURVE SMOOTH",
"56 253 OFFCURVE",
"61 162 OFFCURVE",
"65 70 CURVE SMOOTH",
"66 40 OFFCURVE",
"142 -10 OFFCURVE",
"172 -10 CURVE SMOOTH",
"190 -10 OFFCURVE",
"271 58 OFFCURVE",
"326 91 CURVE",
"354 29 OFFCURVE",
"405 -10 OFFCURVE",
"435 -10 CURVE SMOOTH",
"470 -10 OFFCURVE",
"535 18 OFFCURVE",
"585 57 CURVE",
"575 87 LINE",
"492 51 OFFCURVE",
"434 81 OFFCURVE",
"409 149 CURVE",
"617 293 LINE",
"624 320 LINE",
"594 374 OFFCURVE",
"555 443 OFFCURVE",
"470 464 CURVE",
"417 455 LINE",
"151 455 LINE",
"163 580 LINE",
"128 582 LINE",
"93 492 OFFCURVE",
"71 470 OFFCURVE",
"25 430 CURVE",
"25 395 LINE"
);
},
{
closed = 1;
nodes = (
"147 236 OFFCURVE",
"149 301 OFFCURVE",
"150 365 CURVE",
"314 365 LINE",
"312 325 OFFCURVE",
"306 250 OFFCURVE",
"306 212 CURVE SMOOTH",
"306 179 OFFCURVE",
"310 149 OFFCURVE",
"316 124 CURVE",
"283 106 OFFCURVE",
"251 90 OFFCURVE",
"217 90 CURVE SMOOTH",
"181 90 OFFCURVE",
"164 129 OFFCURVE",
"157 172 CURVE SMOOTH"
);
},
{
closed = 1;
nodes = (
"396 267 OFFCURVE",
"399 326 OFFCURVE",
"411 378 CURVE",
"455 375 OFFCURVE",
"520 332 OFFCURVE",
"523 299 CURVE SMOOTH",
"525 275 OFFCURVE",
"508 263 OFFCURVE",
"400 184 CURVE",
"397 199 OFFCURVE",
"396 215 OFFCURVE",
"396 232 CURVE SMOOTH"
);
}
);
width = 634;
}
);
leftMetricsKey = t;
note = t_e;
rightMetricsKey = e;
},
{
color = 4;
glyphname = t_i;
lastChange = "2019-04-14 13:20:41 +0000";
layers = (
{
layerId = "E35B076F-D533-4C92-BAB9-D65BCB0F4FA2";
paths = (
{
closed = 1;
nodes = (
"41 379 OFFCURVE",
"51 369 OFFCURVE",
"51 355 CURVE SMOOTH",
"51 255 OFFCURVE",
"51 181 OFFCURVE",
"52 117 CURVE SMOOTH",
"53 67 OFFCURVE",
"98 -10 OFFCURVE",
"158 -10 CURVE",
"190 10 OFFCURVE",
"245 48 OFFCURVE",
"283 64 CURVE",
"290 36 OFFCURVE",
"312 -10 OFFCURVE",
"318 -10 CURVE SMOOTH",
"320 -10 LINE",
"435 50 LINE",
"429 75 LINE",
"407 75 OFFCURVE",
"388 82 OFFCURVE",
"386 96 CURVE SMOOTH",
"382 123 OFFCURVE",
"380 346 OFFCURVE",
"392 468 CURVE",
"391 471 LINE",
"381 479 LINE",
"309 455 LINE",
"288 455 OFFCURVE",
"168 455 OFFCURVE",
"155 455 CURVE",
"158 497 OFFCURVE",
"165 538 OFFCURVE",
"170 580 CURVE",
"136 583 LINE",
"107 513 OFFCURVE",
"71 470 OFFCURVE",
"25 420 CURVE",
"25 389 LINE"
);
},
{
closed = 1;
nodes = (
"197 371 OFFCURVE",
"237 368 OFFCURVE",
"276 366 CURVE",
"277 96 LINE",
"257 87 OFFCURVE",
"208 81 OFFCURVE",
"193 81 CURVE SMOOTH",
"145 81 OFFCURVE",
"144 145 OFFCURVE",
"143 178 CURVE SMOOTH",
"141 238 OFFCURVE",
"143 317 OFFCURVE",
"146 371 CURVE"
);
},
{
closed = 1;
nodes = (
"350 583 LINE",
"424 700 LINE",
"371 700 LINE",
"318 584 LINE"
);
}
);
width = 460;
}
);
leftMetricsKey = t;
note = t_i;
rightMetricsKey = i;
},
{
color = 4;
glyphname = t_o;
lastChange = "2019-04-24 17:25:05 +0000";
layers = (
{
layerId = "E35B076F-D533-4C92-BAB9-D65BCB0F4FA2";
paths = (
{
closed = 1;
nodes = (
"49 379 OFFCURVE",
"57 370 OFFCURVE",
"57 345 CURVE SMOOTH",
"57 253 OFFCURVE",
"62 162 OFFCURVE",
"65 70 CURVE SMOOTH",
"66 40 OFFCURVE",
"142 -10 OFFCURVE",
"172 -10 CURVE SMOOTH",
"189 -10 OFFCURVE",
"263 52 OFFCURVE",
"318 86 CURVE",
"357 34 OFFCURVE",
"422 -4 OFFCURVE",
"515 -10 CURVE",
"604 68 OFFCURVE",
"701 108 OFFCURVE",
"701 258 CURVE SMOOTH",
"701 358 OFFCURVE",
"614 465 OFFCURVE",
"476 465 CURVE SMOOTH",
"151 465 LINE",
"163 580 LINE",
"128 582 LINE",
"93 492 OFFCURVE",
"71 470 OFFCURVE",
"25 430 CURVE",
"25 395 LINE"
);
},
{
closed = 1;
nodes = (
"341 375 LINE",
"302 330 OFFCURVE",
"275 273 OFFCURVE",
"275 217 CURVE SMOOTH",
"275 182 OFFCURVE",
"283 147 OFFCURVE",
"300 115 CURVE",
"272 101 OFFCURVE",
"245 90 OFFCURVE",
"217 90 CURVE SMOOTH",
"181 90 OFFCURVE",
"164 129 OFFCURVE",
"157 172 CURVE SMOOTH",
"147 236 OFFCURVE",
"149 311 OFFCURVE",
"150 375 CURVE"
);
},
{
closed = 1;
nodes = (
"356 310 OFFCURVE",
"373 362 OFFCURVE",
"408 380 CURVE",
"522 393 OFFCURVE",
"621 307 OFFCURVE",
"621 217 CURVE SMOOTH",
"621 157 OFFCURVE",
"597 112 OFFCURVE",
"556 83 CURVE",
"445 82 OFFCURVE",
"356 161 OFFCURVE",
"356 271 CURVE SMOOTH"
);
}
);
width = 726;
}
);
leftMetricsKey = t;
note = t_o;
rightMetricsKey = o;
},
{
color = 4;
glyphname = t_u;
lastChange = "2019-04-24 17:25:05 +0000";
layers = (
{
layerId = "E35B076F-D533-4C92-BAB9-D65BCB0F4FA2";
paths = (
{
closed = 1;
nodes = (
"36 387 OFFCURVE",
"57 375 OFFCURVE",
"57 353 CURVE SMOOTH",
"57 71 LINE",
"77 31 OFFCURVE",
"137 0 OFFCURVE",
"168 -10 CURVE",
"207 16 OFFCURVE",
"252 40 OFFCURVE",
"296 59 CURVE",
"317 42 OFFCURVE",
"370 0 OFFCURVE",
"401 -10 CURVE",
"431 16 OFFCURVE",
"483 48 OFFCURVE",
"532 75 CURVE",
"549 52 OFFCURVE",
"567 28 OFFCURVE",
"590 -10 CURVE",
"680 50 LINE",
"675 80 LINE",
"641 99 OFFCURVE",
"639 118 OFFCURVE",
"639 205 CURVE SMOOTH",
"639 290 OFFCURVE",
"644 346 OFFCURVE",
"652 397 CURVE",
"641 417 OFFCURVE",
"578 455 OFFCURVE",
"558 465 CURVE",
"556 465 LINE",
"469 365 LINE",
"480 346 LINE",
"530 374 OFFCURVE",
"540 322 OFFCURVE",
"540 269 CURVE SMOOTH",
"540 216 OFFCURVE",
"538 163 OFFCURVE",
"533 110 CURVE",
"502 96 OFFCURVE",
"476 90 OFFCURVE",
"454 90 CURVE SMOOTH",
"427 90 OFFCURVE",
"406 91 OFFCURVE",
"398 106 CURVE",
"396 213 OFFCURVE",
"395 416 OFFCURVE",
"404 474 CURVE",
"393 480 LINE",
"310 455 LINE",
"154 455 LINE",
"158 494 OFFCURVE",
"162 531 OFFCURVE",
"167 571 CURVE",
"135 573 LINE",
"126 524 OFFCURVE",
"46 439 OFFCURVE",
"25 425 CURVE",
"25 394 LINE"
);
},
{
closed = 1;
nodes = (
"190 376 OFFCURVE",
"236 375 OFFCURVE",
"276 373 CURVE",
"294 353 OFFCURVE",
"302 316 OFFCURVE",
"302 248 CURVE SMOOTH",
"302 201 OFFCURVE",
"298 140 OFFCURVE",
"296 98 CURVE",
"275 90 OFFCURVE",
"237 81 OFFCURVE",
"217 81 CURVE SMOOTH",
"181 81 OFFCURVE",
"154 105 OFFCURVE",
"150 172 CURVE SMOOTH",
"146 249 OFFCURVE",
"146 314 OFFCURVE",
"149 375 CURVE"
);
}
);
width = 698;
}
);
leftMetricsKey = t;
note = t_u;
rightMetricsKey = u;
},
{
color = 4;
glyphname = u;
lastChange = "2019-04-24 17:25:05 +0000";
layers = (
{
layerId = "E35B076F-D533-4C92-BAB9-D65BCB0F4FA2";
paths = (
{
closed = 1;
nodes = (
"300 206 OFFCURVE",
"297 142 OFFCURVE",
"289 79 CURVE",
"307 55 OFFCURVE",
"326 30 OFFCURVE",
"350 -10 CURVE",
"440 50 LINE",
"435 80 LINE",
"401 99 OFFCURVE",
"399 118 OFFCURVE",
"399 205 CURVE SMOOTH",
"399 290 OFFCURVE",
"404 346 OFFCURVE",
"412 397 CURVE",
"401 417 OFFCURVE",
"338 455 OFFCURVE",
"318 465 CURVE",
"316 465 LINE",
"229 365 LINE",
"240 346 LINE",
"290 374 OFFCURVE",
"300 322 OFFCURVE",
"300 269 CURVE SMOOTH"
);
},
{
closed = 1;
nodes = (
"308 118 LINE",
"270 98 OFFCURVE",
"239 90 OFFCURVE",
"214 90 CURVE SMOOTH",
"187 90 OFFCURVE",
"166 91 OFFCURVE",
"158 106 CURVE",
"156 213 OFFCURVE",
"155 341 OFFCURVE",
"164 399 CURVE",
"149 420 OFFCURVE",
"126 448 OFFCURVE",
"91 465 CURVE",
"89 465 LINE",
"24 394 LINE",
"24 377 LINE",
"24 375 LINE",
"44 355 OFFCURVE",
"53 336 OFFCURVE",
"55 296 CURVE SMOOTH",
"58 232 OFFCURVE",
"55 124 OFFCURVE",
"55 60 CURVE",
"75 44 OFFCURVE",
"129 -10 OFFCURVE",
"161 -10 CURVE",
"194 19 OFFCURVE",
"256 55 OFFCURVE",
"309 84 CURVE"
);
}
);
width = 458;
}
);
note = u;
unicode = 0075;
},
{
color = 4;
glyphname = u_ring;
lastChange = "2019-04-14 13:24:25 +0000";
layers = (
{
components = (
{
name = u;
}
);
layerId = "E35B076F-D533-4C92-BAB9-D65BCB0F4FA2";
paths = (
{
closed = 1;
nodes = (
"261 494 OFFCURVE",
"291 534 OFFCURVE",
"291 577 CURVE SMOOTH",
"291 620 OFFCURVE",
"265 661 OFFCURVE",
"209 661 CURVE SMOOTH",
"152 661 OFFCURVE",
"127 617 OFFCURVE",
"127 574 CURVE SMOOTH",
"127 530 OFFCURVE",
"153 494 OFFCURVE",
"209 494 CURVE SMOOTH"
);
},
{
closed = 1;
nodes = (
"179 525 OFFCURVE",
"161 545 OFFCURVE",
"161 568 CURVE SMOOTH",
"161 591 OFFCURVE",
"179 611 OFFCURVE",
"208 611 CURVE SMOOTH",
"237 611 OFFCURVE",
"255 591 OFFCURVE",
"255 568 CURVE SMOOTH",
"255 545 OFFCURVE",
"237 525 OFFCURVE",
"208 525 CURVE SMOOTH"
);
}
);
width = 458;
}
);
},
{
color = 4;
glyphname = u_i;
lastChange = "2019-04-24 17:25:05 +0000";
layers = (
{
layerId = "E35B076F-D533-4C92-BAB9-D65BCB0F4FA2";
paths = (
{
closed = 1;
nodes = (
"536 47 OFFCURVE",
"589 -10 OFFCURVE",
"599 -10 CURVE",
"601 -10 LINE",
"686 50 LINE",
"679 79 LINE",
"657 79 OFFCURVE",
"649 90 OFFCURVE",
"647 104 CURVE SMOOTH",
"643 131 OFFCURVE",
"637 290 OFFCURVE",
"659 412 CURVE",
"588 465 LINE",
"586 465 LINE",
"498 405 LINE",
"505 382 LINE",
"541 377 OFFCURVE",
"550 370 OFFCURVE",
"548 330 CURVE SMOOTH",
"537 57 LINE"
);
},
{
closed = 1;
nodes = (
"579 549 LINE",
"603 544 LINE",
"664 667 LINE",
"614 672 LINE"
);
},
{
closed = 1;
nodes = (
"329 206 OFFCURVE",
"326 142 OFFCURVE",
"318 79 CURVE",
"336 55 OFFCURVE",
"355 30 OFFCURVE",
"379 -10 CURVE",
"569 90 LINE",
"564 120 LINE",
"533 111 OFFCURVE",
"492 95 OFFCURVE",
"463 93 CURVE SMOOTH",
"439 91 OFFCURVE",
"423 110 OFFCURVE",
"423 144 CURVE SMOOTH",
"423 229 OFFCURVE",
"433 346 OFFCURVE",
"441 397 CURVE",
"430 417 OFFCURVE",
"367 455 OFFCURVE",
"347 465 CURVE",
"345 465 LINE",
"258 365 LINE",
"269 346 LINE",
"319 374 OFFCURVE",
"329 322 OFFCURVE",
"329 269 CURVE SMOOTH"
);
},
{
closed = 1;
nodes = (
"337 118 LINE",
"299 98 OFFCURVE",
"268 90 OFFCURVE",
"243 90 CURVE SMOOTH",
"216 90 OFFCURVE",
"195 91 OFFCURVE",
"187 106 CURVE",
"185 213 OFFCURVE",
"188 339 OFFCURVE",
"197 397 CURVE",
"182 418 OFFCURVE",
"155 448 OFFCURVE",
"120 465 CURVE",
"118 465 LINE",
"24 366 LINE",
"33 347 LINE",
"33 345 LINE",
"67 354 OFFCURVE",
"82 336 OFFCURVE",
"84 296 CURVE SMOOTH",
"87 232 OFFCURVE",
"84 124 OFFCURVE",
"84 60 CURVE",
"104 44 OFFCURVE",
"158 -10 OFFCURVE",
"190 -10 CURVE",
"223 19 OFFCURVE",
"285 55 OFFCURVE",
"338 84 CURVE"
);
}
);
width = 711;
}
);
leftMetricsKey = u;
note = u_i;
rightMetricsKey = i;
},
{
color = 4;
glyphname = v;
lastChange = "2019-04-14 13:28:39 +0000";
layers = (
{
layerId = "E35B076F-D533-4C92-BAB9-D65BCB0F4FA2";
paths = (
{
closed = 1;
nodes = (
"192 282 LINE",
"237 325 OFFCURVE",
"270 354 OFFCURVE",
"313 354 CURVE SMOOTH",
"363 354 OFFCURVE",
"423 317 OFFCURVE",
"423 238 CURVE SMOOTH",
"423 157 OFFCURVE",
"357 96 OFFCURVE",
"242 65 CURVE",
"301 74 LINE",
"285 104 OFFCURVE",
"219 336 OFFCURVE",
"172 441 CURVE",
"136 450 OFFCURVE",
"95 460 OFFCURVE",
"75 465 CURVE",
"10 371 LINE",
"29 339 LINE",
"64 370 OFFCURVE",
"74 366 OFFCURVE",
"126 245 CURVE SMOOTH",
"152 184 OFFCURVE",
"195 74 OFFCURVE",
"210 0 CURVE",
"226 -11 LINE",
"368 41 OFFCURVE",
"494 170 OFFCURVE",
"494 283 CURVE SMOOTH",
"494 406 OFFCURVE",
"407 454 OFFCURVE",
"305 465 CURVE",
"273 414 OFFCURVE",
"236 366 OFFCURVE",
"184 325 CURVE"
);
}
);
width = 504;
}
);
note = v;
unicode = 0076;
},
{
color = 4;
glyphname = v_longhook;
lastChange = "2019-04-24 17:25:05 +0000";
layers = (
{
layerId = "E35B076F-D533-4C92-BAB9-D65BCB0F4FA2";
paths = (
{
closed = 1;
nodes = (
"205 295 OFFCURVE",
"312 437 OFFCURVE",
"381 579 CURVE",
"351 612 OFFCURVE",
"275 624 OFFCURVE",
"213 607 CURVE",
"192 537 LINE",
"199 530 LINE",
"236 535 OFFCURVE",
"292 524 OFFCURVE",
"292 494 CURVE",
"292 462 OFFCURVE",
"99 193 OFFCURVE",
"-51 22 CURVE",
"-50 20 LINE",
"-4 10 LINE"
);
},
{
closed = 1;
nodes = (
"256 242 LINE",
"301 305 OFFCURVE",
"339 338 OFFCURVE",
"382 338 CURVE SMOOTH",
"432 338 OFFCURVE",
"477 299 OFFCURVE",
"477 238 CURVE SMOOTH",
"477 157 OFFCURVE",
"411 96 OFFCURVE",
"296 65 CURVE",
"355 74 LINE",
"339 104 OFFCURVE",
"254 296 OFFCURVE",
"197 441 CURVE",
"161 450 OFFCURVE",
"120 460 OFFCURVE",
"100 465 CURVE",
"35 371 LINE",
"54 339 LINE",
"89 370 OFFCURVE",
"99 366 OFFCURVE",
"151 245 CURVE SMOOTH",
"177 184 OFFCURVE",
"247 72 OFFCURVE",
"262 -2 CURVE",
"280 -11 LINE",
"422 41 OFFCURVE",
"548 170 OFFCURVE",
"548 283 CURVE SMOOTH",
"548 406 OFFCURVE",
"481 454 OFFCURVE",
"379 465 CURVE",
"347 414 OFFCURVE",
"300 337 OFFCURVE",
"248 285 CURVE"
);
}
);
width = 561;
}
);
note = ver;
unicode = A75F;
},
{
color = 4;
glyphname = w;
lastChange = "2019-02-26 12:17:01 +0000";
layers = (
{
layerId = "E35B076F-D533-4C92-BAB9-D65BCB0F4FA2";
paths = (
{
closed = 1;
nodes = (
"447 291 LINE",
"492 329 OFFCURVE",
"524 351 OFFCURVE",
"567 351 CURVE SMOOTH",
"617 351 OFFCURVE",
"668 307 OFFCURVE",
"668 238 CURVE SMOOTH",
"668 177 OFFCURVE",
"642 109 OFFCURVE",
"487 74 CURVE",
"574 74 LINE",
"532 197 OFFCURVE",
"483 335 OFFCURVE",
"426 440 CURVE",
"397 450 OFFCURVE",
"368 461 OFFCURVE",
"348 463 CURVE",
"307 413 OFFCURVE",
"260 362 OFFCURVE",
"199 325 CURVE",
"225 294 LINE",
"299 364 OFFCURVE",
"347 365 OFFCURVE",
"398 245 CURVE SMOOTH",
"435 158 OFFCURVE",
"459 73 OFFCURVE",
"474 -1 CURVE",
"501 -10 LINE",
"543 32 OFFCURVE",
"751 150 OFFCURVE",
"751 273 CURVE SMOOTH",
"751 367 OFFCURVE",
"692 426 OFFCURVE",
"600 465 CURVE",
"538 406 OFFCURVE",
"491 370 OFFCURVE",
"439 334 CURVE"
);
},
{
closed = 1;
nodes = (
"460 165 LINE",
"402 110 OFFCURVE",
"321 66 OFFCURVE",
"273 69 CURVE",
"357 64 LINE",
"303 154 OFFCURVE",
"231 343 OFFCURVE",
"160 444 CURVE",
"154 447 OFFCURVE",
"115 465 OFFCURVE",
"95 465 CURVE",
"15 328 LINE",
"41 302 LINE",
"94 397 OFFCURVE",
"126 270 OFFCURVE",
"257 0 CURVE",
"283 -11 LINE",
"333 29 OFFCURVE",
"399 78 OFFCURVE",
"469 116 CURVE"
);
}
);
width = 766;
}
);
note = w;
unicode = 0077;
},
{
color = 4;
glyphname = x;
lastChange = "2019-04-24 17:25:05 +0000";
layers = (
{
guideLines = (
{
position = "{225, 227}";
showMeasurement = 1;
}
);
layerId = "E35B076F-D533-4C92-BAB9-D65BCB0F4FA2";
paths = (
{
closed = 1;
nodes = (
"159 336 LINE",
"250 465 LINE",
"255 465 LINE",
"287 452 OFFCURVE",
"325 435 OFFCURVE",
"344 414 CURVE",
"289 306 LINE",
"230 337 OFFCURVE",
"211 333 OFFCURVE",
"172 307 CURVE"
);
},
{
closed = 1;
nodes = (
"136 135 LINE",
"110 50 OFFCURVE",
"96 -20 OFFCURVE",
"82 -123 CURVE",
"77 -123 LINE",
"18 -87 LINE",
"46 6 OFFCURVE",
"81 83 OFFCURVE",
"115 178 CURVE"
);
},
{
closed = 1;
nodes = (
"165 302 OFFCURVE",
"205 191 OFFCURVE",
"228 140 CURVE SMOOTH",
"251 88 OFFCURVE",
"262 80 OFFCURVE",
"324 121 CURVE",
"343 90 LINE",
"309 59 OFFCURVE",
"256 16 OFFCURVE",
"209 -10 CURVE",
"139 40 OFFCURVE",
"102 178 OFFCURVE",
"77 282 CURVE SMOOTH",
"59 357 OFFCURVE",
"48 355 OFFCURVE",
"23 345 CURVE",
"10 375 LINE",
"77 465 LINE",
"82 465 LINE",
"92 465 OFFCURVE",
"166 427 OFFCURVE",
"166 417 CURVE"
);
}
);
width = 354;
}
);
note = x;
unicode = 0078;
},
{
color = 4;
glyphname = y;
lastChange = "2019-04-24 17:25:05 +0000";
layers = (
{
layerId = "E35B076F-D533-4C92-BAB9-D65BCB0F4FA2";
paths = (
{
closed = 1;
nodes = (
"178 423 LINE SMOOTH",
"171 442 OFFCURVE",
"124 465 OFFCURVE",
"105 465 CURVE",
"29 360 LINE",
"44 327 LINE",
"79 362 OFFCURVE",
"92 348 OFFCURVE",
"110 303 CURVE SMOOTH",
"257 -72 LINE",
"317 20 LINE"
);
},
{
closed = 1;
nodes = (
"192 301 LINE",
"206 322 OFFCURVE",
"252 361 OFFCURVE",
"301 361 CURVE SMOOTH",
"350 361 OFFCURVE",
"405 320 OFFCURVE",
"405 232 CURVE SMOOTH",
"405 101 OFFCURVE",
"243 -67 OFFCURVE",
"58 -230 CURVE",
"114 -265 LINE",
"347 9 LINE SMOOTH",
"395 66 OFFCURVE",
"489 177 OFFCURVE",
"489 293 CURVE SMOOTH",
"489 400 OFFCURVE",
"424 437 OFFCURVE",
"339 465 CURVE",
"182 342 LINE"
);
}
);
width = 540;
}
);
note = y;
unicode = 0079;
},
{
color = 4;
glyphname = y_dieresis;
lastChange = "2019-03-11 18:47:52 +0000";
layers = (
{
components = (
{
name = y;
}
);
layerId = "E35B076F-D533-4C92-BAB9-D65BCB0F4FA2";
paths = (
{
closed = 1;
nodes = (
"186 542 LINE",
"217 534 LINE",
"260 637 LINE",
"217 652 LINE"
);
},
{
closed = 1;
nodes = (
"271 542 LINE",
"302 534 LINE",
"363 637 LINE",
"320 652 LINE"
);
}
);
width = 540;
}
);
},
{
color = 4;
glyphname = z;
lastChange = "2019-03-12 17:52:17 +0000";
layers = (
{
layerId = "E35B076F-D533-4C92-BAB9-D65BCB0F4FA2";
paths = (
{
closed = 1;
nodes = (
"363 310 LINE",
"363 336 LINE",
"277 382 OFFCURVE",
"212 415 OFFCURVE",
"144 465 CURVE",
"139 465 LINE",
"7 366 LINE",
"26 338 LINE",
"62 360 OFFCURVE",
"89 363 OFFCURVE",
"126 341 CURVE SMOOTH",
"243 273 LINE",
"297 325 LINE",
"201 237 OFFCURVE",
"106 168 OFFCURVE",
"19 125 CURVE",
"49 92 LINE"
);
},
{
closed = 1;
nodes = (
"82 115 LINE",
"140 117 OFFCURVE",
"250 76 OFFCURVE",
"250 -8 CURVE SMOOTH",
"250 -79 OFFCURVE",
"198 -137 OFFCURVE",
"-6 -226 CURVE",
"61 -265 LINE",
"228 -137 OFFCURVE",
"347 -73 OFFCURVE",
"347 27 CURVE SMOOTH",
"347 138 OFFCURVE",
"258 177 OFFCURVE",
"166 185 CURVE"
);
}
);
width = 377;
}
);
unicode = 007A;
},
{
color = 10;
glyphname = one;
lastChange = "2019-04-24 17:25:05 +0000";
layers = (
{
layerId = "E35B076F-D533-4C92-BAB9-D65BCB0F4FA2";
paths = (
{
closed = 1;
nodes = (
"65 -17 LINE",
"155 30 LINE",
"150 185 OFFCURVE",
"148 310 OFFCURVE",
"149 465 CURVE",
"144 465 LINE",
"50 415 LINE",
"55 353 OFFCURVE",
"45 62 OFFCURVE",
"40 -10 CURVE"
);
}
);
width = 195;
}
);
note = one;
unicode = 0031;
},
{
color = 10;
glyphname = two;
lastChange = "2019-04-24 17:25:05 +0000";
layers = (
{
layerId = "E35B076F-D533-4C92-BAB9-D65BCB0F4FA2";
paths = (
{
closed = 1;
nodes = (
"27 -9 LINE",
"107 2 OFFCURVE",
"228 3 OFFCURVE",
"408 -6 CURVE",
"473 92 LINE",
"468 104 LINE",
"346 94 OFFCURVE",
"229 90 OFFCURVE",
"106 90 CURVE",
"105 58 LINE",
"371 331 LINE SMOOTH",
"403 363 OFFCURVE",
"399 365 OFFCURVE",
"463 363 CURVE",
"467 455 LINE",
"74 455 LINE",
"27 365 LINE",
"34 350 LINE",
"64 357 OFFCURVE",
"168 362 OFFCURVE",
"377 362 CURVE",
"357 393 LINE",
"21 23 LINE",
"20 19 LINE"
);
}
);
width = 493;
}
);
note = two;
unicode = 0032;
},
{
color = 10;
glyphname = three;
lastChange = "2019-04-24 17:25:05 +0000";
layers = (
{
layerId = "E35B076F-D533-4C92-BAB9-D65BCB0F4FA2";
paths = (
{
closed = 1;
nodes = (
"381 310 LINE",
"381 336 LINE",
"295 382 OFFCURVE",
"230 415 OFFCURVE",
"162 465 CURVE",
"157 465 LINE",
"25 366 LINE",
"44 338 LINE",
"80 360 OFFCURVE",
"107 363 OFFCURVE",
"144 341 CURVE SMOOTH",
"261 273 LINE",
"317 335 LINE",
"221 247 OFFCURVE",
"133 176 OFFCURVE",
"46 133 CURVE",
"80 104 LINE"
);
},
{
closed = 1;
nodes = (
"80 104 LINE",
"158 146 OFFCURVE",
"268 76 OFFCURVE",
"268 -8 CURVE SMOOTH",
"268 -98 OFFCURVE",
"173 -147 OFFCURVE",
"30 -231 CURVE",
"89 -265 LINE",
"261 -131 OFFCURVE",
"365 -63 OFFCURVE",
"365 27 CURVE SMOOTH",
"365 129 OFFCURVE",
"276 173 OFFCURVE",
"184 181 CURVE"
);
}
);
width = 406;
}
);
note = three;
unicode = 0033;
},
{
color = 10;
glyphname = four;
lastChange = "2019-04-24 17:25:05 +0000";
layers = (
{
layerId = "E35B076F-D533-4C92-BAB9-D65BCB0F4FA2";
paths = (
{
closed = 1;
nodes = (
"421 0 LINE SMOOTH",
"460 0 OFFCURVE",
"469 -3 OFFCURVE",
"481 -34 CURVE",
"508 -33 LINE",
"509 90 LINE",
"71 90 LINE",
"88 56 LINE",
"352 345 LINE",
"322 370 LINE",
"319 161 OFFCURVE",
"328 -209 OFFCURVE",
"312 -258 CURVE",
"331 -266 LINE",
"419 -208 LINE",
"421 12 OFFCURVE",
"417 394 OFFCURVE",
"426 452 CURVE",
"397 465 LINE",
"0 28 LINE",
"12 0 LINE"
);
}
);
width = 503;
}
);
note = four;
unicode = 0034;
},
{
color = 10;
glyphname = five;
lastChange = "2019-02-25 10:36:37 +0000";
layers = (
{
layerId = "E35B076F-D533-4C92-BAB9-D65BCB0F4FA2";
paths = (
{
closed = 1;
nodes = (
"90 -265 LINE",
"93 -265 LINE",
"263 -138 OFFCURVE",
"399 -46 OFFCURVE",
"399 61 CURVE SMOOTH",
"399 140 OFFCURVE",
"347 164 OFFCURVE",
"253 217 CURVE SMOOTH",
"168 265 OFFCURVE",
"130 273 OFFCURVE",
"168 359 CURVE",
"130 311 LINE",
"425 417 LINE",
"413 464 LINE",
"52 329 LINE",
"45 298 OFFCURVE",
"45 267 OFFCURVE",
"52 236 CURVE",
"204 114 OFFCURVE",
"299 85 OFFCURVE",
"299 8 CURVE SMOOTH",
"299 -53 OFFCURVE",
"243 -110 OFFCURVE",
"28 -240 CURVE"
);
}
);
width = 438;
}
);
note = five;
unicode = 0035;
},
{
color = 10;
glyphname = six;
lastChange = "2019-04-24 17:25:05 +0000";
layers = (
{
layerId = "E35B076F-D533-4C92-BAB9-D65BCB0F4FA2";
paths = (
{
closed = 1;
nodes = (
"86 315 LINE",
"181 407 OFFCURVE",
"374 368 OFFCURVE",
"374 228 CURVE SMOOTH",
"374 138 OFFCURVE",
"314 95 OFFCURVE",
"254 95 CURVE SMOOTH",
"146 95 OFFCURVE",
"100 219 OFFCURVE",
"100 293 CURVE SMOOTH",
"100 520 OFFCURVE",
"302 647 OFFCURVE",
"403 679 CURVE",
"393 715 LINE",
"192 657 OFFCURVE",
"19 466 OFFCURVE",
"19 247 CURVE SMOOTH",
"19 127 OFFCURVE",
"75 13 OFFCURVE",
"242 -10 CURVE",
"312 50 OFFCURVE",
"443 134 OFFCURVE",
"443 263 CURVE SMOOTH",
"443 394 OFFCURVE",
"354 445 OFFCURVE",
"260 465 CURVE",
"87 365 LINE"
);
}
);
width = 450;
}
);
note = six;
unicode = 0036;
},
{
color = 10;
glyphname = seven;
lastChange = "2019-04-24 17:25:05 +0000";
layers = (
{
layerId = "E35B076F-D533-4C92-BAB9-D65BCB0F4FA2";
paths = (
{
closed = 1;
nodes = (
"22 6 LINE",
"82 -13 LINE",
"210 139 OFFCURVE",
"409 388 OFFCURVE",
"466 432 CURVE",
"458 465 LINE",
"387 451 OFFCURVE",
"236 454 OFFCURVE",
"65 455 CURVE",
"20 352 LINE",
"52 339 LINE",
"73 368 OFFCURVE",
"226 356 OFFCURVE",
"367 364 CURVE",
"376 405 LINE",
"21 20 LINE"
);
}
);
width = 471;
}
);
note = seven;
unicode = 0037;
},
{
color = 10;
glyphname = eight;
lastChange = "2019-04-24 17:25:05 +0000";
layers = (
{
guideLines = (
{
angle = 90;
position = "{0, 502}";
}
);
layerId = "E35B076F-D533-4C92-BAB9-D65BCB0F4FA2";
paths = (
{
closed = 1;
nodes = (
"322 380 LINE",
"374 418 OFFCURVE",
"444 469 OFFCURVE",
"444 553 CURVE SMOOTH",
"444 645 OFFCURVE",
"367 715 OFFCURVE",
"241 715 CURVE SMOOTH",
"144 715 OFFCURVE",
"40 645 OFFCURVE",
"40 533 CURVE SMOOTH",
"40 434 OFFCURVE",
"113 367 OFFCURVE",
"225 334 CURVE SMOOTH",
"317 307 OFFCURVE",
"389 272 OFFCURVE",
"389 199 CURVE SMOOTH",
"389 131 OFFCURVE",
"326 89 OFFCURVE",
"267 89 CURVE SMOOTH",
"192 89 OFFCURVE",
"126 130 OFFCURVE",
"126 211 CURVE SMOOTH",
"126 265 OFFCURVE",
"163 314 OFFCURVE",
"241 360 CURVE",
"197 377 LINE",
"97 316 OFFCURVE",
"49 244 OFFCURVE",
"49 167 CURVE SMOOTH",
"49 64 OFFCURVE",
"132 -10 OFFCURVE",
"265 -10 CURVE",
"321 8 OFFCURVE",
"441 78 OFFCURVE",
"441 218 CURVE SMOOTH",
"441 302 OFFCURVE",
"406 374 OFFCURVE",
"278 419 CURVE SMOOTH",
"175 455 OFFCURVE",
"130 510 OFFCURVE",
"130 567 CURVE SMOOTH",
"130 628 OFFCURVE",
"178 677 OFFCURVE",
"244 677 CURVE SMOOTH",
"316 677 OFFCURVE",
"374 622 OFFCURVE",
"374 552 CURVE SMOOTH",
"374 468 OFFCURVE",
"312 427 OFFCURVE",
"270 397 CURVE"
);
}
);
width = 484;
}
);
note = eight;
unicode = 0038;
},
{
color = 10;
glyphname = nine;
lastChange = "2019-04-24 17:25:05 +0000";
layers = (
{
layerId = "E35B076F-D533-4C92-BAB9-D65BCB0F4FA2";
paths = (
{
closed = 1;
nodes = (
"372 135 LINE",
"277 51 OFFCURVE",
"84 88 OFFCURVE",
"84 235 CURVE SMOOTH",
"84 306 OFFCURVE",
"134 355 OFFCURVE",
"204 355 CURVE SMOOTH",
"312 355 OFFCURVE",
"358 249 OFFCURVE",
"358 157 CURVE SMOOTH",
"358 -70 OFFCURVE",
"143 -199 OFFCURVE",
"42 -231 CURVE",
"65 -265 LINE",
"266 -207 OFFCURVE",
"439 -16 OFFCURVE",
"439 203 CURVE SMOOTH",
"439 323 OFFCURVE",
"386 446 OFFCURVE",
"186 460 CURVE",
"117 400 OFFCURVE",
"15 316 OFFCURVE",
"15 187 CURVE SMOOTH",
"15 66 OFFCURVE",
"95 15 OFFCURVE",
"198 -15 CURVE",
"371 85 LINE"
);
}
);
width = 469;
}
);
note = nine;
unicode = 0039;
},
{
color = 10;
glyphname = zero;
lastChange = "2019-04-24 17:25:05 +0000";
layers = (
{
layerId = "E35B076F-D533-4C92-BAB9-D65BCB0F4FA2";
paths = (
{
closed = 1;
nodes = (
"349 68 OFFCURVE",
"446 108 OFFCURVE",
"446 258 CURVE SMOOTH",
"446 358 OFFCURVE",
"359 465 OFFCURVE",
"221 465 CURVE",
"123 440 OFFCURVE",
"20 327 OFFCURVE",
"20 217 CURVE SMOOTH",
"20 107 OFFCURVE",
"99 1 OFFCURVE",
"260 -10 CURVE"
);
},
{
closed = 1;
nodes = (
"190 82 OFFCURVE",
"101 161 OFFCURVE",
"101 271 CURVE SMOOTH",
"101 310 OFFCURVE",
"118 362 OFFCURVE",
"153 380 CURVE",
"267 393 OFFCURVE",
"366 307 OFFCURVE",
"366 217 CURVE SMOOTH",
"366 157 OFFCURVE",
"342 112 OFFCURVE",
"301 83 CURVE"
);
}
);
width = 466;
}
);
unicode = 0030;
},
{
color = 10;
glyphname = ampersand;
lastChange = "2019-04-24 17:25:05 +0000";
layers = (
{
layerId = "E35B076F-D533-4C92-BAB9-D65BCB0F4FA2";
paths = (
{
closed = 1;
nodes = (
"257 233 OFFCURVE",
"254 111 OFFCURVE",
"249 0 CURVE",
"264 -10 LINE",
"406 37 LINE",
"406 69 LINE",
"367 69 OFFCURVE",
"357 84 OFFCURVE",
"357 137 CURVE SMOOTH",
"357 330 OFFCURVE",
"367 387 OFFCURVE",
"388 455 CURVE",
"367 467 LINE",
"344 449 OFFCURVE",
"318 434 OFFCURVE",
"283 434 CURVE SMOOTH",
"232 434 OFFCURVE",
"184 465 OFFCURVE",
"107 465 CURVE SMOOTH",
"26 465 OFFCURVE",
"23 355 OFFCURVE",
"35 282 CURVE",
"66 289 LINE",
"59 365 OFFCURVE",
"83 365 OFFCURVE",
"116 365 CURVE SMOOTH",
"159 365 OFFCURVE",
"206 353 OFFCURVE",
"278 344 CURVE"
);
},
{
closed = 1;
nodes = (
"424 322 LINE",
"73 141 LINE",
"92 104 LINE",
"94 103 LINE",
"186 169 OFFCURVE",
"322 237 OFFCURVE",
"434 293 CURVE"
);
}
);
width = 460;
}
);
note = ampersand;
unicode = 0026;
},
{
color = 10;
glyphname = con;
lastChange = "2019-04-24 17:25:05 +0000";
layers = (
{
layerId = "E35B076F-D533-4C92-BAB9-D65BCB0F4FA2";
paths = (
{
closed = 1;
nodes = (
"36 90 LINE",
"101 118 LINE",
"125 96 OFFCURVE",
"182 30 OFFCURVE",
"215 -10 CURVE",
"220 -10 LINE",
"259 16 OFFCURVE",
"320 50 OFFCURVE",
"355 86 CURVE",
"469 234 OFFCURVE",
"409 465 OFFCURVE",
"193 465 CURVE SMOOTH",
"129 465 OFFCURVE",
"84 434 OFFCURVE",
"20 387 CURVE",
"31 357 LINE",
"60 367 OFFCURVE",
"86 381 OFFCURVE",
"144 381 CURVE SMOOTH",
"329 381 OFFCURVE",
"372 186 OFFCURVE",
"309 90 CURVE",
"259 107 OFFCURVE",
"214 162 OFFCURVE",
"179 192 CURVE",
"20 120 LINE"
);
}
);
width = 437;
}
);
note = com;
rightMetricsKey = o;
unicode = A76F;
},
{
color = 10;
glyphname = etfin;
lastChange = "2019-03-11 18:30:11 +0000";
layers = (
{
layerId = "E35B076F-D533-4C92-BAB9-D65BCB0F4FA2";
paths = (
{
closed = 1;
nodes = (
"363 310 LINE",
"363 336 LINE",
"277 382 OFFCURVE",
"212 415 OFFCURVE",
"144 465 CURVE",
"139 465 LINE",
"7 366 LINE",
"26 338 LINE",
"62 360 OFFCURVE",
"89 363 OFFCURVE",
"126 341 CURVE SMOOTH",
"243 273 LINE",
"297 325 LINE",
"201 237 OFFCURVE",
"106 168 OFFCURVE",
"19 125 CURVE",
"49 92 LINE"
);
},
{
closed = 1;
nodes = (
"82 115 LINE",
"140 117 OFFCURVE",
"250 76 OFFCURVE",
"250 -8 CURVE SMOOTH",
"250 -79 OFFCURVE",
"198 -137 OFFCURVE",
"-6 -226 CURVE",
"61 -265 LINE",
"228 -137 OFFCURVE",
"347 -73 OFFCURVE",
"347 27 CURVE SMOOTH",
"347 138 OFFCURVE",
"258 177 OFFCURVE",
"166 185 CURVE"
);
}
);
width = 377;
}
);
},
{
color = 10;
glyphname = rum;
lastChange = "2019-04-24 17:25:05 +0000";
layers = (
{
layerId = "E35B076F-D533-4C92-BAB9-D65BCB0F4FA2";
paths = (
{
closed = 1;
nodes = (
"77 9 OFFCURVE",
"401 3 OFFCURVE",
"592 -1 CURVE",
"623 85 LINE",
"620 90 LINE",
"108 90 LINE",
"112 58 LINE",
"340 322 LINE",
"335 419 OFFCURVE",
"262 465 OFFCURVE",
"198 465 CURVE SMOOTH",
"144 465 OFFCURVE",
"94 406 OFFCURVE",
"35 345 CURVE",
"56 323 LINE",
"94 354 OFFCURVE",
"117 366 OFFCURVE",
"147 366 CURVE SMOOTH",
"167 366 OFFCURVE",
"223 349 OFFCURVE",
"223 291 CURVE SMOOTH",
"223 202 OFFCURVE",
"71 83 OFFCURVE",
"7 13 CURVE",
"20 -8 LINE"
);
},
{
closed = 1;
nodes = (
"470 475 LINE",
"313 338 LINE",
"332 315 LINE",
"350 331 OFFCURVE",
"369 345 OFFCURVE",
"396 345 CURVE SMOOTH",
"431 345 OFFCURVE",
"492 307 OFFCURVE",
"492 256 CURVE SMOOTH",
"492 197 OFFCURVE",
"191 -79 OFFCURVE",
"33 -242 CURVE",
"30 -243 LINE",
"87 -257 LINE",
"90 -257 LINE",
"633 319 LINE",
"633 322 LINE",
"580 363 OFFCURVE",
"526 414 OFFCURVE",
"473 475 CURVE"
);
}
);
width = 643;
}
);
note = uniA775;
unicode = A775;
},
{
color = 10;
glyphname = section;
lastChange = "2019-04-24 17:25:05 +0000";
layers = (
{
layerId = "E35B076F-D533-4C92-BAB9-D65BCB0F4FA2";
paths = (
{
closed = 1;
nodes = (
"173 495 LINE",
"139 483 OFFCURVE",
"63 441 OFFCURVE",
"63 387 CURVE SMOOTH",
"63 316 OFFCURVE",
"123 283 OFFCURVE",
"205 231 CURVE SMOOTH",
"263 194 OFFCURVE",
"339 145 OFFCURVE",
"339 87 CURVE SMOOTH",
"339 -5 OFFCURVE",
"140 -156 OFFCURVE",
"5 -251 CURVE",
"23 -271 LINE",
"250 -130 OFFCURVE",
"450 5 OFFCURVE",
"449 110 CURVE SMOOTH",
"448 205 OFFCURVE",
"368 255 OFFCURVE",
"298 296 CURVE SMOOTH",
"232 335 OFFCURVE",
"155 377 OFFCURVE",
"155 429 CURVE SMOOTH",
"155 467 OFFCURVE",
"201 480 OFFCURVE",
"209 487 CURVE"
);
},
{
closed = 1;
nodes = (
"304 255 LINE",
"385 306 OFFCURVE",
"450 333 OFFCURVE",
"450 412 CURVE SMOOTH",
"450 473 OFFCURVE",
"343 495 OFFCURVE",
"271 525 CURVE SMOOTH",
"231 542 OFFCURVE",
"187 563 OFFCURVE",
"184 613 CURVE SMOOTH",
"183 631 OFFCURVE",
"198 648 OFFCURVE",
"221 648 CURVE SMOOTH",
"274 648 OFFCURVE",
"312 595 OFFCURVE",
"365 580 CURVE",
"400 622 OFFCURVE",
"458 685 OFFCURVE",
"473 700 CURVE",
"449 715 LINE",
"431 700 OFFCURVE",
"404 684 OFFCURVE",
"394 684 CURVE SMOOTH",
"368 684 OFFCURVE",
"331 690 OFFCURVE",
"271 725 CURVE",
"173 675 OFFCURVE",
"94 622 OFFCURVE",
"94 572 CURVE SMOOTH",
"94 492 OFFCURVE",
"166 481 OFFCURVE",
"243 443 CURVE SMOOTH",
"331 399 OFFCURVE",
"355 388 OFFCURVE",
"355 362 CURVE SMOOTH",
"355 305 OFFCURVE",
"306 291 OFFCURVE",
"257 265 CURVE"
);
}
);
width = 478;
}
);
note = section;
unicode = 00A7;
},
{
color = 10;
glyphname = us;
lastChange = "2019-04-24 17:25:05 +0000";
layers = (
{
layerId = "E35B076F-D533-4C92-BAB9-D65BCB0F4FA2";
paths = (
{
closed = 1;
nodes = (
"262 415 LINE",
"168 351 OFFCURVE",
"63 429 OFFCURVE",
"63 524 CURVE SMOOTH",
"63 575 OFFCURVE",
"99 617 OFFCURVE",
"143 617 CURVE SMOOTH",
"201 617 OFFCURVE",
"243 549 OFFCURVE",
"243 457 CURVE SMOOTH",
"243 290 OFFCURVE",
"145 115 OFFCURVE",
"57 11 CURVE",
"86 -14 LINE",
"213 134 OFFCURVE",
"316 371 OFFCURVE",
"316 520 CURVE SMOOTH",
"316 630 OFFCURVE",
"284 710 OFFCURVE",
"189 710 CURVE SMOOTH",
"75 710 OFFCURVE",
"8 576 OFFCURVE",
"8 487 CURVE SMOOTH",
"8 397 OFFCURVE",
"46 328 OFFCURVE",
"80 304 CURVE",
"145 307 OFFCURVE",
"218 353 OFFCURVE",
"263 377 CURVE"
);
}
);
width = 326;
}
);
note = us;
unicode = A770;
},
{
color = 10;
glyphname = period;
lastChange = "2019-04-24 17:25:05 +0000";
layers = (
{
layerId = "E35B076F-D533-4C92-BAB9-D65BCB0F4FA2";
paths = (
{
closed = 1;
nodes = (
"20 74 LINE",
"20 68 LINE",
"97 -10 LINE",
"102 -10 LINE",
"180 68 LINE",
"180 74 LINE",
"102 152 LINE",
"97 152 LINE"
);
}
);
width = 200;
}
);
note = period;
unicode = 002E;
},
{
color = 10;
glyphname = comma;
lastChange = "2019-04-24 17:25:05 +0000";
layers = (
{
layerId = "E35B076F-D533-4C92-BAB9-D65BCB0F4FA2";
paths = (
{
closed = 1;
nodes = (
"45 74 LINE",
"45 68 LINE",
"114 -2 OFFCURVE",
"113 2 OFFCURVE",
"87 -29 CURVE SMOOTH",
"25 -101 LINE",
"64 -141 LINE",
"224 43 LINE",
"224 53 LINE",
"127 152 LINE",
"122 152 LINE"
);
}
);
width = 229;
}
);
note = comma;
unicode = 002C;
},
{
color = 10;
glyphname = question;
lastChange = "2019-04-24 17:25:05 +0000";
layers = (
{
components = (
{
name = period;
transform = "{1, 0, 0, 1, 35, 1}";
}
);
layerId = "E35B076F-D533-4C92-BAB9-D65BCB0F4FA2";
paths = (
{
closed = 1;
nodes = (
"121 442 LINE",
"40 365 LINE",
"40 360 LINE",
"123 282 LINE",
"128 282 LINE",
"264 400 LINE",
"274 559 LINE",
"284 559 OFFCURVE",
"355 535 OFFCURVE",
"379 511 CURVE",
"383 511 LINE",
"430 673 LINE",
"428 665 LINE",
"386 662 OFFCURVE",
"335 657 OFFCURVE",
"293 650 CURVE",
"259 614 OFFCURVE",
"242 580 OFFCURVE",
"216 530 CURVE",
"212 486 OFFCURVE",
"218 425 OFFCURVE",
"194 381 CURVE",
"126 442 LINE"
);
}
);
width = 470;
}
);
note = question;
unicode = 003F;
},
{
color = 10;
glyphname = hyphen;
lastChange = "2019-04-24 17:25:05 +0000";
layers = (
{
layerId = "E35B076F-D533-4C92-BAB9-D65BCB0F4FA2";
paths = (
{
closed = 1;
nodes = (
"60 258 LINE",
"70 254 LINE",
"274 369 LINE",
"314 446 LINE",
"306 455 LINE",
"79 304 LINE"
);
},
{
closed = 1;
nodes = (
"20 138 LINE",
"30 130 LINE",
"356 303 LINE",
"355 314 LINE",
"275 315 LINE",
"62 199 LINE"
);
}
);
width = 376;
}
);
note = hyphen;
unicode = 002D;
},
{
color = 10;
glyphname = macr;
lastChange = "2019-04-24 17:25:05 +0000";
layers = (
{
layerId = "E35B076F-D533-4C92-BAB9-D65BCB0F4FA2";
paths = (
{
closed = 1;
nodes = (
"362 569 LINE",
"388 648 LINE",
"386 654 LINE",
"113 617 LINE",
"82 586 OFFCURVE",
"50 545 OFFCURVE",
"31 508 CURVE",
"52 501 LINE",
"81 544 OFFCURVE",
"165 557 OFFCURVE",
"229 561 CURVE SMOOTH"
);
}
);
width = 408;
}
);
note = macr;
},
{
color = 10;
glyphname = apomod;
lastChange = "2019-04-24 17:25:05 +0000";
layers = (
{
layerId = "E35B076F-D533-4C92-BAB9-D65BCB0F4FA2";
paths = (
{
closed = 1;
nodes = (
"48 487 LINE",
"132 506 OFFCURVE",
"204 561 OFFCURVE",
"204 623 CURVE SMOOTH",
"204 673 OFFCURVE",
"154 715 OFFCURVE",
"103 715 CURVE",
"30 629 LINE",
"33 624 LINE",
"72 619 OFFCURVE",
"104 600 OFFCURVE",
"104 575 CURVE SMOOTH",
"104 545 OFFCURVE",
"68 522 OFFCURVE",
"40 513 CURVE"
);
}
);
width = 234;
}
);
note = apomod;
},
{
color = 10;
glyphname = urrot;
lastChange = "2019-04-24 17:25:05 +0000";
layers = (
{
layerId = "E35B076F-D533-4C92-BAB9-D65BCB0F4FA2";
paths = (
{
closed = 1;
nodes = (
"39 640 LINE",
"94 692 LINE",
"155 690 OFFCURVE",
"216 695 OFFCURVE",
"277 700 CURVE",
"277 694 LINE",
"201 621 LINE",
"255 621 OFFCURVE",
"302 625 OFFCURVE",
"355 632 CURVE",
"355 626 LINE",
"336 607 OFFCURVE",
"325 591 OFFCURVE",
"312 570 CURVE",
"131 569 LINE",
"131 574 LINE",
"190 640 LINE",
"143 642 OFFCURVE",
"76 643 OFFCURVE",
"39 635 CURVE"
);
}
